%TF.GenerationSoftware,KiCad,Pcbnew,10.0.5*%
%TF.CreationDate,2026-10-02T22:40:27+05:30*%
%TF.ProjectId,Regulated Power Supply,52656775-6c61-4746-9564-20506f776572,rev?*%
%TF.SameCoordinates,Original*%
%TF.FileFunction,Copper,L1,Top*%
%TF.FilePolarity,Positive*%
%FSLAX46Y46*%
G04 Gerber Fmt 4.6, Leading zero omitted, Abs format (unit mm)*
G04 Created by KiCad (PCBNEW 10.0.5) date 2026-10-02 22:40:27*
%MOMM*%
%LPD*%
G01*
G04 APERTURE LIST*
G04 Aperture macros list*
%AMRoundRect*
0 Rectangle with rounded corners*
0 $1 Rounding radius*
0 $2 $3 $4 $5 $6 $7 $8 $9 X,Y pos of 4 corners*
0 Add a 4 corners polygon primitive as box body*
4,1,4,$2,$3,$4,$5,$6,$7,$8,$9,$2,$3,0*
0 Add four circle primitives for the rounded corners*
1,1,$1+$1,$2,$3*
1,1,$1+$1,$4,$5*
1,1,$1+$1,$6,$7*
1,1,$1+$1,$8,$9*
0 Add four rect primitives between the rounded corners*
20,1,$1+$1,$2,$3,$4,$5,0*
20,1,$1+$1,$4,$5,$6,$7,0*
20,1,$1+$1,$6,$7,$8,$9,0*
20,1,$1+$1,$8,$9,$2,$3,0*%
G04 Aperture macros list end*
%TA.AperFunction,ComponentPad*%
%ADD10C,1.400000*%
%TD*%
%TA.AperFunction,ComponentPad*%
%ADD11C,3.000000*%
%TD*%
%TA.AperFunction,ComponentPad*%
%ADD12RoundRect,0.249999X-0.850001X-0.850001X0.850001X-0.850001X0.850001X0.850001X-0.850001X0.850001X0*%
%TD*%
%TA.AperFunction,ComponentPad*%
%ADD13C,2.200000*%
%TD*%
%TA.AperFunction,ComponentPad*%
%ADD14RoundRect,0.250000X-0.550000X-0.550000X0.550000X-0.550000X0.550000X0.550000X-0.550000X0.550000X0*%
%TD*%
%TA.AperFunction,ComponentPad*%
%ADD15C,1.600000*%
%TD*%
%TA.AperFunction,ComponentPad*%
%ADD16R,2.000000X1.905000*%
%TD*%
%TA.AperFunction,ComponentPad*%
%ADD17O,2.000000X1.905000*%
%TD*%
%TA.AperFunction,ComponentPad*%
%ADD18RoundRect,0.250000X-1.050000X1.050000X-1.050000X-1.050000X1.050000X-1.050000X1.050000X1.050000X0*%
%TD*%
%TA.AperFunction,ComponentPad*%
%ADD19C,2.600000*%
%TD*%
%TA.AperFunction,ComponentPad*%
%ADD20RoundRect,0.250000X-1.050000X-1.050000X1.050000X-1.050000X1.050000X1.050000X-1.050000X1.050000X0*%
%TD*%
%TA.AperFunction,ComponentPad*%
%ADD21R,1.800000X1.800000*%
%TD*%
%TA.AperFunction,ComponentPad*%
%ADD22C,1.800000*%
%TD*%
%TA.AperFunction,ComponentPad*%
%ADD23RoundRect,0.249999X0.850001X0.850001X-0.850001X0.850001X-0.850001X-0.850001X0.850001X-0.850001X0*%
%TD*%
%TA.AperFunction,Conductor*%
%ADD24C,0.500000*%
%TD*%
%TA.AperFunction,Conductor*%
%ADD25C,1.000000*%
%TD*%
G04 APERTURE END LIST*
D10*
%TO.P,R1,1*%
%TO.N,Net-(J2-Pin_1)*%
X164960000Y-108600000D03*
%TO.P,R1,2*%
%TO.N,Net-(D5-A)*%
X170040000Y-108600000D03*
%TD*%
D11*
%TO.P,T1,1,AA_1*%
%TO.N,Net-(T1-AA)*%
X116000000Y-104400000D03*
%TO.P,T1,2,AB_2*%
%TO.N,Net-(J1-Pin_1)*%
X116000000Y-99400000D03*
%TO.P,T1,3,SA_3*%
%TO.N,Net-(D3-K)*%
X116000000Y-94400000D03*
%TO.P,T1,4,SB_4*%
%TO.N,Net-(D1-K)*%
X116000000Y-89400000D03*
%TO.P,T1,5*%
%TO.N,N/C*%
X116000000Y-84400000D03*
%TO.P,T1,6*%
X136000000Y-84400000D03*
%TO.P,T1,7*%
X136000000Y-89400000D03*
%TO.P,T1,8*%
X136000000Y-94400000D03*
%TO.P,T1,9*%
X136000000Y-99400000D03*
%TO.P,T1,10*%
X136000000Y-104400000D03*
%TD*%
D12*
%TO.P,D2,1,K_1*%
%TO.N,Net-(D2-K)*%
X160020000Y-83400000D03*
D13*
%TO.P,D2,2,A_2*%
%TO.N,Net-(D1-K)*%
X170180000Y-83400000D03*
%TD*%
D14*
%TO.P,C3,1*%
%TO.N,Net-(J2-Pin_1)*%
X164029063Y-97200000D03*
X164700000Y-98800000D03*
D15*
%TO.P,C3,2*%
%TO.N,GND*%
X167200000Y-98800000D03*
X167870937Y-100400000D03*
%TD*%
D14*
%TO.P,C1,1*%
%TO.N,Net-(D2-K)*%
X149429063Y-95600000D03*
X150100000Y-97200000D03*
D15*
%TO.P,C1,2*%
%TO.N,GND*%
X152600000Y-97200000D03*
X153270937Y-98800000D03*
%TD*%
D11*
%TO.P,F1,1*%
%TO.N,Net-(J1-Pin_2)*%
X141930000Y-121200000D03*
%TO.P,F1,2*%
%TO.N,Net-(T1-AA)*%
X131770000Y-121200000D03*
%TD*%
D14*
%TO.P,C2,1*%
%TO.N,Net-(D2-K)*%
X148929063Y-81000000D03*
X149600000Y-82600000D03*
D15*
%TO.P,C2,2*%
%TO.N,GND*%
X152100000Y-82600000D03*
X152770937Y-84200000D03*
%TD*%
D16*
%TO.P,U1,1,IN_1*%
%TO.N,Net-(D2-K)*%
X176900000Y-95300000D03*
D17*
%TO.P,U1,2,GND_2*%
%TO.N,GND*%
X176900000Y-92760000D03*
%TO.P,U1,3,OUT_3*%
%TO.N,Net-(J2-Pin_1)*%
X176900000Y-90220000D03*
%TD*%
D12*
%TO.P,D1,1,K_1*%
%TO.N,Net-(D1-K)*%
X160020000Y-78300000D03*
D13*
%TO.P,D1,2,A_2*%
%TO.N,GND*%
X170180000Y-78300000D03*
%TD*%
D18*
%TO.P,J1,1,Pin_1_1*%
%TO.N,Net-(J1-Pin_1)*%
X102900000Y-94200000D03*
D19*
%TO.P,J1,2,Pin_2_2*%
%TO.N,Net-(J1-Pin_2)*%
X102900000Y-99200000D03*
%TD*%
D20*
%TO.P,J2,1,Pin_1_1*%
%TO.N,Net-(J2-Pin_1)*%
X155700000Y-119400000D03*
D19*
%TO.P,J2,2,Pin_2_2*%
%TO.N,GND*%
X160700000Y-119400000D03*
%TD*%
D21*
%TO.P,D5,1,K_1*%
%TO.N,GND*%
X176160000Y-107600000D03*
D22*
%TO.P,D5,2,A_2*%
%TO.N,Net-(D5-A)*%
X178700000Y-107600000D03*
%TD*%
D12*
%TO.P,D3,1,K_1*%
%TO.N,Net-(D3-K)*%
X174720000Y-78300000D03*
D13*
%TO.P,D3,2,A_2*%
%TO.N,GND*%
X184880000Y-78300000D03*
%TD*%
D23*
%TO.P,D4,1,K_1*%
%TO.N,Net-(D2-K)*%
X184980000Y-83300000D03*
D13*
%TO.P,D4,2,A_2*%
%TO.N,Net-(D3-K)*%
X174820000Y-83300000D03*
%TD*%
%TO.N,Net-(D2-K)*%
D24*
X157620000Y-81000000D02*
X148929063Y-81000000D01*
X176900000Y-95300000D02*
X178500000Y-95300000D01*
X160020000Y-83400000D02*
X157620000Y-81000000D01*
D25*
X149429063Y-95600000D02*
X149429063Y-82770937D01*
D24*
X178500000Y-95300000D02*
X184980000Y-88820000D01*
D25*
X149429063Y-95600000D02*
X149429063Y-96529063D01*
X148929063Y-81929063D02*
X149600000Y-82600000D01*
X149600000Y-95429063D02*
X149429063Y-95600000D01*
X148929063Y-81000000D02*
X148929063Y-81929063D01*
X149429063Y-96529063D02*
X150100000Y-97200000D01*
X149429063Y-82770937D02*
X149600000Y-82600000D01*
D24*
X184980000Y-88820000D02*
X184980000Y-83300000D01*
%TO.N,GND*%
D25*
X152600000Y-84370937D02*
X152770937Y-84200000D01*
X153270937Y-97870937D02*
X152600000Y-97200000D01*
D24*
X170180000Y-78300000D02*
X172380000Y-76100000D01*
X182680000Y-76100000D02*
X184880000Y-78300000D01*
X173240000Y-92760000D02*
X176900000Y-92760000D01*
D25*
X152100000Y-82600000D02*
X152100000Y-83529063D01*
X153270937Y-98800000D02*
X153270937Y-97870937D01*
D24*
X176160000Y-111240000D02*
X176160000Y-107600000D01*
X167200000Y-99729063D02*
X167870937Y-100400000D01*
X168000000Y-119400000D02*
X176160000Y-111240000D01*
X167200000Y-98800000D02*
X167200000Y-99729063D01*
D25*
X152100000Y-83529063D02*
X152770937Y-84200000D01*
X152770937Y-84200000D02*
X152770937Y-84870937D01*
D24*
X167200000Y-98800000D02*
X173240000Y-92760000D01*
D25*
X152770937Y-84870937D02*
X152600000Y-85041874D01*
D24*
X160700000Y-119400000D02*
X168000000Y-119400000D01*
X172380000Y-76100000D02*
X182680000Y-76100000D01*
D25*
X152600000Y-97200000D02*
X152600000Y-84370937D01*
%TO.N,Net-(J2-Pin_1)*%
D24*
X164700000Y-98800000D02*
X164700000Y-97870937D01*
X164029063Y-94470937D02*
X164029063Y-97200000D01*
X155700000Y-119400000D02*
X155700000Y-117860000D01*
X155700000Y-117860000D02*
X164960000Y-108600000D01*
X164700000Y-98800000D02*
X164700000Y-108340000D01*
X176900000Y-90220000D02*
X168280000Y-90220000D01*
X164700000Y-97870937D02*
X164029063Y-97200000D01*
X164700000Y-108340000D02*
X164960000Y-108600000D01*
X168280000Y-90220000D02*
X164029063Y-94470937D01*
%TO.N,Net-(D1-K)*%
X162600000Y-80900000D02*
X162600000Y-80880000D01*
D25*
X120000000Y-85400000D02*
X120000000Y-77900000D01*
D24*
X162600000Y-80880000D02*
X160020000Y-78300000D01*
X170180000Y-83400000D02*
X167680000Y-80900000D01*
D25*
X150500000Y-75000000D02*
X153800000Y-78300000D01*
X153800000Y-78300000D02*
X160020000Y-78300000D01*
X120000000Y-77900000D02*
X122900000Y-75000000D01*
X122900000Y-75000000D02*
X150500000Y-75000000D01*
X116000000Y-89400000D02*
X120000000Y-85400000D01*
D24*
X167680000Y-80900000D02*
X162600000Y-80900000D01*
%TO.N,Net-(D3-K)*%
X174720000Y-78300000D02*
X174720000Y-83200000D01*
X174720000Y-83200000D02*
X174820000Y-83300000D01*
%TO.N,Net-(D5-A)*%
X170040000Y-108600000D02*
X170040000Y-106160000D01*
X170040000Y-106160000D02*
X172700000Y-103500000D01*
X176200000Y-103500000D02*
X178700000Y-106000000D01*
X178700000Y-106000000D02*
X178700000Y-107600000D01*
X172700000Y-103500000D02*
X176200000Y-103500000D01*
%TO.N,Net-(J1-Pin_2)*%
D25*
X110900000Y-128800000D02*
X134330000Y-128800000D01*
X106700000Y-103000000D02*
X106700000Y-124600000D01*
X102900000Y-99200000D02*
X106700000Y-103000000D01*
X134330000Y-128800000D02*
X141930000Y-121200000D01*
X106700000Y-124600000D02*
X110900000Y-128800000D01*
%TO.N,Net-(T1-AA)*%
X116000000Y-105430000D02*
X116000000Y-104400000D01*
X131770000Y-121200000D02*
X116000000Y-105430000D01*
%TO.N,Net-(J1-Pin_1)*%
X102900000Y-94200000D02*
X105800000Y-94200000D01*
X105800000Y-94200000D02*
X111000000Y-99400000D01*
X111000000Y-99400000D02*
X116000000Y-99400000D01*
%TD*%
%TA.AperFunction,Conductor*%
%TO.N,GND*%
G36*
X121752256Y-74520185D02*
G01*
X121798011Y-74572989D01*
X121807955Y-74642147D01*
X121778930Y-74705703D01*
X121772898Y-74712181D01*
X119362220Y-77122859D01*
X119362218Y-77122861D01*
X119292538Y-77192540D01*
X119222859Y-77262219D01*
X119113371Y-77426079D01*
X119113364Y-77426092D01*
X119037950Y-77608160D01*
X119037947Y-77608170D01*
X118999500Y-77801456D01*
X118999500Y-84934217D01*
X118979815Y-85001256D01*
X118963181Y-85021898D01*
X116568110Y-87416968D01*
X116506787Y-87450453D01*
X116448337Y-87449062D01*
X116429271Y-87443953D01*
X116391116Y-87433730D01*
X116347662Y-87428009D01*
X116131127Y-87399500D01*
X116131120Y-87399500D01*
X115868880Y-87399500D01*
X115868872Y-87399500D01*
X115637772Y-87429926D01*
X115608884Y-87433730D01*
X115355581Y-87501602D01*
X115355571Y-87501605D01*
X115113309Y-87601953D01*
X115113299Y-87601958D01*
X114886196Y-87733075D01*
X114678148Y-87892718D01*
X114492718Y-88078148D01*
X114333075Y-88286196D01*
X114201958Y-88513299D01*
X114201953Y-88513309D01*
X114101605Y-88755571D01*
X114101602Y-88755581D01*
X114042198Y-88977283D01*
X114033730Y-89008885D01*
X113999500Y-89268872D01*
X113999500Y-89268880D01*
X113999500Y-89531120D01*
X114033730Y-89791116D01*
X114057481Y-89879755D01*
X114101602Y-90044418D01*
X114101605Y-90044428D01*
X114201953Y-90286690D01*
X114201958Y-90286700D01*
X114333075Y-90513803D01*
X114492718Y-90721851D01*
X114492726Y-90721860D01*
X114678140Y-90907274D01*
X114678148Y-90907281D01*
X114886196Y-91066924D01*
X115113299Y-91198041D01*
X115113309Y-91198046D01*
X115355571Y-91298394D01*
X115355581Y-91298398D01*
X115608884Y-91366270D01*
X115868880Y-91400500D01*
X115868887Y-91400500D01*
X116131113Y-91400500D01*
X116131120Y-91400500D01*
X116391116Y-91366270D01*
X116644419Y-91298398D01*
X116886697Y-91198043D01*
X117113803Y-91066924D01*
X117321851Y-90907282D01*
X117321855Y-90907277D01*
X117321860Y-90907274D01*
X117507274Y-90721860D01*
X117507277Y-90721855D01*
X117507282Y-90721851D01*
X117666924Y-90513803D01*
X117798043Y-90286697D01*
X117898398Y-90044419D01*
X117966270Y-89791116D01*
X118000500Y-89531120D01*
X118000500Y-89268880D01*
X118000499Y-89268872D01*
X133999500Y-89268872D01*
X133999500Y-89268880D01*
X133999500Y-89531120D01*
X134033730Y-89791116D01*
X134057481Y-89879755D01*
X134101602Y-90044418D01*
X134101605Y-90044428D01*
X134201953Y-90286690D01*
X134201958Y-90286700D01*
X134333075Y-90513803D01*
X134492718Y-90721851D01*
X134492726Y-90721860D01*
X134678140Y-90907274D01*
X134678148Y-90907281D01*
X134886196Y-91066924D01*
X135113299Y-91198041D01*
X135113309Y-91198046D01*
X135355571Y-91298394D01*
X135355581Y-91298398D01*
X135608884Y-91366270D01*
X135868880Y-91400500D01*
X135868887Y-91400500D01*
X136131113Y-91400500D01*
X136131120Y-91400500D01*
X136391116Y-91366270D01*
X136644419Y-91298398D01*
X136886697Y-91198043D01*
X137113803Y-91066924D01*
X137321851Y-90907282D01*
X137321855Y-90907277D01*
X137321860Y-90907274D01*
X137507274Y-90721860D01*
X137507277Y-90721855D01*
X137507282Y-90721851D01*
X137666924Y-90513803D01*
X137798043Y-90286697D01*
X137898398Y-90044419D01*
X137966270Y-89791116D01*
X138000500Y-89531120D01*
X138000500Y-89268880D01*
X137966270Y-89008884D01*
X137898398Y-88755581D01*
X137802809Y-88524808D01*
X137798046Y-88513309D01*
X137798041Y-88513299D01*
X137666924Y-88286196D01*
X137507281Y-88078148D01*
X137507274Y-88078140D01*
X137321860Y-87892726D01*
X137321851Y-87892718D01*
X137113803Y-87733075D01*
X136886700Y-87601958D01*
X136886690Y-87601953D01*
X136644428Y-87501605D01*
X136644421Y-87501603D01*
X136644419Y-87501602D01*
X136391116Y-87433730D01*
X136333339Y-87426123D01*
X136131127Y-87399500D01*
X136131120Y-87399500D01*
X135868880Y-87399500D01*
X135868872Y-87399500D01*
X135637772Y-87429926D01*
X135608884Y-87433730D01*
X135355581Y-87501602D01*
X135355571Y-87501605D01*
X135113309Y-87601953D01*
X135113299Y-87601958D01*
X134886196Y-87733075D01*
X134678148Y-87892718D01*
X134492718Y-88078148D01*
X134333075Y-88286196D01*
X134201958Y-88513299D01*
X134201953Y-88513309D01*
X134101605Y-88755571D01*
X134101602Y-88755581D01*
X134042198Y-88977283D01*
X134033730Y-89008885D01*
X133999500Y-89268872D01*
X118000499Y-89268872D01*
X117966270Y-89008884D01*
X117950937Y-88951661D01*
X117952600Y-88881811D01*
X117983029Y-88831889D01*
X120777139Y-86037782D01*
X120886632Y-85873914D01*
X120962051Y-85691835D01*
X120974632Y-85628582D01*
X121000500Y-85498543D01*
X121000500Y-84268872D01*
X133999500Y-84268872D01*
X133999500Y-84531127D01*
X134021606Y-84699031D01*
X134033730Y-84791116D01*
X134089834Y-85000499D01*
X134101602Y-85044418D01*
X134101605Y-85044428D01*
X134201953Y-85286690D01*
X134201958Y-85286700D01*
X134333075Y-85513803D01*
X134492718Y-85721851D01*
X134492726Y-85721860D01*
X134678140Y-85907274D01*
X134678148Y-85907281D01*
X134886196Y-86066924D01*
X135113299Y-86198041D01*
X135113309Y-86198046D01*
X135355571Y-86298394D01*
X135355581Y-86298398D01*
X135608884Y-86366270D01*
X135868880Y-86400500D01*
X135868887Y-86400500D01*
X136131113Y-86400500D01*
X136131120Y-86400500D01*
X136391116Y-86366270D01*
X136644419Y-86298398D01*
X136886697Y-86198043D01*
X137113803Y-86066924D01*
X137321851Y-85907282D01*
X137321855Y-85907277D01*
X137321860Y-85907274D01*
X137507274Y-85721860D01*
X137507277Y-85721855D01*
X137507282Y-85721851D01*
X137666924Y-85513803D01*
X137798043Y-85286697D01*
X137898398Y-85044419D01*
X137966270Y-84791116D01*
X138000500Y-84531120D01*
X138000500Y-84268880D01*
X137966270Y-84008884D01*
X137898398Y-83755581D01*
X137898394Y-83755571D01*
X137798046Y-83513309D01*
X137798041Y-83513299D01*
X137666924Y-83286196D01*
X137514954Y-83088147D01*
X137507282Y-83078149D01*
X137507281Y-83078148D01*
X137507274Y-83078140D01*
X137321860Y-82892726D01*
X137321851Y-82892718D01*
X137113803Y-82733075D01*
X136886700Y-82601958D01*
X136886690Y-82601953D01*
X136644428Y-82501605D01*
X136644421Y-82501603D01*
X136644419Y-82501602D01*
X136391116Y-82433730D01*
X136333339Y-82426123D01*
X136131127Y-82399500D01*
X136131120Y-82399500D01*
X135868880Y-82399500D01*
X135868872Y-82399500D01*
X135637772Y-82429926D01*
X135608884Y-82433730D01*
X135445834Y-82477419D01*
X135355581Y-82501602D01*
X135355571Y-82501605D01*
X135113309Y-82601953D01*
X135113299Y-82601958D01*
X134886196Y-82733075D01*
X134678148Y-82892718D01*
X134492718Y-83078148D01*
X134333075Y-83286196D01*
X134201958Y-83513299D01*
X134201953Y-83513309D01*
X134101605Y-83755571D01*
X134101602Y-83755581D01*
X134048331Y-83954394D01*
X134033730Y-84008885D01*
X133999500Y-84268872D01*
X121000500Y-84268872D01*
X121000500Y-80399983D01*
X147628563Y-80399983D01*
X147628563Y-81600001D01*
X147628564Y-81600018D01*
X147639063Y-81702796D01*
X147639064Y-81702799D01*
X147694248Y-81869331D01*
X147694250Y-81869336D01*
X147711439Y-81897203D01*
X147786351Y-82018656D01*
X147910407Y-82142712D01*
X147911215Y-82143210D01*
X147911653Y-82143697D01*
X147916074Y-82147193D01*
X147915476Y-82147948D01*
X147957941Y-82195156D01*
X147964639Y-82215251D01*
X147965243Y-82215068D01*
X147967012Y-82220901D01*
X147972774Y-82234809D01*
X147972775Y-82234815D01*
X147972776Y-82234815D01*
X148042427Y-82402970D01*
X148042434Y-82402983D01*
X148151923Y-82566844D01*
X148151926Y-82566848D01*
X148263181Y-82678103D01*
X148296666Y-82739426D01*
X148299500Y-82765784D01*
X148299500Y-83200001D01*
X148299501Y-83200019D01*
X148310000Y-83302796D01*
X148310001Y-83302799D01*
X148350814Y-83425962D01*
X148365186Y-83469334D01*
X148400114Y-83525962D01*
X148410102Y-83542154D01*
X148428563Y-83607251D01*
X148428563Y-94387769D01*
X148408878Y-94454808D01*
X148392245Y-94475450D01*
X148286350Y-94581345D01*
X148194250Y-94730663D01*
X148194249Y-94730666D01*
X148139064Y-94897203D01*
X148139064Y-94897204D01*
X148139063Y-94897204D01*
X148128563Y-94999983D01*
X148128563Y-96200001D01*
X148128564Y-96200018D01*
X148139063Y-96302796D01*
X148139064Y-96302799D01*
X148194248Y-96469331D01*
X148194250Y-96469336D01*
X148209978Y-96494835D01*
X148286351Y-96618656D01*
X148410407Y-96742712D01*
X148411215Y-96743210D01*
X148411653Y-96743697D01*
X148416074Y-96747193D01*
X148415476Y-96747948D01*
X148457941Y-96795156D01*
X148464637Y-96815245D01*
X148465241Y-96815062D01*
X148467010Y-96820893D01*
X148467011Y-96820896D01*
X148467012Y-96820899D01*
X148477594Y-96846446D01*
X148489101Y-96874227D01*
X148542429Y-97002974D01*
X148542434Y-97002983D01*
X148651923Y-97166844D01*
X148651926Y-97166848D01*
X148763181Y-97278103D01*
X148796666Y-97339426D01*
X148799500Y-97365784D01*
X148799500Y-97800001D01*
X148799501Y-97800019D01*
X148810000Y-97902796D01*
X148810001Y-97902799D01*
X148865185Y-98069331D01*
X148865187Y-98069336D01*
X148870622Y-98078148D01*
X148957288Y-98218656D01*
X149081344Y-98342712D01*
X149230666Y-98434814D01*
X149397203Y-98489999D01*
X149499991Y-98500500D01*
X150700008Y-98500499D01*
X150802797Y-98489999D01*
X150969334Y-98434814D01*
X151118656Y-98342712D01*
X151242712Y-98218656D01*
X151334814Y-98069334D01*
X151358102Y-97999054D01*
X151362110Y-97991050D01*
X151380060Y-97971772D01*
X151395055Y-97950116D01*
X151403495Y-97946606D01*
X151409725Y-97939917D01*
X151435249Y-97933404D01*
X151459571Y-97923292D01*
X151475834Y-97923048D01*
X151477425Y-97922643D01*
X151478523Y-97923008D01*
X151482719Y-97922946D01*
X151520525Y-97925921D01*
X152200000Y-97246446D01*
X152200000Y-97252661D01*
X152227259Y-97354394D01*
X152279920Y-97445606D01*
X152354394Y-97520080D01*
X152445606Y-97572741D01*
X152547339Y-97600000D01*
X152553553Y-97600000D01*
X151874076Y-98279474D01*
X151918646Y-98311857D01*
X151918648Y-98311858D01*
X151947824Y-98326723D01*
X151998621Y-98374697D01*
X152015417Y-98442517D01*
X152009464Y-98475522D01*
X152002946Y-98495582D01*
X151970937Y-98697682D01*
X151970937Y-98902317D01*
X152002946Y-99104417D01*
X152066181Y-99299031D01*
X152159078Y-99481350D01*
X152159084Y-99481359D01*
X152191460Y-99525921D01*
X152191461Y-99525922D01*
X152870937Y-98846446D01*
X152870937Y-98852661D01*
X152898196Y-98954394D01*
X152950857Y-99045606D01*
X153025331Y-99120080D01*
X153116543Y-99172741D01*
X153218276Y-99200000D01*
X153224490Y-99200000D01*
X152545013Y-99879474D01*
X152589587Y-99911859D01*
X152771905Y-100004755D01*
X152966519Y-100067990D01*
X153168620Y-100100000D01*
X153373254Y-100100000D01*
X153575354Y-100067990D01*
X153769968Y-100004755D01*
X153952286Y-99911859D01*
X153996858Y-99879474D01*
X153317384Y-99200000D01*
X153323598Y-99200000D01*
X153425331Y-99172741D01*
X153516543Y-99120080D01*
X153591017Y-99045606D01*
X153643678Y-98954394D01*
X153670937Y-98852661D01*
X153670937Y-98846447D01*
X154350411Y-99525921D01*
X154382796Y-99481349D01*
X154475692Y-99299031D01*
X154538927Y-99104417D01*
X154570937Y-98902317D01*
X154570937Y-98697682D01*
X154538927Y-98495582D01*
X154475692Y-98300968D01*
X154382796Y-98118650D01*
X154350411Y-98074077D01*
X154350411Y-98074076D01*
X153670937Y-98753551D01*
X153670937Y-98747339D01*
X153643678Y-98645606D01*
X153591017Y-98554394D01*
X153516543Y-98479920D01*
X153425331Y-98427259D01*
X153323598Y-98400000D01*
X153317383Y-98400000D01*
X153996859Y-97720524D01*
X153996858Y-97720523D01*
X153952296Y-97688147D01*
X153952277Y-97688135D01*
X153923109Y-97673273D01*
X153872313Y-97625299D01*
X153855518Y-97557478D01*
X153861474Y-97524468D01*
X153867990Y-97504413D01*
X153900000Y-97302317D01*
X153900000Y-97097682D01*
X153867990Y-96895582D01*
X153804755Y-96700968D01*
X153711859Y-96518650D01*
X153679474Y-96474077D01*
X153679474Y-96474076D01*
X153000000Y-97153553D01*
X153000000Y-97147339D01*
X152972741Y-97045606D01*
X152920080Y-96954394D01*
X152845606Y-96879920D01*
X152754394Y-96827259D01*
X152652661Y-96800000D01*
X152646446Y-96800000D01*
X153325922Y-96120524D01*
X153325921Y-96120523D01*
X153281359Y-96088147D01*
X153281350Y-96088141D01*
X153099031Y-95995244D01*
X152904417Y-95932009D01*
X152702317Y-95900000D01*
X152497683Y-95900000D01*
X152295582Y-95932009D01*
X152100968Y-95995244D01*
X151918644Y-96088143D01*
X151874077Y-96120523D01*
X151874077Y-96120524D01*
X152553554Y-96800000D01*
X152547339Y-96800000D01*
X152445606Y-96827259D01*
X152354394Y-96879920D01*
X152279920Y-96954394D01*
X152227259Y-97045606D01*
X152200000Y-97147339D01*
X152200000Y-97153553D01*
X151520524Y-96474077D01*
X151482719Y-96477053D01*
X151414341Y-96462689D01*
X151364584Y-96413638D01*
X151362110Y-96408949D01*
X151358101Y-96400942D01*
X151334814Y-96330666D01*
X151242712Y-96181344D01*
X151118656Y-96057288D01*
X150969334Y-95965186D01*
X150969026Y-95965084D01*
X150814558Y-95913898D01*
X150757113Y-95874125D01*
X150730290Y-95809609D01*
X150729562Y-95796192D01*
X150729562Y-94999998D01*
X150729561Y-94999981D01*
X150719062Y-94897203D01*
X150719061Y-94897200D01*
X150663877Y-94730666D01*
X150571775Y-94581344D01*
X150465881Y-94475450D01*
X150432397Y-94414127D01*
X150429563Y-94387769D01*
X150429563Y-83928551D01*
X150449248Y-83861512D01*
X150488464Y-83823013D01*
X150618656Y-83742712D01*
X150742712Y-83618656D01*
X150834814Y-83469334D01*
X150855284Y-83407559D01*
X150895055Y-83350116D01*
X150959571Y-83323292D01*
X150982719Y-83322946D01*
X151020525Y-83325921D01*
X151700000Y-82646446D01*
X151700000Y-82652661D01*
X151727259Y-82754394D01*
X151779920Y-82845606D01*
X151854394Y-82920080D01*
X151945606Y-82972741D01*
X152047339Y-83000000D01*
X152053552Y-83000000D01*
X151374076Y-83679474D01*
X151418646Y-83711857D01*
X151418648Y-83711858D01*
X151447824Y-83726723D01*
X151498621Y-83774697D01*
X151515417Y-83842517D01*
X151509464Y-83875522D01*
X151502946Y-83895582D01*
X151470937Y-84097682D01*
X151470937Y-84302317D01*
X151502946Y-84504417D01*
X151566181Y-84699031D01*
X151659078Y-84881350D01*
X151659084Y-84881359D01*
X151691460Y-84925921D01*
X151691461Y-84925922D01*
X152370937Y-84246446D01*
X152370937Y-84252661D01*
X152398196Y-84354394D01*
X152450857Y-84445606D01*
X152525331Y-84520080D01*
X152616543Y-84572741D01*
X152718276Y-84600000D01*
X152724490Y-84600000D01*
X152045013Y-85279474D01*
X152089587Y-85311859D01*
X152271905Y-85404755D01*
X152466519Y-85467990D01*
X152668620Y-85500000D01*
X152873254Y-85500000D01*
X153075354Y-85467990D01*
X153269968Y-85404755D01*
X153452286Y-85311859D01*
X153496858Y-85279474D01*
X152817384Y-84600000D01*
X152823598Y-84600000D01*
X152925331Y-84572741D01*
X153016543Y-84520080D01*
X153091017Y-84445606D01*
X153143678Y-84354394D01*
X153170937Y-84252661D01*
X153170937Y-84246447D01*
X153850411Y-84925921D01*
X153882796Y-84881349D01*
X153975692Y-84699031D01*
X154038927Y-84504417D01*
X154070937Y-84302317D01*
X154070937Y-84097682D01*
X154038927Y-83895582D01*
X153975692Y-83700968D01*
X153882796Y-83518650D01*
X153850411Y-83474077D01*
X153850411Y-83474076D01*
X153170937Y-84153551D01*
X153170937Y-84147339D01*
X153143678Y-84045606D01*
X153091017Y-83954394D01*
X153016543Y-83879920D01*
X152925331Y-83827259D01*
X152823598Y-83800000D01*
X152817383Y-83800000D01*
X153496859Y-83120524D01*
X153496858Y-83120523D01*
X153452296Y-83088147D01*
X153452277Y-83088135D01*
X153423109Y-83073273D01*
X153372313Y-83025299D01*
X153355518Y-82957478D01*
X153361474Y-82924468D01*
X153367990Y-82904413D01*
X153400000Y-82702317D01*
X153400000Y-82497682D01*
X153367990Y-82295582D01*
X153304755Y-82100968D01*
X153218047Y-81930795D01*
X153205151Y-81862126D01*
X153231427Y-81797385D01*
X153288534Y-81757128D01*
X153328532Y-81750500D01*
X157257770Y-81750500D01*
X157324809Y-81770185D01*
X157345451Y-81786819D01*
X158383181Y-82824548D01*
X158416666Y-82885871D01*
X158419500Y-82912229D01*
X158419500Y-84300017D01*
X158430000Y-84402796D01*
X158444186Y-84445606D01*
X158485186Y-84569335D01*
X158577288Y-84718656D01*
X158701344Y-84842712D01*
X158850665Y-84934814D01*
X159017202Y-84989999D01*
X159119990Y-85000500D01*
X159119995Y-85000500D01*
X160920005Y-85000500D01*
X160920010Y-85000500D01*
X161022798Y-84989999D01*
X161189335Y-84934814D01*
X161338656Y-84842712D01*
X161462712Y-84718656D01*
X161554814Y-84569335D01*
X161609999Y-84402798D01*
X161620500Y-84300010D01*
X161620500Y-82499990D01*
X161609999Y-82397202D01*
X161554814Y-82230665D01*
X161462712Y-82081344D01*
X161338656Y-81957288D01*
X161196409Y-81869549D01*
X161189337Y-81865187D01*
X161189332Y-81865185D01*
X161187863Y-81864698D01*
X161022798Y-81810001D01*
X161022796Y-81810000D01*
X160920017Y-81799500D01*
X160920010Y-81799500D01*
X159532229Y-81799500D01*
X159465190Y-81779815D01*
X159444548Y-81763181D01*
X158098418Y-80417049D01*
X158098416Y-80417047D01*
X158049092Y-80384091D01*
X158016355Y-80362218D01*
X157975495Y-80334916D01*
X157975494Y-80334915D01*
X157975492Y-80334914D01*
X157975490Y-80334913D01*
X157838917Y-80278343D01*
X157838907Y-80278340D01*
X157693920Y-80249500D01*
X157693918Y-80249500D01*
X150292796Y-80249500D01*
X150225757Y-80229815D01*
X150180002Y-80177011D01*
X150175091Y-80164506D01*
X150170118Y-80149500D01*
X150163877Y-80130666D01*
X150071775Y-79981344D01*
X149947719Y-79857288D01*
X149798397Y-79765186D01*
X149631860Y-79710001D01*
X149631858Y-79710000D01*
X149529073Y-79699500D01*
X148329061Y-79699500D01*
X148329044Y-79699501D01*
X148226266Y-79710000D01*
X148226263Y-79710001D01*
X148059731Y-79765185D01*
X148059726Y-79765187D01*
X147910405Y-79857289D01*
X147786352Y-79981342D01*
X147694250Y-80130663D01*
X147694248Y-80130668D01*
X147678892Y-80177011D01*
X147639064Y-80297203D01*
X147639064Y-80297204D01*
X147639063Y-80297204D01*
X147628563Y-80399983D01*
X121000500Y-80399983D01*
X121000500Y-78365782D01*
X121020185Y-78298743D01*
X121036819Y-78278101D01*
X123278102Y-76036819D01*
X123339425Y-76003334D01*
X123365783Y-76000500D01*
X150034218Y-76000500D01*
X150101257Y-76020185D01*
X150121898Y-76036818D01*
X153022860Y-78937781D01*
X153022861Y-78937782D01*
X153162218Y-79077139D01*
X153162219Y-79077140D01*
X153326079Y-79186628D01*
X153326092Y-79186635D01*
X153454833Y-79239961D01*
X153497744Y-79257735D01*
X153508164Y-79262051D01*
X153604812Y-79281275D01*
X153653135Y-79290887D01*
X153701458Y-79300500D01*
X153701459Y-79300500D01*
X153701460Y-79300500D01*
X153898540Y-79300500D01*
X158339699Y-79300500D01*
X158406738Y-79320185D01*
X158452493Y-79372989D01*
X158457401Y-79385487D01*
X158485186Y-79469335D01*
X158577288Y-79618656D01*
X158701344Y-79742712D01*
X158850665Y-79834814D01*
X159017202Y-79889999D01*
X159119990Y-79900500D01*
X160507770Y-79900500D01*
X160574809Y-79920185D01*
X160595451Y-79936819D01*
X161968139Y-81309507D01*
X161983560Y-81328297D01*
X162017048Y-81378415D01*
X162017051Y-81378419D01*
X162121580Y-81482948D01*
X162121584Y-81482951D01*
X162244498Y-81565080D01*
X162244511Y-81565087D01*
X162328802Y-81600001D01*
X162381087Y-81621658D01*
X162381091Y-81621658D01*
X162381092Y-81621659D01*
X162526079Y-81650500D01*
X162526082Y-81650500D01*
X167317770Y-81650500D01*
X167384809Y-81670185D01*
X167405451Y-81686819D01*
X168595817Y-82877185D01*
X168629302Y-82938508D01*
X168626068Y-83003180D01*
X168618910Y-83025210D01*
X168618910Y-83025211D01*
X168579500Y-83274038D01*
X168579500Y-83525962D01*
X168594182Y-83618657D01*
X168618910Y-83774785D01*
X168696760Y-84014383D01*
X168811132Y-84238848D01*
X168959201Y-84442649D01*
X168959205Y-84442654D01*
X169137345Y-84620794D01*
X169137350Y-84620798D01*
X169315117Y-84749952D01*
X169341155Y-84768870D01*
X169470574Y-84834812D01*
X169565616Y-84883239D01*
X169565618Y-84883239D01*
X169565621Y-84883241D01*
X169805215Y-84961090D01*
X170054038Y-85000500D01*
X170054039Y-85000500D01*
X170305961Y-85000500D01*
X170305962Y-85000500D01*
X170554785Y-84961090D01*
X170794379Y-84883241D01*
X171018845Y-84768870D01*
X171222656Y-84620793D01*
X171400793Y-84442656D01*
X171548870Y-84238845D01*
X171663241Y-84014379D01*
X171741090Y-83774785D01*
X171780500Y-83525962D01*
X171780500Y-83274038D01*
X171741090Y-83025215D01*
X171663241Y-82785621D01*
X171663239Y-82785618D01*
X171663239Y-82785616D01*
X171614059Y-82689095D01*
X171548870Y-82561155D01*
X171512361Y-82510904D01*
X171400798Y-82357350D01*
X171400794Y-82357345D01*
X171222654Y-82179205D01*
X171222649Y-82179201D01*
X171018848Y-82031132D01*
X171018847Y-82031131D01*
X171018845Y-82031130D01*
X170948747Y-81995413D01*
X170794383Y-81916760D01*
X170554785Y-81838910D01*
X170305962Y-81799500D01*
X170054038Y-81799500D01*
X170004273Y-81807382D01*
X169805211Y-81838910D01*
X169805210Y-81838910D01*
X169783180Y-81846068D01*
X169713339Y-81848061D01*
X169657185Y-81815817D01*
X168158421Y-80317052D01*
X168158414Y-80317046D01*
X168084729Y-80267812D01*
X168084729Y-80267813D01*
X168035491Y-80234913D01*
X167898917Y-80178343D01*
X167898907Y-80178340D01*
X167753920Y-80149500D01*
X167753918Y-80149500D01*
X162982230Y-80149500D01*
X162915191Y-80129815D01*
X162894549Y-80113181D01*
X161656819Y-78875451D01*
X161623334Y-78814128D01*
X161620500Y-78787770D01*
X161620500Y-78174071D01*
X168580000Y-78174071D01*
X168580000Y-78425928D01*
X168619397Y-78674669D01*
X168697219Y-78914184D01*
X168811557Y-79138583D01*
X168885748Y-79240697D01*
X168885748Y-79240698D01*
X169656212Y-78470234D01*
X169667482Y-78512292D01*
X169739890Y-78637708D01*
X169842292Y-78740110D01*
X169967708Y-78812518D01*
X170009765Y-78823787D01*
X169239300Y-79594250D01*
X169341416Y-79668442D01*
X169565815Y-79782780D01*
X169805330Y-79860602D01*
X170054072Y-79900000D01*
X170305928Y-79900000D01*
X170554669Y-79860602D01*
X170794184Y-79782780D01*
X171018575Y-79668446D01*
X171018581Y-79668442D01*
X171120697Y-79594250D01*
X171120698Y-79594250D01*
X170350234Y-78823787D01*
X170392292Y-78812518D01*
X170517708Y-78740110D01*
X170620110Y-78637708D01*
X170692518Y-78512292D01*
X170703787Y-78470234D01*
X171474250Y-79240698D01*
X171474250Y-79240697D01*
X171548442Y-79138581D01*
X171548446Y-79138575D01*
X171662780Y-78914184D01*
X171740602Y-78674669D01*
X171780000Y-78425928D01*
X171780000Y-78174071D01*
X171740602Y-77925330D01*
X171662780Y-77685815D01*
X171548442Y-77461416D01*
X171503807Y-77399982D01*
X173119500Y-77399982D01*
X173119500Y-79200017D01*
X173130000Y-79302796D01*
X173130001Y-79302798D01*
X173185186Y-79469335D01*
X173277288Y-79618656D01*
X173401344Y-79742712D01*
X173550665Y-79834814D01*
X173717202Y-79889999D01*
X173819990Y-79900500D01*
X173845500Y-79900500D01*
X173912539Y-79920185D01*
X173958294Y-79972989D01*
X173969500Y-80024500D01*
X173969500Y-81876415D01*
X173949815Y-81943454D01*
X173918386Y-81976733D01*
X173777342Y-82079208D01*
X173599205Y-82257345D01*
X173599201Y-82257350D01*
X173451132Y-82461151D01*
X173336760Y-82685616D01*
X173258910Y-82925214D01*
X173243071Y-83025215D01*
X173219500Y-83174038D01*
X173219500Y-83425962D01*
X173235339Y-83525962D01*
X173258910Y-83674785D01*
X173336760Y-83914383D01*
X173403622Y-84045606D01*
X173430156Y-84097682D01*
X173451132Y-84138848D01*
X173599201Y-84342649D01*
X173599205Y-84342654D01*
X173777345Y-84520794D01*
X173777350Y-84520798D01*
X173914984Y-84620794D01*
X173981155Y-84668870D01*
X174078866Y-84718656D01*
X174205616Y-84783239D01*
X174205618Y-84783239D01*
X174205621Y-84783241D01*
X174445215Y-84861090D01*
X174694038Y-84900500D01*
X174694039Y-84900500D01*
X174945961Y-84900500D01*
X174945962Y-84900500D01*
X175194785Y-84861090D01*
X175434379Y-84783241D01*
X175658845Y-84668870D01*
X175862656Y-84520793D01*
X176040793Y-84342656D01*
X176188870Y-84138845D01*
X176303241Y-83914379D01*
X176381090Y-83674785D01*
X176420500Y-83425962D01*
X176420500Y-83174038D01*
X176381090Y-82925215D01*
X176303241Y-82685621D01*
X176303239Y-82685618D01*
X176303239Y-82685616D01*
X176242723Y-82566848D01*
X176188870Y-82461155D01*
X176142406Y-82397202D01*
X176040798Y-82257350D01*
X176040794Y-82257345D01*
X175862654Y-82079205D01*
X175862649Y-82079201D01*
X175658846Y-81931130D01*
X175538204Y-81869659D01*
X175487409Y-81821685D01*
X175470500Y-81759175D01*
X175470500Y-80024500D01*
X175490185Y-79957461D01*
X175542989Y-79911706D01*
X175594500Y-79900500D01*
X175620005Y-79900500D01*
X175620010Y-79900500D01*
X175722798Y-79889999D01*
X175889335Y-79834814D01*
X176038656Y-79742712D01*
X176162712Y-79618656D01*
X176254814Y-79469335D01*
X176309999Y-79302798D01*
X176320500Y-79200010D01*
X176320500Y-78174071D01*
X183280000Y-78174071D01*
X183280000Y-78425928D01*
X183319397Y-78674669D01*
X183397219Y-78914184D01*
X183511557Y-79138583D01*
X183585748Y-79240697D01*
X183585748Y-79240698D01*
X184356212Y-78470234D01*
X184367482Y-78512292D01*
X184439890Y-78637708D01*
X184542292Y-78740110D01*
X184667708Y-78812518D01*
X184709765Y-78823787D01*
X183939300Y-79594250D01*
X184041416Y-79668442D01*
X184265815Y-79782780D01*
X184505330Y-79860602D01*
X184754072Y-79900000D01*
X185005928Y-79900000D01*
X185254669Y-79860602D01*
X185494184Y-79782780D01*
X185718575Y-79668446D01*
X185718581Y-79668442D01*
X185820697Y-79594250D01*
X185820698Y-79594250D01*
X185050234Y-78823787D01*
X185092292Y-78812518D01*
X185217708Y-78740110D01*
X185320110Y-78637708D01*
X185392518Y-78512292D01*
X185403787Y-78470234D01*
X186174250Y-79240698D01*
X186174250Y-79240697D01*
X186248442Y-79138581D01*
X186248446Y-79138575D01*
X186362780Y-78914184D01*
X186440602Y-78674669D01*
X186480000Y-78425928D01*
X186480000Y-78174071D01*
X186440602Y-77925330D01*
X186362780Y-77685815D01*
X186248442Y-77461416D01*
X186174250Y-77359301D01*
X186174250Y-77359300D01*
X185403787Y-78129764D01*
X185392518Y-78087708D01*
X185320110Y-77962292D01*
X185217708Y-77859890D01*
X185092292Y-77787482D01*
X185050232Y-77776212D01*
X185820698Y-77005748D01*
X185718583Y-76931557D01*
X185494184Y-76817219D01*
X185254669Y-76739397D01*
X185005928Y-76700000D01*
X184754072Y-76700000D01*
X184505330Y-76739397D01*
X184265815Y-76817219D01*
X184041413Y-76931559D01*
X183939301Y-77005747D01*
X183939300Y-77005748D01*
X184709765Y-77776212D01*
X184667708Y-77787482D01*
X184542292Y-77859890D01*
X184439890Y-77962292D01*
X184367482Y-78087708D01*
X184356212Y-78129765D01*
X183585748Y-77359300D01*
X183585747Y-77359301D01*
X183511559Y-77461413D01*
X183397219Y-77685815D01*
X183319397Y-77925330D01*
X183280000Y-78174071D01*
X176320500Y-78174071D01*
X176320500Y-77399990D01*
X176309999Y-77297202D01*
X176254814Y-77130665D01*
X176162712Y-76981344D01*
X176038656Y-76857288D01*
X175889335Y-76765186D01*
X175722798Y-76710001D01*
X175722796Y-76710000D01*
X175620017Y-76699500D01*
X175620010Y-76699500D01*
X173819990Y-76699500D01*
X173819982Y-76699500D01*
X173717203Y-76710000D01*
X173717202Y-76710001D01*
X173634669Y-76737349D01*
X173550667Y-76765185D01*
X173550662Y-76765187D01*
X173401342Y-76857289D01*
X173277289Y-76981342D01*
X173185187Y-77130662D01*
X173185186Y-77130665D01*
X173130001Y-77297202D01*
X173130001Y-77297203D01*
X173130000Y-77297203D01*
X173119500Y-77399982D01*
X171503807Y-77399982D01*
X171474250Y-77359301D01*
X171474250Y-77359300D01*
X170703787Y-78129764D01*
X170692518Y-78087708D01*
X170620110Y-77962292D01*
X170517708Y-77859890D01*
X170392292Y-77787482D01*
X170350232Y-77776212D01*
X171120698Y-77005748D01*
X171018583Y-76931557D01*
X170794184Y-76817219D01*
X170554669Y-76739397D01*
X170305928Y-76700000D01*
X170054072Y-76700000D01*
X169805330Y-76739397D01*
X169565815Y-76817219D01*
X169341413Y-76931559D01*
X169239301Y-77005747D01*
X169239300Y-77005748D01*
X170009765Y-77776212D01*
X169967708Y-77787482D01*
X169842292Y-77859890D01*
X169739890Y-77962292D01*
X169667482Y-78087708D01*
X169656212Y-78129765D01*
X168885748Y-77359300D01*
X168885747Y-77359301D01*
X168811559Y-77461413D01*
X168697219Y-77685815D01*
X168619397Y-77925330D01*
X168580000Y-78174071D01*
X161620500Y-78174071D01*
X161620500Y-77399995D01*
X161620499Y-77399982D01*
X161609999Y-77297203D01*
X161609999Y-77297202D01*
X161554814Y-77130665D01*
X161462712Y-76981344D01*
X161338656Y-76857288D01*
X161189335Y-76765186D01*
X161022798Y-76710001D01*
X161022796Y-76710000D01*
X160920017Y-76699500D01*
X160920010Y-76699500D01*
X159119990Y-76699500D01*
X159119982Y-76699500D01*
X159017203Y-76710000D01*
X159017202Y-76710001D01*
X158934669Y-76737349D01*
X158850667Y-76765185D01*
X158850662Y-76765187D01*
X158701342Y-76857289D01*
X158577289Y-76981342D01*
X158485187Y-77130662D01*
X158485186Y-77130665D01*
X158457403Y-77214505D01*
X158417632Y-77271949D01*
X158353117Y-77298772D01*
X158339699Y-77299500D01*
X154265783Y-77299500D01*
X154198744Y-77279815D01*
X154178102Y-77263181D01*
X151627101Y-74712181D01*
X151593616Y-74650858D01*
X151598600Y-74581166D01*
X151640472Y-74525233D01*
X151705936Y-74500816D01*
X151714782Y-74500500D01*
X187475500Y-74500500D01*
X187542539Y-74520185D01*
X187588294Y-74572989D01*
X187599500Y-74624500D01*
X187599500Y-129275500D01*
X187579815Y-129342539D01*
X187527011Y-129388294D01*
X187475500Y-129399500D01*
X135444782Y-129399500D01*
X135377743Y-129379815D01*
X135331988Y-129327011D01*
X135322044Y-129257853D01*
X135351069Y-129194297D01*
X135357101Y-129187819D01*
X139846378Y-124698541D01*
X141361889Y-123183029D01*
X141423210Y-123149546D01*
X141481661Y-123150937D01*
X141538884Y-123166270D01*
X141798880Y-123200500D01*
X141798887Y-123200500D01*
X142061113Y-123200500D01*
X142061120Y-123200500D01*
X142321116Y-123166270D01*
X142574419Y-123098398D01*
X142816697Y-122998043D01*
X143043803Y-122866924D01*
X143251851Y-122707282D01*
X143251855Y-122707277D01*
X143251860Y-122707274D01*
X143437274Y-122521860D01*
X143437277Y-122521855D01*
X143437282Y-122521851D01*
X143596924Y-122313803D01*
X143728043Y-122086697D01*
X143828398Y-121844419D01*
X143896270Y-121591116D01*
X143930500Y-121331120D01*
X143930500Y-121068880D01*
X143896270Y-120808884D01*
X143828398Y-120555581D01*
X143805382Y-120500016D01*
X143728046Y-120313309D01*
X143728041Y-120313299D01*
X143596924Y-120086196D01*
X143437281Y-119878148D01*
X143437274Y-119878140D01*
X143251860Y-119692726D01*
X143251851Y-119692718D01*
X143043803Y-119533075D01*
X142816700Y-119401958D01*
X142816690Y-119401953D01*
X142574428Y-119301605D01*
X142574421Y-119301603D01*
X142574419Y-119301602D01*
X142321116Y-119233730D01*
X142263339Y-119226123D01*
X142061127Y-119199500D01*
X142061120Y-119199500D01*
X141798880Y-119199500D01*
X141798872Y-119199500D01*
X141567772Y-119229926D01*
X141538884Y-119233730D01*
X141358685Y-119282014D01*
X141285581Y-119301602D01*
X141285571Y-119301605D01*
X141043309Y-119401953D01*
X141043299Y-119401958D01*
X140816196Y-119533075D01*
X140608148Y-119692718D01*
X140422718Y-119878148D01*
X140263075Y-120086196D01*
X140131958Y-120313299D01*
X140131953Y-120313309D01*
X140031605Y-120555571D01*
X140031602Y-120555581D01*
X139974328Y-120769334D01*
X139963730Y-120808885D01*
X139929500Y-121068872D01*
X139929500Y-121331127D01*
X139958009Y-121547662D01*
X139963730Y-121591116D01*
X139963732Y-121591122D01*
X139979062Y-121648337D01*
X139977399Y-121718187D01*
X139946968Y-121768110D01*
X133951899Y-127763181D01*
X133890576Y-127796666D01*
X133864218Y-127799500D01*
X111365782Y-127799500D01*
X111298743Y-127779815D01*
X111278101Y-127763181D01*
X107736819Y-124221899D01*
X107703334Y-124160576D01*
X107700500Y-124134218D01*
X107700500Y-104268872D01*
X113999500Y-104268872D01*
X113999500Y-104531127D01*
X114026123Y-104733339D01*
X114033730Y-104791116D01*
X114101602Y-105044418D01*
X114101605Y-105044428D01*
X114201953Y-105286690D01*
X114201958Y-105286700D01*
X114333075Y-105513803D01*
X114492718Y-105721851D01*
X114492726Y-105721860D01*
X114678140Y-105907274D01*
X114678148Y-105907281D01*
X114678149Y-105907282D01*
X114722203Y-105941086D01*
X114886196Y-106066924D01*
X115113299Y-106198041D01*
X115113309Y-106198046D01*
X115282266Y-106268030D01*
X115355581Y-106298398D01*
X115457217Y-106325631D01*
X115512804Y-106357724D01*
X129786968Y-120631888D01*
X129820453Y-120693211D01*
X129819062Y-120751660D01*
X129803733Y-120808872D01*
X129803730Y-120808884D01*
X129803730Y-120808885D01*
X129803729Y-120808892D01*
X129769500Y-121068872D01*
X129769500Y-121331127D01*
X129796123Y-121533339D01*
X129803730Y-121591116D01*
X129871602Y-121844418D01*
X129871605Y-121844428D01*
X129971953Y-122086690D01*
X129971958Y-122086700D01*
X130103075Y-122313803D01*
X130262718Y-122521851D01*
X130262726Y-122521860D01*
X130448140Y-122707274D01*
X130448148Y-122707281D01*
X130656196Y-122866924D01*
X130883299Y-122998041D01*
X130883309Y-122998046D01*
X131125571Y-123098394D01*
X131125581Y-123098398D01*
X131378884Y-123166270D01*
X131638880Y-123200500D01*
X131638887Y-123200500D01*
X131901113Y-123200500D01*
X131901120Y-123200500D01*
X132161116Y-123166270D01*
X132414419Y-123098398D01*
X132656697Y-122998043D01*
X132883803Y-122866924D01*
X133091851Y-122707282D01*
X133091855Y-122707277D01*
X133091860Y-122707274D01*
X133277274Y-122521860D01*
X133277277Y-122521855D01*
X133277282Y-122521851D01*
X133436924Y-122313803D01*
X133568043Y-122086697D01*
X133668398Y-121844419D01*
X133736270Y-121591116D01*
X133770500Y-121331120D01*
X133770500Y-121068880D01*
X133736270Y-120808884D01*
X133668398Y-120555581D01*
X133645382Y-120500016D01*
X133568046Y-120313309D01*
X133568041Y-120313299D01*
X133436924Y-120086196D01*
X133277281Y-119878148D01*
X133277274Y-119878140D01*
X133091860Y-119692726D01*
X133091851Y-119692718D01*
X132883803Y-119533075D01*
X132656700Y-119401958D01*
X132656690Y-119401953D01*
X132414428Y-119301605D01*
X132414421Y-119301603D01*
X132414419Y-119301602D01*
X132161116Y-119233730D01*
X132103339Y-119226123D01*
X131901127Y-119199500D01*
X131901120Y-119199500D01*
X131638880Y-119199500D01*
X131638872Y-119199500D01*
X131391402Y-119232081D01*
X131378884Y-119233730D01*
X131378875Y-119233732D01*
X131378872Y-119233733D01*
X131321660Y-119249062D01*
X131251810Y-119247398D01*
X131201888Y-119216968D01*
X130284903Y-118299983D01*
X153899500Y-118299983D01*
X153899500Y-120500001D01*
X153899501Y-120500018D01*
X153910000Y-120602796D01*
X153910001Y-120602799D01*
X153939961Y-120693211D01*
X153965186Y-120769334D01*
X154057288Y-120918656D01*
X154181344Y-121042712D01*
X154330666Y-121134814D01*
X154497203Y-121189999D01*
X154599991Y-121200500D01*
X156800008Y-121200499D01*
X156902797Y-121189999D01*
X157069334Y-121134814D01*
X157218656Y-121042712D01*
X157342712Y-120918656D01*
X157434814Y-120769334D01*
X157489999Y-120602797D01*
X157500500Y-120500009D01*
X157500499Y-119282014D01*
X158900000Y-119282014D01*
X158900000Y-119517985D01*
X158930799Y-119751914D01*
X158991870Y-119979837D01*
X159082160Y-120197819D01*
X159082165Y-120197828D01*
X159200144Y-120402171D01*
X159200145Y-120402172D01*
X159262721Y-120483723D01*
X160098958Y-119647487D01*
X160123978Y-119707890D01*
X160195112Y-119814351D01*
X160285649Y-119904888D01*
X160392110Y-119976022D01*
X160452511Y-120001041D01*
X159616275Y-120837277D01*
X159697827Y-120899854D01*
X159697828Y-120899855D01*
X159902171Y-121017834D01*
X159902180Y-121017839D01*
X160120163Y-121108129D01*
X160120161Y-121108129D01*
X160348085Y-121169200D01*
X160582014Y-121199999D01*
X160582029Y-121200000D01*
X160817971Y-121200000D01*
X160817985Y-121199999D01*
X161051914Y-121169200D01*
X161279837Y-121108129D01*
X161497819Y-121017839D01*
X161497828Y-121017834D01*
X161702181Y-120899850D01*
X161783723Y-120837279D01*
X161783723Y-120837276D01*
X160947487Y-120001041D01*
X161007890Y-119976022D01*
X161114351Y-119904888D01*
X161204888Y-119814351D01*
X161276022Y-119707890D01*
X161301041Y-119647488D01*
X162137276Y-120483723D01*
X162137279Y-120483723D01*
X162199850Y-120402181D01*
X162317834Y-120197828D01*
X162317839Y-120197819D01*
X162408129Y-119979837D01*
X162469200Y-119751914D01*
X162499999Y-119517985D01*
X162500000Y-119517971D01*
X162500000Y-119282028D01*
X162499999Y-119282014D01*
X162469200Y-119048085D01*
X162408129Y-118820162D01*
X162317839Y-118602180D01*
X162317834Y-118602171D01*
X162199855Y-118397828D01*
X162199854Y-118397827D01*
X162137277Y-118316275D01*
X161301041Y-119152511D01*
X161276022Y-119092110D01*
X161204888Y-118985649D01*
X161114351Y-118895112D01*
X161007890Y-118823978D01*
X160947488Y-118798958D01*
X161783723Y-117962721D01*
X161702172Y-117900145D01*
X161702171Y-117900144D01*
X161497828Y-117782165D01*
X161497819Y-117782160D01*
X161279836Y-117691870D01*
X161279838Y-117691870D01*
X161051914Y-117630799D01*
X160817985Y-117600000D01*
X160582014Y-117600000D01*
X160348085Y-117630799D01*
X160120162Y-117691870D01*
X159902180Y-117782160D01*
X159902171Y-117782165D01*
X159697828Y-117900144D01*
X159697818Y-117900150D01*
X159616275Y-117962720D01*
X159616275Y-117962721D01*
X160452512Y-118798958D01*
X160392110Y-118823978D01*
X160285649Y-118895112D01*
X160195112Y-118985649D01*
X160123978Y-119092110D01*
X160098958Y-119152511D01*
X159262721Y-118316275D01*
X159262720Y-118316275D01*
X159200150Y-118397818D01*
X159200144Y-118397828D01*
X159082165Y-118602171D01*
X159082160Y-118602180D01*
X158991870Y-118820162D01*
X158930799Y-119048085D01*
X158900000Y-119282014D01*
X157500499Y-119282014D01*
X157500499Y-118299992D01*
X157489999Y-118197203D01*
X157434814Y-118030666D01*
X157342712Y-117881344D01*
X157218656Y-117757288D01*
X157218655Y-117757287D01*
X157132824Y-117704347D01*
X157086099Y-117652399D01*
X157074876Y-117583437D01*
X157102719Y-117519355D01*
X157110228Y-117511138D01*
X164784547Y-109836818D01*
X164845870Y-109803334D01*
X164872228Y-109800500D01*
X165054486Y-109800500D01*
X165241118Y-109770940D01*
X165420832Y-109712547D01*
X165589199Y-109626760D01*
X165742073Y-109515690D01*
X165875690Y-109382073D01*
X165986760Y-109229199D01*
X166072547Y-109060832D01*
X166130940Y-108881118D01*
X166144134Y-108797815D01*
X166160500Y-108694486D01*
X166160500Y-108505513D01*
X168839500Y-108505513D01*
X168839500Y-108694486D01*
X168869059Y-108881118D01*
X168927454Y-109060836D01*
X169013240Y-109229199D01*
X169124310Y-109382073D01*
X169257927Y-109515690D01*
X169410801Y-109626760D01*
X169490347Y-109667290D01*
X169579163Y-109712545D01*
X169579165Y-109712545D01*
X169579168Y-109712547D01*
X169675497Y-109743846D01*
X169758881Y-109770940D01*
X169945514Y-109800500D01*
X169945519Y-109800500D01*
X170134486Y-109800500D01*
X170321118Y-109770940D01*
X170500832Y-109712547D01*
X170669199Y-109626760D01*
X170822073Y-109515690D01*
X170955690Y-109382073D01*
X171066760Y-109229199D01*
X171152547Y-109060832D01*
X171210940Y-108881118D01*
X171224134Y-108797815D01*
X171240500Y-108694486D01*
X171240500Y-108505513D01*
X171210940Y-108318881D01*
X171152545Y-108139163D01*
X171066759Y-107970800D01*
X171035628Y-107927952D01*
X170955690Y-107817927D01*
X170826818Y-107689055D01*
X170793334Y-107627732D01*
X170790500Y-107601374D01*
X170790500Y-106522230D01*
X170810185Y-106455191D01*
X170826819Y-106434549D01*
X172974549Y-104286819D01*
X173035872Y-104253334D01*
X173062230Y-104250500D01*
X175837770Y-104250500D01*
X175904809Y-104270185D01*
X175925451Y-104286819D01*
X177906662Y-106268030D01*
X177940147Y-106329353D01*
X177935163Y-106399045D01*
X177893291Y-106454978D01*
X177891876Y-106456022D01*
X177787635Y-106531758D01*
X177787633Y-106531760D01*
X177787631Y-106531761D01*
X177737075Y-106582317D01*
X177675752Y-106615801D01*
X177606060Y-106610816D01*
X177550127Y-106568945D01*
X177533213Y-106537968D01*
X177503354Y-106457913D01*
X177503350Y-106457906D01*
X177417190Y-106342812D01*
X177417187Y-106342809D01*
X177302093Y-106256649D01*
X177302086Y-106256645D01*
X177167379Y-106206403D01*
X177167372Y-106206401D01*
X177107844Y-106200000D01*
X176410000Y-106200000D01*
X176410000Y-107224722D01*
X176333694Y-107180667D01*
X176219244Y-107150000D01*
X176100756Y-107150000D01*
X175986306Y-107180667D01*
X175910000Y-107224722D01*
X175910000Y-106200000D01*
X175212155Y-106200000D01*
X175152627Y-106206401D01*
X175152620Y-106206403D01*
X175017913Y-106256645D01*
X175017906Y-106256649D01*
X174902812Y-106342809D01*
X174902809Y-106342812D01*
X174816649Y-106457906D01*
X174816645Y-106457913D01*
X174766403Y-106592620D01*
X174766401Y-106592627D01*
X174760000Y-106652155D01*
X174760000Y-107350000D01*
X175784722Y-107350000D01*
X175740667Y-107426306D01*
X175710000Y-107540756D01*
X175710000Y-107659244D01*
X175740667Y-107773694D01*
X175784722Y-107850000D01*
X174760000Y-107850000D01*
X174760000Y-108547844D01*
X174766401Y-108607372D01*
X174766403Y-108607379D01*
X174816645Y-108742086D01*
X174816649Y-108742093D01*
X174902809Y-108857187D01*
X174902812Y-108857190D01*
X175017906Y-108943350D01*
X175017913Y-108943354D01*
X175152620Y-108993596D01*
X175152627Y-108993598D01*
X175212155Y-108999999D01*
X175212172Y-109000000D01*
X175910000Y-109000000D01*
X175910000Y-107975277D01*
X175986306Y-108019333D01*
X176100756Y-108050000D01*
X176219244Y-108050000D01*
X176333694Y-108019333D01*
X176410000Y-107975277D01*
X176410000Y-109000000D01*
X177107828Y-109000000D01*
X177107844Y-108999999D01*
X177167372Y-108993598D01*
X177167379Y-108993596D01*
X177302086Y-108943354D01*
X177302093Y-108943350D01*
X177417187Y-108857190D01*
X177417190Y-108857187D01*
X177503350Y-108742093D01*
X177503354Y-108742086D01*
X177533213Y-108662031D01*
X177575084Y-108606097D01*
X177640548Y-108581680D01*
X177708821Y-108596531D01*
X177737076Y-108617683D01*
X177787636Y-108668243D01*
X177787641Y-108668247D01*
X177935195Y-108775450D01*
X177965978Y-108797815D01*
X178082501Y-108857187D01*
X178162393Y-108897895D01*
X178162396Y-108897896D01*
X178267221Y-108931955D01*
X178372049Y-108966015D01*
X178589778Y-109000500D01*
X178589779Y-109000500D01*
X178810221Y-109000500D01*
X178810222Y-109000500D01*
X179027951Y-108966015D01*
X179237606Y-108897895D01*
X179434022Y-108797815D01*
X179612365Y-108668242D01*
X179768242Y-108512365D01*
X179897815Y-108334022D01*
X179997895Y-108137606D01*
X180066015Y-107927951D01*
X180100500Y-107710222D01*
X180100500Y-107489778D01*
X180066015Y-107272049D01*
X180031955Y-107167221D01*
X179997896Y-107062396D01*
X179997895Y-107062393D01*
X179963237Y-106994375D01*
X179897815Y-106865978D01*
X179881260Y-106843192D01*
X179768247Y-106687641D01*
X179768243Y-106687636D01*
X179612367Y-106531760D01*
X179612365Y-106531758D01*
X179501613Y-106451291D01*
X179458949Y-106395963D01*
X179450500Y-106350975D01*
X179450500Y-105926079D01*
X179421659Y-105781092D01*
X179421658Y-105781091D01*
X179421658Y-105781087D01*
X179410964Y-105755269D01*
X179365086Y-105644509D01*
X179365085Y-105644507D01*
X179332186Y-105595270D01*
X179332185Y-105595268D01*
X179282956Y-105521589D01*
X179282952Y-105521584D01*
X176678421Y-102917052D01*
X176678414Y-102917046D01*
X176604729Y-102867812D01*
X176604729Y-102867813D01*
X176555491Y-102834913D01*
X176418917Y-102778343D01*
X176418907Y-102778340D01*
X176273920Y-102749500D01*
X176273918Y-102749500D01*
X172626082Y-102749500D01*
X172626080Y-102749500D01*
X172481092Y-102778340D01*
X172481086Y-102778342D01*
X172344508Y-102834914D01*
X172344496Y-102834921D01*
X172295269Y-102867813D01*
X172221588Y-102917044D01*
X172221580Y-102917050D01*
X169457050Y-105681580D01*
X169457044Y-105681588D01*
X169407812Y-105755268D01*
X169407813Y-105755269D01*
X169374921Y-105804496D01*
X169374914Y-105804508D01*
X169318342Y-105941086D01*
X169318340Y-105941092D01*
X169289500Y-106086079D01*
X169289500Y-107601374D01*
X169269815Y-107668413D01*
X169253182Y-107689055D01*
X169124309Y-107817928D01*
X169013240Y-107970800D01*
X168927454Y-108139163D01*
X168869059Y-108318881D01*
X168839500Y-108505513D01*
X166160500Y-108505513D01*
X166130940Y-108318881D01*
X166072545Y-108139163D01*
X165986759Y-107970800D01*
X165978978Y-107960090D01*
X165875690Y-107817927D01*
X165742073Y-107684310D01*
X165589199Y-107573240D01*
X165589198Y-107573239D01*
X165589196Y-107573238D01*
X165518204Y-107537065D01*
X165467409Y-107489090D01*
X165450500Y-107426581D01*
X165450500Y-100163732D01*
X165470185Y-100096693D01*
X165522989Y-100050938D01*
X165535495Y-100046026D01*
X165569334Y-100034814D01*
X165718656Y-99942712D01*
X165842712Y-99818656D01*
X165934814Y-99669334D01*
X165958102Y-99599054D01*
X165962110Y-99591050D01*
X165980060Y-99571772D01*
X165995055Y-99550116D01*
X166003495Y-99546606D01*
X166009725Y-99539917D01*
X166035249Y-99533404D01*
X166059571Y-99523292D01*
X166075834Y-99523048D01*
X166077425Y-99522643D01*
X166078523Y-99523008D01*
X166082719Y-99522946D01*
X166120525Y-99525921D01*
X166800000Y-98846446D01*
X166800000Y-98852661D01*
X166827259Y-98954394D01*
X166879920Y-99045606D01*
X166954394Y-99120080D01*
X167045606Y-99172741D01*
X167147339Y-99200000D01*
X167153553Y-99200000D01*
X166474076Y-99879474D01*
X166518646Y-99911857D01*
X166518648Y-99911858D01*
X166547824Y-99926723D01*
X166598621Y-99974697D01*
X166615417Y-100042517D01*
X166609464Y-100075522D01*
X166602946Y-100095582D01*
X166570937Y-100297682D01*
X166570937Y-100502317D01*
X166602946Y-100704417D01*
X166666181Y-100899031D01*
X166759078Y-101081350D01*
X166759084Y-101081359D01*
X166791460Y-101125921D01*
X166791461Y-101125922D01*
X167470937Y-100446446D01*
X167470937Y-100452661D01*
X167498196Y-100554394D01*
X167550857Y-100645606D01*
X167625331Y-100720080D01*
X167716543Y-100772741D01*
X167818276Y-100800000D01*
X167824490Y-100800000D01*
X167145013Y-101479474D01*
X167189587Y-101511859D01*
X167371905Y-101604755D01*
X167566519Y-101667990D01*
X167768620Y-101700000D01*
X167973254Y-101700000D01*
X168175354Y-101667990D01*
X168369968Y-101604755D01*
X168552286Y-101511859D01*
X168596858Y-101479474D01*
X167917384Y-100800000D01*
X167923598Y-100800000D01*
X168025331Y-100772741D01*
X168116543Y-100720080D01*
X168191017Y-100645606D01*
X168243678Y-100554394D01*
X168270937Y-100452661D01*
X168270937Y-100446448D01*
X168950411Y-101125922D01*
X168950411Y-101125921D01*
X168982796Y-101081349D01*
X169075692Y-100899031D01*
X169138927Y-100704417D01*
X169170937Y-100502317D01*
X169170937Y-100297682D01*
X169138927Y-100095582D01*
X169075692Y-99900968D01*
X168982796Y-99718650D01*
X168950411Y-99674077D01*
X168950411Y-99674076D01*
X168270937Y-100353551D01*
X168270937Y-100347339D01*
X168243678Y-100245606D01*
X168191017Y-100154394D01*
X168116543Y-100079920D01*
X168025331Y-100027259D01*
X167923598Y-100000000D01*
X167917383Y-100000000D01*
X168596859Y-99320524D01*
X168596858Y-99320523D01*
X168552296Y-99288147D01*
X168552277Y-99288135D01*
X168523109Y-99273273D01*
X168472313Y-99225299D01*
X168455518Y-99157478D01*
X168461474Y-99124468D01*
X168467990Y-99104413D01*
X168500000Y-98902317D01*
X168500000Y-98697682D01*
X168467990Y-98495582D01*
X168404755Y-98300968D01*
X168311859Y-98118650D01*
X168279474Y-98074077D01*
X168279474Y-98074076D01*
X167600000Y-98753553D01*
X167600000Y-98747339D01*
X167572741Y-98645606D01*
X167520080Y-98554394D01*
X167445606Y-98479920D01*
X167354394Y-98427259D01*
X167252661Y-98400000D01*
X167246446Y-98400000D01*
X167925922Y-97720524D01*
X167925921Y-97720523D01*
X167881359Y-97688147D01*
X167881350Y-97688141D01*
X167699031Y-97595244D01*
X167504417Y-97532009D01*
X167302317Y-97500000D01*
X167097683Y-97500000D01*
X166895582Y-97532009D01*
X166700968Y-97595244D01*
X166518644Y-97688143D01*
X166474077Y-97720523D01*
X166474077Y-97720524D01*
X167153554Y-98400000D01*
X167147339Y-98400000D01*
X167045606Y-98427259D01*
X166954394Y-98479920D01*
X166879920Y-98554394D01*
X166827259Y-98645606D01*
X166800000Y-98747339D01*
X166800000Y-98753553D01*
X166120524Y-98074077D01*
X166082719Y-98077053D01*
X166014341Y-98062689D01*
X165964584Y-98013638D01*
X165962110Y-98008949D01*
X165958101Y-98000942D01*
X165934814Y-97930666D01*
X165842712Y-97781344D01*
X165718656Y-97657288D01*
X165618066Y-97595244D01*
X165569336Y-97565187D01*
X165569331Y-97565185D01*
X165414558Y-97513898D01*
X165357113Y-97474125D01*
X165330290Y-97409609D01*
X165329562Y-97396192D01*
X165329562Y-96599998D01*
X165329561Y-96599981D01*
X165319062Y-96497203D01*
X165319061Y-96497200D01*
X165289817Y-96408949D01*
X165263877Y-96330666D01*
X165171775Y-96181344D01*
X165047719Y-96057288D01*
X164898397Y-95965186D01*
X164898089Y-95965084D01*
X164864557Y-95953972D01*
X164807113Y-95914199D01*
X164780291Y-95849683D01*
X164779563Y-95836267D01*
X164779563Y-94833167D01*
X164799248Y-94766128D01*
X164815882Y-94745486D01*
X168554549Y-91006819D01*
X168615872Y-90973334D01*
X168642230Y-90970500D01*
X175538582Y-90970500D01*
X175605621Y-90990185D01*
X175638899Y-91021613D01*
X175744214Y-91166566D01*
X175905934Y-91328286D01*
X175990864Y-91389991D01*
X176033529Y-91445321D01*
X176039508Y-91514935D01*
X176006902Y-91576730D01*
X175990864Y-91590627D01*
X175906257Y-91652097D01*
X175744597Y-91813757D01*
X175610211Y-91998723D01*
X175506417Y-92202429D01*
X175435765Y-92419871D01*
X175421491Y-92510000D01*
X176409252Y-92510000D01*
X176387482Y-92547708D01*
X176350000Y-92687591D01*
X176350000Y-92832409D01*
X176387482Y-92972292D01*
X176409252Y-93010000D01*
X175421491Y-93010000D01*
X175435765Y-93100128D01*
X175506417Y-93317570D01*
X175610213Y-93521279D01*
X175743011Y-93704060D01*
X175766491Y-93769866D01*
X175750666Y-93837920D01*
X175700560Y-93886615D01*
X175686026Y-93893127D01*
X175657671Y-93903702D01*
X175657664Y-93903706D01*
X175542455Y-93989952D01*
X175542452Y-93989955D01*
X175456206Y-94105164D01*
X175456202Y-94105171D01*
X175405908Y-94240017D01*
X175399501Y-94299616D01*
X175399500Y-94299635D01*
X175399500Y-96300370D01*
X175399501Y-96300376D01*
X175405908Y-96359983D01*
X175456202Y-96494828D01*
X175456206Y-96494835D01*
X175542452Y-96610044D01*
X175542455Y-96610047D01*
X175657664Y-96696293D01*
X175657671Y-96696297D01*
X175792517Y-96746591D01*
X175792516Y-96746591D01*
X175798116Y-96747193D01*
X175852127Y-96753000D01*
X177947872Y-96752999D01*
X178007483Y-96746591D01*
X178142331Y-96696296D01*
X178257546Y-96610046D01*
X178343796Y-96494831D01*
X178394091Y-96359983D01*
X178400500Y-96300373D01*
X178400500Y-96174500D01*
X178420185Y-96107461D01*
X178472989Y-96061706D01*
X178524500Y-96050500D01*
X178573920Y-96050500D01*
X178671462Y-96031096D01*
X178718913Y-96021658D01*
X178855495Y-95965084D01*
X178937933Y-95910001D01*
X178978416Y-95882952D01*
X185562952Y-89298416D01*
X185622115Y-89209870D01*
X185645084Y-89175495D01*
X185701658Y-89038913D01*
X185730500Y-88893918D01*
X185730500Y-85024500D01*
X185750185Y-84957461D01*
X185802989Y-84911706D01*
X185854500Y-84900500D01*
X185880005Y-84900500D01*
X185880010Y-84900500D01*
X185982798Y-84889999D01*
X186149335Y-84834814D01*
X186298656Y-84742712D01*
X186422712Y-84618656D01*
X186514814Y-84469335D01*
X186569999Y-84302798D01*
X186580500Y-84200010D01*
X186580500Y-82399990D01*
X186569999Y-82297202D01*
X186514814Y-82130665D01*
X186422712Y-81981344D01*
X186298656Y-81857288D01*
X186184408Y-81786819D01*
X186149337Y-81765187D01*
X186149332Y-81765185D01*
X186131195Y-81759175D01*
X185982798Y-81710001D01*
X185982796Y-81710000D01*
X185880017Y-81699500D01*
X185880010Y-81699500D01*
X184079990Y-81699500D01*
X184079982Y-81699500D01*
X183977203Y-81710000D01*
X183977202Y-81710001D01*
X183894669Y-81737349D01*
X183810667Y-81765185D01*
X183810662Y-81765187D01*
X183661342Y-81857289D01*
X183537289Y-81981342D01*
X183445187Y-82130662D01*
X183445185Y-82130667D01*
X183439709Y-82147193D01*
X183390001Y-82297202D01*
X183390001Y-82297203D01*
X183390000Y-82297203D01*
X183379500Y-82399982D01*
X183379500Y-84200017D01*
X183390000Y-84302796D01*
X183407098Y-84354394D01*
X183445186Y-84469335D01*
X183537288Y-84618656D01*
X183661344Y-84742712D01*
X183810665Y-84834814D01*
X183977202Y-84889999D01*
X184079990Y-84900500D01*
X184105500Y-84900500D01*
X184172539Y-84920185D01*
X184218294Y-84972989D01*
X184229500Y-85024500D01*
X184229500Y-88457769D01*
X184209815Y-88524808D01*
X184193181Y-88545450D01*
X178558920Y-94179710D01*
X178497597Y-94213195D01*
X178427905Y-94208211D01*
X178371972Y-94166339D01*
X178355057Y-94135362D01*
X178343796Y-94105169D01*
X178343793Y-94105164D01*
X178257547Y-93989955D01*
X178257544Y-93989952D01*
X178142335Y-93903706D01*
X178142326Y-93903701D01*
X178113974Y-93893127D01*
X178058040Y-93851257D01*
X178033622Y-93785792D01*
X178048473Y-93717519D01*
X178056988Y-93704059D01*
X178189788Y-93521276D01*
X178293582Y-93317570D01*
X178364234Y-93100128D01*
X178378509Y-93010000D01*
X177390748Y-93010000D01*
X177412518Y-92972292D01*
X177450000Y-92832409D01*
X177450000Y-92687591D01*
X177412518Y-92547708D01*
X177390748Y-92510000D01*
X178378509Y-92510000D01*
X178364234Y-92419871D01*
X178293582Y-92202429D01*
X178189788Y-91998723D01*
X178055402Y-91813757D01*
X177893742Y-91652097D01*
X177809135Y-91590626D01*
X177766470Y-91535296D01*
X177760491Y-91465682D01*
X177793097Y-91403887D01*
X177809125Y-91389999D01*
X177894066Y-91328286D01*
X178055786Y-91166566D01*
X178190217Y-90981538D01*
X178294048Y-90777758D01*
X178364722Y-90560245D01*
X178400500Y-90334354D01*
X178400500Y-90105646D01*
X178364722Y-89879755D01*
X178364721Y-89879751D01*
X178364721Y-89879750D01*
X178294049Y-89662244D01*
X178247303Y-89570500D01*
X178190217Y-89458462D01*
X178055786Y-89273434D01*
X177894066Y-89111714D01*
X177709038Y-88977283D01*
X177545429Y-88893920D01*
X177505255Y-88873450D01*
X177287748Y-88802778D01*
X177118326Y-88775944D01*
X177061854Y-88767000D01*
X176738146Y-88767000D01*
X176662849Y-88778926D01*
X176512253Y-88802778D01*
X176512250Y-88802778D01*
X176294744Y-88873450D01*
X176090961Y-88977283D01*
X176006144Y-89038907D01*
X175905934Y-89111714D01*
X175905932Y-89111716D01*
X175905931Y-89111716D01*
X175744216Y-89273431D01*
X175744216Y-89273432D01*
X175744214Y-89273434D01*
X175638900Y-89418386D01*
X175583570Y-89461051D01*
X175538582Y-89469500D01*
X168206076Y-89469500D01*
X168177242Y-89475234D01*
X168177243Y-89475235D01*
X168061093Y-89498339D01*
X168061089Y-89498340D01*
X167981953Y-89531120D01*
X167924508Y-89554914D01*
X167924504Y-89554916D01*
X167908992Y-89565281D01*
X167901183Y-89570499D01*
X167901182Y-89570499D01*
X167801585Y-89637046D01*
X167801578Y-89637052D01*
X163446113Y-93992517D01*
X163446107Y-93992525D01*
X163396875Y-94066205D01*
X163396876Y-94066206D01*
X163363984Y-94115433D01*
X163363977Y-94115445D01*
X163307405Y-94252023D01*
X163307403Y-94252029D01*
X163278563Y-94397016D01*
X163278563Y-95836267D01*
X163258878Y-95903306D01*
X163206074Y-95949061D01*
X163193569Y-95953972D01*
X163159734Y-95965184D01*
X163159726Y-95965187D01*
X163010405Y-96057289D01*
X162886352Y-96181342D01*
X162794250Y-96330663D01*
X162794248Y-96330668D01*
X162784534Y-96359983D01*
X162739064Y-96497203D01*
X162739064Y-96497204D01*
X162739063Y-96497204D01*
X162728563Y-96599983D01*
X162728563Y-97800001D01*
X162728564Y-97800018D01*
X162739063Y-97902796D01*
X162739064Y-97902799D01*
X162794248Y-98069331D01*
X162794250Y-98069336D01*
X162799685Y-98078148D01*
X162886351Y-98218656D01*
X163010407Y-98342712D01*
X163159729Y-98434814D01*
X163314505Y-98486101D01*
X163371949Y-98525874D01*
X163398772Y-98590389D01*
X163399500Y-98603807D01*
X163399500Y-99400001D01*
X163399501Y-99400019D01*
X163410000Y-99502796D01*
X163410001Y-99502799D01*
X163432857Y-99571772D01*
X163465186Y-99669334D01*
X163557288Y-99818656D01*
X163681344Y-99942712D01*
X163830666Y-100034814D01*
X163864500Y-100046025D01*
X163921947Y-100085796D01*
X163948772Y-100150311D01*
X163949500Y-100163732D01*
X163949500Y-107909295D01*
X163933641Y-107965537D01*
X163935452Y-107966460D01*
X163847454Y-108139163D01*
X163789059Y-108318881D01*
X163759500Y-108505513D01*
X163759500Y-108687769D01*
X163739815Y-108754808D01*
X163723181Y-108775450D01*
X155117050Y-117381580D01*
X155117044Y-117381588D01*
X155067812Y-117455268D01*
X155067813Y-117455269D01*
X155034915Y-117504504D01*
X155034913Y-117504508D01*
X155027273Y-117522954D01*
X154983432Y-117577357D01*
X154917137Y-117599421D01*
X154912713Y-117599500D01*
X154599999Y-117599500D01*
X154599980Y-117599501D01*
X154497203Y-117610000D01*
X154497200Y-117610001D01*
X154330668Y-117665185D01*
X154330663Y-117665187D01*
X154181342Y-117757289D01*
X154057289Y-117881342D01*
X153965187Y-118030663D01*
X153965185Y-118030668D01*
X153958886Y-118049678D01*
X153910001Y-118197203D01*
X153910001Y-118197204D01*
X153910000Y-118197204D01*
X153899500Y-118299983D01*
X130284903Y-118299983D01*
X117670789Y-105685869D01*
X117637304Y-105624546D01*
X117642288Y-105554854D01*
X117660097Y-105522699D01*
X117666924Y-105513803D01*
X117798043Y-105286697D01*
X117898398Y-105044419D01*
X117966270Y-104791116D01*
X118000500Y-104531120D01*
X118000500Y-104268880D01*
X118000499Y-104268872D01*
X133999500Y-104268872D01*
X133999500Y-104531127D01*
X134026123Y-104733339D01*
X134033730Y-104791116D01*
X134101602Y-105044418D01*
X134101605Y-105044428D01*
X134201953Y-105286690D01*
X134201958Y-105286700D01*
X134333075Y-105513803D01*
X134492718Y-105721851D01*
X134492726Y-105721860D01*
X134678140Y-105907274D01*
X134678148Y-105907281D01*
X134678149Y-105907282D01*
X134722203Y-105941086D01*
X134886196Y-106066924D01*
X135113299Y-106198041D01*
X135113309Y-106198046D01*
X135282266Y-106268030D01*
X135355581Y-106298398D01*
X135608884Y-106366270D01*
X135868880Y-106400500D01*
X135868887Y-106400500D01*
X136131113Y-106400500D01*
X136131120Y-106400500D01*
X136391116Y-106366270D01*
X136644419Y-106298398D01*
X136866519Y-106206401D01*
X136886690Y-106198046D01*
X136886691Y-106198045D01*
X136886697Y-106198043D01*
X137113803Y-106066924D01*
X137321851Y-105907282D01*
X137321855Y-105907277D01*
X137321860Y-105907274D01*
X137507274Y-105721860D01*
X137507277Y-105721855D01*
X137507282Y-105721851D01*
X137666924Y-105513803D01*
X137798043Y-105286697D01*
X137898398Y-105044419D01*
X137966270Y-104791116D01*
X138000500Y-104531120D01*
X138000500Y-104268880D01*
X137966270Y-104008884D01*
X137898398Y-103755581D01*
X137898394Y-103755571D01*
X137798046Y-103513309D01*
X137798041Y-103513299D01*
X137666924Y-103286196D01*
X137507281Y-103078148D01*
X137507274Y-103078140D01*
X137321860Y-102892726D01*
X137321851Y-102892718D01*
X137113803Y-102733075D01*
X136886700Y-102601958D01*
X136886690Y-102601953D01*
X136644428Y-102501605D01*
X136644421Y-102501603D01*
X136644419Y-102501602D01*
X136391116Y-102433730D01*
X136333339Y-102426123D01*
X136131127Y-102399500D01*
X136131120Y-102399500D01*
X135868880Y-102399500D01*
X135868872Y-102399500D01*
X135637772Y-102429926D01*
X135608884Y-102433730D01*
X135355581Y-102501602D01*
X135355571Y-102501605D01*
X135113309Y-102601953D01*
X135113299Y-102601958D01*
X134886196Y-102733075D01*
X134678148Y-102892718D01*
X134492718Y-103078148D01*
X134333075Y-103286196D01*
X134201958Y-103513299D01*
X134201953Y-103513309D01*
X134101605Y-103755571D01*
X134101602Y-103755581D01*
X134033730Y-104008885D01*
X133999500Y-104268872D01*
X118000499Y-104268872D01*
X117966270Y-104008884D01*
X117898398Y-103755581D01*
X117898394Y-103755571D01*
X117798046Y-103513309D01*
X117798041Y-103513299D01*
X117666924Y-103286196D01*
X117507281Y-103078148D01*
X117507274Y-103078140D01*
X117321860Y-102892726D01*
X117321851Y-102892718D01*
X117113803Y-102733075D01*
X116886700Y-102601958D01*
X116886690Y-102601953D01*
X116644428Y-102501605D01*
X116644421Y-102501603D01*
X116644419Y-102501602D01*
X116391116Y-102433730D01*
X116333339Y-102426123D01*
X116131127Y-102399500D01*
X116131120Y-102399500D01*
X115868880Y-102399500D01*
X115868872Y-102399500D01*
X115637772Y-102429926D01*
X115608884Y-102433730D01*
X115355581Y-102501602D01*
X115355571Y-102501605D01*
X115113309Y-102601953D01*
X115113299Y-102601958D01*
X114886196Y-102733075D01*
X114678148Y-102892718D01*
X114492718Y-103078148D01*
X114333075Y-103286196D01*
X114201958Y-103513299D01*
X114201953Y-103513309D01*
X114101605Y-103755571D01*
X114101602Y-103755581D01*
X114033730Y-104008885D01*
X113999500Y-104268872D01*
X107700500Y-104268872D01*
X107700500Y-103104675D01*
X107700501Y-103104654D01*
X107700501Y-102901457D01*
X107700500Y-102901455D01*
X107662053Y-102708172D01*
X107662052Y-102708165D01*
X107586632Y-102526086D01*
X107586631Y-102526085D01*
X107586628Y-102526079D01*
X107477140Y-102362219D01*
X107477137Y-102362215D01*
X104712611Y-99597690D01*
X104679126Y-99536367D01*
X104677353Y-99493828D01*
X104700500Y-99318011D01*
X104700500Y-99081989D01*
X104669693Y-98847986D01*
X104608606Y-98620007D01*
X104518284Y-98401951D01*
X104518282Y-98401948D01*
X104518280Y-98401943D01*
X104451453Y-98286197D01*
X104400273Y-98197550D01*
X104256592Y-98010301D01*
X104256587Y-98010295D01*
X104089704Y-97843412D01*
X104089697Y-97843406D01*
X103902454Y-97699730D01*
X103902453Y-97699729D01*
X103902450Y-97699727D01*
X103820957Y-97652677D01*
X103698056Y-97581719D01*
X103698045Y-97581714D01*
X103479993Y-97491394D01*
X103252010Y-97430306D01*
X103018020Y-97399501D01*
X103018017Y-97399500D01*
X103018011Y-97399500D01*
X102781989Y-97399500D01*
X102781983Y-97399500D01*
X102781979Y-97399501D01*
X102547989Y-97430306D01*
X102320006Y-97491394D01*
X102101954Y-97581714D01*
X102101943Y-97581719D01*
X101897545Y-97699730D01*
X101710302Y-97843406D01*
X101710295Y-97843412D01*
X101543412Y-98010295D01*
X101543406Y-98010302D01*
X101399730Y-98197545D01*
X101281719Y-98401943D01*
X101281714Y-98401954D01*
X101191394Y-98620006D01*
X101130306Y-98847989D01*
X101099501Y-99081979D01*
X101099500Y-99081995D01*
X101099500Y-99318004D01*
X101099501Y-99318020D01*
X101130306Y-99552010D01*
X101191394Y-99779993D01*
X101281714Y-99998045D01*
X101281719Y-99998056D01*
X101338027Y-100095582D01*
X101399727Y-100202450D01*
X101399729Y-100202453D01*
X101399730Y-100202454D01*
X101543406Y-100389697D01*
X101543412Y-100389704D01*
X101710295Y-100556587D01*
X101710301Y-100556592D01*
X101897550Y-100700273D01*
X101989834Y-100753553D01*
X102101943Y-100818280D01*
X102101948Y-100818282D01*
X102101951Y-100818284D01*
X102320007Y-100908606D01*
X102547986Y-100969693D01*
X102781989Y-101000500D01*
X102781996Y-101000500D01*
X103018004Y-101000500D01*
X103018011Y-101000500D01*
X103193826Y-100977353D01*
X103262859Y-100988118D01*
X103297687Y-101012608D01*
X104647295Y-102362215D01*
X105663181Y-103378101D01*
X105696666Y-103439424D01*
X105699500Y-103465782D01*
X105699500Y-124698541D01*
X105699500Y-124698543D01*
X105699499Y-124698543D01*
X105737947Y-124891829D01*
X105737950Y-124891839D01*
X105813364Y-125073907D01*
X105813371Y-125073920D01*
X105922860Y-125237781D01*
X105922863Y-125237785D01*
X106066537Y-125381459D01*
X106066559Y-125381479D01*
X109872899Y-129187819D01*
X109906384Y-129249142D01*
X109901400Y-129318834D01*
X109859528Y-129374767D01*
X109794064Y-129399184D01*
X109785218Y-129399500D01*
X97324500Y-129399500D01*
X97257461Y-129379815D01*
X97211706Y-129327011D01*
X97200500Y-129275500D01*
X97200500Y-93099983D01*
X101099500Y-93099983D01*
X101099500Y-95300001D01*
X101099501Y-95300018D01*
X101110000Y-95402796D01*
X101110001Y-95402799D01*
X101146785Y-95513803D01*
X101165186Y-95569334D01*
X101257288Y-95718656D01*
X101381344Y-95842712D01*
X101530666Y-95934814D01*
X101697203Y-95989999D01*
X101799991Y-96000500D01*
X104000008Y-96000499D01*
X104102797Y-95989999D01*
X104269334Y-95934814D01*
X104418656Y-95842712D01*
X104542712Y-95718656D01*
X104634814Y-95569334D01*
X104689999Y-95402797D01*
X104699286Y-95311897D01*
X104725683Y-95247205D01*
X104782864Y-95207054D01*
X104822644Y-95200500D01*
X105334218Y-95200500D01*
X105401257Y-95220185D01*
X105421899Y-95236819D01*
X110362215Y-100177137D01*
X110362219Y-100177140D01*
X110526079Y-100286628D01*
X110526085Y-100286631D01*
X110526086Y-100286632D01*
X110708165Y-100362052D01*
X110898936Y-100399999D01*
X110901455Y-100400500D01*
X110901458Y-100400501D01*
X110901460Y-100400501D01*
X111104655Y-100400501D01*
X111104675Y-100400500D01*
X114196069Y-100400500D01*
X114263108Y-100420185D01*
X114303456Y-100462500D01*
X114333075Y-100513803D01*
X114492718Y-100721851D01*
X114492726Y-100721860D01*
X114678140Y-100907274D01*
X114678148Y-100907281D01*
X114678149Y-100907282D01*
X114726554Y-100944424D01*
X114886196Y-101066924D01*
X115113299Y-101198041D01*
X115113309Y-101198046D01*
X115355571Y-101298394D01*
X115355581Y-101298398D01*
X115608884Y-101366270D01*
X115868880Y-101400500D01*
X115868887Y-101400500D01*
X116131113Y-101400500D01*
X116131120Y-101400500D01*
X116391116Y-101366270D01*
X116644419Y-101298398D01*
X116886697Y-101198043D01*
X117113803Y-101066924D01*
X117321851Y-100907282D01*
X117321855Y-100907277D01*
X117321860Y-100907274D01*
X117507274Y-100721860D01*
X117507277Y-100721855D01*
X117507282Y-100721851D01*
X117666924Y-100513803D01*
X117798043Y-100286697D01*
X117815064Y-100245606D01*
X117854536Y-100150311D01*
X117898398Y-100044419D01*
X117966270Y-99791116D01*
X118000500Y-99531120D01*
X118000500Y-99268880D01*
X118000499Y-99268872D01*
X133999500Y-99268872D01*
X133999500Y-99531127D01*
X134017697Y-99669336D01*
X134033730Y-99791116D01*
X134101602Y-100044418D01*
X134101605Y-100044428D01*
X134201953Y-100286690D01*
X134201958Y-100286700D01*
X134333075Y-100513803D01*
X134492718Y-100721851D01*
X134492726Y-100721860D01*
X134678140Y-100907274D01*
X134678148Y-100907281D01*
X134678149Y-100907282D01*
X134726554Y-100944424D01*
X134886196Y-101066924D01*
X135113299Y-101198041D01*
X135113309Y-101198046D01*
X135355571Y-101298394D01*
X135355581Y-101298398D01*
X135608884Y-101366270D01*
X135868880Y-101400500D01*
X135868887Y-101400500D01*
X136131113Y-101400500D01*
X136131120Y-101400500D01*
X136391116Y-101366270D01*
X136644419Y-101298398D01*
X136886697Y-101198043D01*
X137113803Y-101066924D01*
X137321851Y-100907282D01*
X137321855Y-100907277D01*
X137321860Y-100907274D01*
X137507274Y-100721860D01*
X137507277Y-100721855D01*
X137507282Y-100721851D01*
X137666924Y-100513803D01*
X137798043Y-100286697D01*
X137815064Y-100245606D01*
X137854536Y-100150311D01*
X137898398Y-100044419D01*
X137966270Y-99791116D01*
X138000500Y-99531120D01*
X138000500Y-99268880D01*
X137966270Y-99008884D01*
X137898398Y-98755581D01*
X137894984Y-98747339D01*
X137798046Y-98513309D01*
X137798041Y-98513299D01*
X137666924Y-98286196D01*
X137507281Y-98078148D01*
X137507274Y-98078140D01*
X137321860Y-97892726D01*
X137321851Y-97892718D01*
X137113803Y-97733075D01*
X136886700Y-97601958D01*
X136886690Y-97601953D01*
X136644428Y-97501605D01*
X136644421Y-97501603D01*
X136644419Y-97501602D01*
X136391116Y-97433730D01*
X136333339Y-97426123D01*
X136131127Y-97399500D01*
X136131120Y-97399500D01*
X135868880Y-97399500D01*
X135868872Y-97399500D01*
X135637772Y-97429926D01*
X135608884Y-97433730D01*
X135458127Y-97474125D01*
X135355581Y-97501602D01*
X135355571Y-97501605D01*
X135113309Y-97601953D01*
X135113299Y-97601958D01*
X134886196Y-97733075D01*
X134678148Y-97892718D01*
X134492718Y-98078148D01*
X134333075Y-98286196D01*
X134201958Y-98513299D01*
X134201953Y-98513309D01*
X134101605Y-98755571D01*
X134101602Y-98755581D01*
X134048331Y-98954394D01*
X134033730Y-99008885D01*
X133999500Y-99268872D01*
X118000499Y-99268872D01*
X117966270Y-99008884D01*
X117898398Y-98755581D01*
X117894984Y-98747339D01*
X117798046Y-98513309D01*
X117798041Y-98513299D01*
X117666924Y-98286196D01*
X117507281Y-98078148D01*
X117507274Y-98078140D01*
X117321860Y-97892726D01*
X117321851Y-97892718D01*
X117113803Y-97733075D01*
X116886700Y-97601958D01*
X116886690Y-97601953D01*
X116644428Y-97501605D01*
X116644421Y-97501603D01*
X116644419Y-97501602D01*
X116391116Y-97433730D01*
X116333339Y-97426123D01*
X116131127Y-97399500D01*
X116131120Y-97399500D01*
X115868880Y-97399500D01*
X115868872Y-97399500D01*
X115637772Y-97429926D01*
X115608884Y-97433730D01*
X115458127Y-97474125D01*
X115355581Y-97501602D01*
X115355571Y-97501605D01*
X115113309Y-97601953D01*
X115113299Y-97601958D01*
X114886196Y-97733075D01*
X114678148Y-97892718D01*
X114492718Y-98078148D01*
X114333075Y-98286196D01*
X114303456Y-98337500D01*
X114252889Y-98385715D01*
X114196069Y-98399500D01*
X111465783Y-98399500D01*
X111398744Y-98379815D01*
X111378102Y-98363181D01*
X109374903Y-96359982D01*
X107283792Y-94268872D01*
X113999500Y-94268872D01*
X113999500Y-94531127D01*
X114006112Y-94581344D01*
X114033730Y-94791116D01*
X114101602Y-95044418D01*
X114101605Y-95044428D01*
X114201953Y-95286690D01*
X114201958Y-95286700D01*
X114333075Y-95513803D01*
X114492718Y-95721851D01*
X114492726Y-95721860D01*
X114678140Y-95907274D01*
X114678148Y-95907281D01*
X114678149Y-95907282D01*
X114710374Y-95932009D01*
X114886196Y-96066924D01*
X115113299Y-96198041D01*
X115113309Y-96198046D01*
X115355571Y-96298394D01*
X115355581Y-96298398D01*
X115608884Y-96366270D01*
X115868880Y-96400500D01*
X115868887Y-96400500D01*
X116131113Y-96400500D01*
X116131120Y-96400500D01*
X116391116Y-96366270D01*
X116644419Y-96298398D01*
X116886697Y-96198043D01*
X117113803Y-96066924D01*
X117321851Y-95907282D01*
X117321855Y-95907277D01*
X117321860Y-95907274D01*
X117507274Y-95721860D01*
X117507277Y-95721855D01*
X117507282Y-95721851D01*
X117666924Y-95513803D01*
X117798043Y-95286697D01*
X117898398Y-95044419D01*
X117966270Y-94791116D01*
X118000500Y-94531120D01*
X118000500Y-94268880D01*
X118000499Y-94268872D01*
X133999500Y-94268872D01*
X133999500Y-94531127D01*
X134006112Y-94581344D01*
X134033730Y-94791116D01*
X134101602Y-95044418D01*
X134101605Y-95044428D01*
X134201953Y-95286690D01*
X134201958Y-95286700D01*
X134333075Y-95513803D01*
X134492718Y-95721851D01*
X134492726Y-95721860D01*
X134678140Y-95907274D01*
X134678148Y-95907281D01*
X134678149Y-95907282D01*
X134710374Y-95932009D01*
X134886196Y-96066924D01*
X135113299Y-96198041D01*
X135113309Y-96198046D01*
X135355571Y-96298394D01*
X135355581Y-96298398D01*
X135608884Y-96366270D01*
X135868880Y-96400500D01*
X135868887Y-96400500D01*
X136131113Y-96400500D01*
X136131120Y-96400500D01*
X136391116Y-96366270D01*
X136644419Y-96298398D01*
X136886697Y-96198043D01*
X137113803Y-96066924D01*
X137321851Y-95907282D01*
X137321855Y-95907277D01*
X137321860Y-95907274D01*
X137507274Y-95721860D01*
X137507277Y-95721855D01*
X137507282Y-95721851D01*
X137666924Y-95513803D01*
X137798043Y-95286697D01*
X137898398Y-95044419D01*
X137966270Y-94791116D01*
X138000500Y-94531120D01*
X138000500Y-94268880D01*
X137966270Y-94008884D01*
X137898398Y-93755581D01*
X137877057Y-93704059D01*
X137798046Y-93513309D01*
X137798041Y-93513299D01*
X137666924Y-93286196D01*
X137507281Y-93078148D01*
X137507274Y-93078140D01*
X137321860Y-92892726D01*
X137321851Y-92892718D01*
X137113803Y-92733075D01*
X136886700Y-92601958D01*
X136886690Y-92601953D01*
X136644428Y-92501605D01*
X136644421Y-92501603D01*
X136644419Y-92501602D01*
X136391116Y-92433730D01*
X136333339Y-92426123D01*
X136131127Y-92399500D01*
X136131120Y-92399500D01*
X135868880Y-92399500D01*
X135868872Y-92399500D01*
X135637772Y-92429926D01*
X135608884Y-92433730D01*
X135355581Y-92501602D01*
X135355571Y-92501605D01*
X135113309Y-92601953D01*
X135113299Y-92601958D01*
X134886196Y-92733075D01*
X134678148Y-92892718D01*
X134492718Y-93078148D01*
X134333075Y-93286196D01*
X134201958Y-93513299D01*
X134201953Y-93513309D01*
X134101605Y-93755571D01*
X134101602Y-93755581D01*
X134038114Y-93992525D01*
X134033730Y-94008885D01*
X133999500Y-94268872D01*
X118000499Y-94268872D01*
X117966270Y-94008884D01*
X117898398Y-93755581D01*
X117877057Y-93704059D01*
X117798046Y-93513309D01*
X117798041Y-93513299D01*
X117666924Y-93286196D01*
X117507281Y-93078148D01*
X117507274Y-93078140D01*
X117321860Y-92892726D01*
X117321851Y-92892718D01*
X117113803Y-92733075D01*
X116886700Y-92601958D01*
X116886690Y-92601953D01*
X116644428Y-92501605D01*
X116644421Y-92501603D01*
X116644419Y-92501602D01*
X116391116Y-92433730D01*
X116333339Y-92426123D01*
X116131127Y-92399500D01*
X116131120Y-92399500D01*
X115868880Y-92399500D01*
X115868872Y-92399500D01*
X115637772Y-92429926D01*
X115608884Y-92433730D01*
X115355581Y-92501602D01*
X115355571Y-92501605D01*
X115113309Y-92601953D01*
X115113299Y-92601958D01*
X114886196Y-92733075D01*
X114678148Y-92892718D01*
X114492718Y-93078148D01*
X114333075Y-93286196D01*
X114201958Y-93513299D01*
X114201953Y-93513309D01*
X114101605Y-93755571D01*
X114101602Y-93755581D01*
X114038114Y-93992525D01*
X114033730Y-94008885D01*
X113999500Y-94268872D01*
X107283792Y-94268872D01*
X106584208Y-93569288D01*
X106584206Y-93569285D01*
X106584206Y-93569286D01*
X106577139Y-93562219D01*
X106577139Y-93562218D01*
X106437782Y-93422861D01*
X106437781Y-93422860D01*
X106437780Y-93422859D01*
X106273920Y-93313371D01*
X106273911Y-93313366D01*
X106175294Y-93272518D01*
X106145165Y-93260038D01*
X106118500Y-93248993D01*
X106091837Y-93237949D01*
X106091833Y-93237948D01*
X105981511Y-93216004D01*
X105898543Y-93199500D01*
X105898541Y-93199500D01*
X104822643Y-93199500D01*
X104755604Y-93179815D01*
X104709849Y-93127011D01*
X104699285Y-93088102D01*
X104691306Y-93010000D01*
X104689999Y-92997203D01*
X104634814Y-92830666D01*
X104542712Y-92681344D01*
X104418656Y-92557288D01*
X104269334Y-92465186D01*
X104102797Y-92410001D01*
X104102795Y-92410000D01*
X104000010Y-92399500D01*
X101799998Y-92399500D01*
X101799981Y-92399501D01*
X101697203Y-92410000D01*
X101697200Y-92410001D01*
X101530668Y-92465185D01*
X101530663Y-92465187D01*
X101381342Y-92557289D01*
X101257289Y-92681342D01*
X101165187Y-92830663D01*
X101165186Y-92830666D01*
X101110001Y-92997203D01*
X101110001Y-92997204D01*
X101110000Y-92997204D01*
X101099500Y-93099983D01*
X97200500Y-93099983D01*
X97200500Y-84268872D01*
X113999500Y-84268872D01*
X113999500Y-84531127D01*
X114021606Y-84699031D01*
X114033730Y-84791116D01*
X114089834Y-85000499D01*
X114101602Y-85044418D01*
X114101605Y-85044428D01*
X114201953Y-85286690D01*
X114201958Y-85286700D01*
X114333075Y-85513803D01*
X114492718Y-85721851D01*
X114492726Y-85721860D01*
X114678140Y-85907274D01*
X114678148Y-85907281D01*
X114886196Y-86066924D01*
X115113299Y-86198041D01*
X115113309Y-86198046D01*
X115355571Y-86298394D01*
X115355581Y-86298398D01*
X115608884Y-86366270D01*
X115868880Y-86400500D01*
X115868887Y-86400500D01*
X116131113Y-86400500D01*
X116131120Y-86400500D01*
X116391116Y-86366270D01*
X116644419Y-86298398D01*
X116886697Y-86198043D01*
X117113803Y-86066924D01*
X117321851Y-85907282D01*
X117321855Y-85907277D01*
X117321860Y-85907274D01*
X117507274Y-85721860D01*
X117507277Y-85721855D01*
X117507282Y-85721851D01*
X117666924Y-85513803D01*
X117798043Y-85286697D01*
X117898398Y-85044419D01*
X117966270Y-84791116D01*
X118000500Y-84531120D01*
X118000500Y-84268880D01*
X117966270Y-84008884D01*
X117898398Y-83755581D01*
X117898394Y-83755571D01*
X117798046Y-83513309D01*
X117798041Y-83513299D01*
X117666924Y-83286196D01*
X117514954Y-83088147D01*
X117507282Y-83078149D01*
X117507281Y-83078148D01*
X117507274Y-83078140D01*
X117321860Y-82892726D01*
X117321851Y-82892718D01*
X117113803Y-82733075D01*
X116886700Y-82601958D01*
X116886690Y-82601953D01*
X116644428Y-82501605D01*
X116644421Y-82501603D01*
X116644419Y-82501602D01*
X116391116Y-82433730D01*
X116333339Y-82426123D01*
X116131127Y-82399500D01*
X116131120Y-82399500D01*
X115868880Y-82399500D01*
X115868872Y-82399500D01*
X115637772Y-82429926D01*
X115608884Y-82433730D01*
X115445834Y-82477419D01*
X115355581Y-82501602D01*
X115355571Y-82501605D01*
X115113309Y-82601953D01*
X115113299Y-82601958D01*
X114886196Y-82733075D01*
X114678148Y-82892718D01*
X114492718Y-83078148D01*
X114333075Y-83286196D01*
X114201958Y-83513299D01*
X114201953Y-83513309D01*
X114101605Y-83755571D01*
X114101602Y-83755581D01*
X114048331Y-83954394D01*
X114033730Y-84008885D01*
X113999500Y-84268872D01*
X97200500Y-84268872D01*
X97200500Y-74624500D01*
X97220185Y-74557461D01*
X97272989Y-74511706D01*
X97324500Y-74500500D01*
X121685217Y-74500500D01*
X121752256Y-74520185D01*
G37*
%TD.AperFunction*%
%TD*%
M02*
