%TF.GenerationSoftware,KiCad,Pcbnew,10.0.5*%
%TF.CreationDate,2026-10-02T22:40:27+05:30*%
%TF.ProjectId,Regulated Power Supply,52656775-6c61-4746-9564-20506f776572,rev?*%
%TF.SameCoordinates,Original*%
%TF.FileFunction,Copper,L2,Bot*%
%TF.FilePolarity,Positive*%
%FSLAX46Y46*%
G04 Gerber Fmt 4.6, Leading zero omitted, Abs format (unit mm)*
G04 Created by KiCad (PCBNEW 10.0.5) date 2026-10-02 22:40:27*
%MOMM*%
%LPD*%
G01*
G04 APERTURE LIST*
G04 Aperture macros list*
%AMRoundRect*
0 Rectangle with rounded corners*
0 $1 Rounding radius*
0 $2 $3 $4 $5 $6 $7 $8 $9 X,Y pos of 4 corners*
0 Add a 4 corners polygon primitive as box body*
4,1,4,$2,$3,$4,$5,$6,$7,$8,$9,$2,$3,0*
0 Add four circle primitives for the rounded corners*
1,1,$1+$1,$2,$3*
1,1,$1+$1,$4,$5*
1,1,$1+$1,$6,$7*
1,1,$1+$1,$8,$9*
0 Add four rect primitives between the rounded corners*
20,1,$1+$1,$2,$3,$4,$5,0*
20,1,$1+$1,$4,$5,$6,$7,0*
20,1,$1+$1,$6,$7,$8,$9,0*
20,1,$1+$1,$8,$9,$2,$3,0*%
G04 Aperture macros list end*
%TA.AperFunction,ComponentPad*%
%ADD10C,1.400000*%
%TD*%
%TA.AperFunction,ComponentPad*%
%ADD11C,3.000000*%
%TD*%
%TA.AperFunction,ComponentPad*%
%ADD12RoundRect,0.249999X-0.850001X-0.850001X0.850001X-0.850001X0.850001X0.850001X-0.850001X0.850001X0*%
%TD*%
%TA.AperFunction,ComponentPad*%
%ADD13C,2.200000*%
%TD*%
%TA.AperFunction,ComponentPad*%
%ADD14RoundRect,0.250000X-0.550000X-0.550000X0.550000X-0.550000X0.550000X0.550000X-0.550000X0.550000X0*%
%TD*%
%TA.AperFunction,ComponentPad*%
%ADD15C,1.600000*%
%TD*%
%TA.AperFunction,ComponentPad*%
%ADD16R,2.000000X1.905000*%
%TD*%
%TA.AperFunction,ComponentPad*%
%ADD17O,2.000000X1.905000*%
%TD*%
%TA.AperFunction,ComponentPad*%
%ADD18RoundRect,0.250000X-1.050000X1.050000X-1.050000X-1.050000X1.050000X-1.050000X1.050000X1.050000X0*%
%TD*%
%TA.AperFunction,ComponentPad*%
%ADD19C,2.600000*%
%TD*%
%TA.AperFunction,ComponentPad*%
%ADD20RoundRect,0.250000X-1.050000X-1.050000X1.050000X-1.050000X1.050000X1.050000X-1.050000X1.050000X0*%
%TD*%
%TA.AperFunction,ComponentPad*%
%ADD21R,1.800000X1.800000*%
%TD*%
%TA.AperFunction,ComponentPad*%
%ADD22C,1.800000*%
%TD*%
%TA.AperFunction,ComponentPad*%
%ADD23RoundRect,0.249999X0.850001X0.850001X-0.850001X0.850001X-0.850001X-0.850001X0.850001X-0.850001X0*%
%TD*%
%TA.AperFunction,Conductor*%
%ADD24C,0.500000*%
%TD*%
G04 APERTURE END LIST*
D10*
%TO.P,R1,1*%
%TO.N,Net-(J2-Pin_1)*%
X164960000Y-108600000D03*
%TO.P,R1,2*%
%TO.N,Net-(D5-A)*%
X170040000Y-108600000D03*
%TD*%
D11*
%TO.P,T1,1,AA_1*%
%TO.N,Net-(T1-AA)*%
X116000000Y-104400000D03*
%TO.P,T1,2,AB_2*%
%TO.N,Net-(J1-Pin_1)*%
X116000000Y-99400000D03*
%TO.P,T1,3,SA_3*%
%TO.N,Net-(D3-K)*%
X116000000Y-94400000D03*
%TO.P,T1,4,SB_4*%
%TO.N,Net-(D1-K)*%
X116000000Y-89400000D03*
%TO.P,T1,5*%
%TO.N,N/C*%
X116000000Y-84400000D03*
%TO.P,T1,6*%
X136000000Y-84400000D03*
%TO.P,T1,7*%
X136000000Y-89400000D03*
%TO.P,T1,8*%
X136000000Y-94400000D03*
%TO.P,T1,9*%
X136000000Y-99400000D03*
%TO.P,T1,10*%
X136000000Y-104400000D03*
%TD*%
D12*
%TO.P,D2,1,K_1*%
%TO.N,Net-(D2-K)*%
X160020000Y-83400000D03*
D13*
%TO.P,D2,2,A_2*%
%TO.N,Net-(D1-K)*%
X170180000Y-83400000D03*
%TD*%
D14*
%TO.P,C3,1*%
%TO.N,Net-(J2-Pin_1)*%
X164029063Y-97200000D03*
X164700000Y-98800000D03*
D15*
%TO.P,C3,2*%
%TO.N,GND*%
X167200000Y-98800000D03*
X167870937Y-100400000D03*
%TD*%
D14*
%TO.P,C1,1*%
%TO.N,Net-(D2-K)*%
X149429063Y-95600000D03*
X150100000Y-97200000D03*
D15*
%TO.P,C1,2*%
%TO.N,GND*%
X152600000Y-97200000D03*
X153270937Y-98800000D03*
%TD*%
D11*
%TO.P,F1,1*%
%TO.N,Net-(J1-Pin_2)*%
X141930000Y-121200000D03*
%TO.P,F1,2*%
%TO.N,Net-(T1-AA)*%
X131770000Y-121200000D03*
%TD*%
D14*
%TO.P,C2,1*%
%TO.N,Net-(D2-K)*%
X148929063Y-81000000D03*
X149600000Y-82600000D03*
D15*
%TO.P,C2,2*%
%TO.N,GND*%
X152100000Y-82600000D03*
X152770937Y-84200000D03*
%TD*%
D16*
%TO.P,U1,1,IN_1*%
%TO.N,Net-(D2-K)*%
X176900000Y-95300000D03*
D17*
%TO.P,U1,2,GND_2*%
%TO.N,GND*%
X176900000Y-92760000D03*
%TO.P,U1,3,OUT_3*%
%TO.N,Net-(J2-Pin_1)*%
X176900000Y-90220000D03*
%TD*%
D12*
%TO.P,D1,1,K_1*%
%TO.N,Net-(D1-K)*%
X160020000Y-78300000D03*
D13*
%TO.P,D1,2,A_2*%
%TO.N,GND*%
X170180000Y-78300000D03*
%TD*%
D18*
%TO.P,J1,1,Pin_1_1*%
%TO.N,Net-(J1-Pin_1)*%
X102900000Y-94200000D03*
D19*
%TO.P,J1,2,Pin_2_2*%
%TO.N,Net-(J1-Pin_2)*%
X102900000Y-99200000D03*
%TD*%
D20*
%TO.P,J2,1,Pin_1_1*%
%TO.N,Net-(J2-Pin_1)*%
X155700000Y-119400000D03*
D19*
%TO.P,J2,2,Pin_2_2*%
%TO.N,GND*%
X160700000Y-119400000D03*
%TD*%
D21*
%TO.P,D5,1,K_1*%
%TO.N,GND*%
X176160000Y-107600000D03*
D22*
%TO.P,D5,2,A_2*%
%TO.N,Net-(D5-A)*%
X178700000Y-107600000D03*
%TD*%
D12*
%TO.P,D3,1,K_1*%
%TO.N,Net-(D3-K)*%
X174720000Y-78300000D03*
D13*
%TO.P,D3,2,A_2*%
%TO.N,GND*%
X184880000Y-78300000D03*
%TD*%
D23*
%TO.P,D4,1,K_1*%
%TO.N,Net-(D2-K)*%
X184980000Y-83300000D03*
D13*
%TO.P,D4,2,A_2*%
%TO.N,Net-(D3-K)*%
X174820000Y-83300000D03*
%TD*%
%TO.N,Net-(D2-K)*%
D24*
X149729063Y-95300000D02*
X149429063Y-95600000D01*
X176900000Y-95300000D02*
X149729063Y-95300000D01*
%TO.N,GND*%
X180900000Y-88760000D02*
X176900000Y-92760000D01*
X175070937Y-107600000D02*
X167870937Y-100400000D01*
X167200000Y-98800000D02*
X165950000Y-100050000D01*
X154520937Y-100050000D02*
X153270937Y-98800000D01*
X176000000Y-80600000D02*
X180900000Y-85500000D01*
X176160000Y-107600000D02*
X175070937Y-107600000D01*
X170180000Y-78300000D02*
X172480000Y-80600000D01*
X180900000Y-85500000D02*
X180900000Y-88760000D01*
X172480000Y-80600000D02*
X176000000Y-80600000D01*
X165950000Y-100050000D02*
X154520937Y-100050000D01*
%TO.N,Net-(D3-K)*%
X169620000Y-88500000D02*
X166500000Y-88500000D01*
X118100000Y-92300000D02*
X116000000Y-94400000D01*
X174820000Y-83300000D02*
X169620000Y-88500000D01*
X166500000Y-88500000D02*
X162700000Y-92300000D01*
X162700000Y-92300000D02*
X118100000Y-92300000D01*
%TD*%
%TA.AperFunction,Conductor*%
%TO.N,GND*%
G36*
X151819730Y-96070185D02*
G01*
X151840372Y-96086819D01*
X152553554Y-96800000D01*
X152547339Y-96800000D01*
X152445606Y-96827259D01*
X152354394Y-96879920D01*
X152279920Y-96954394D01*
X152227259Y-97045606D01*
X152200000Y-97147339D01*
X152200000Y-97153553D01*
X151520524Y-96474077D01*
X151482719Y-96477053D01*
X151414341Y-96462689D01*
X151364584Y-96413638D01*
X151355285Y-96392444D01*
X151334814Y-96330666D01*
X151278641Y-96239595D01*
X151260202Y-96172204D01*
X151281125Y-96105541D01*
X151334767Y-96060771D01*
X151384181Y-96050500D01*
X151752691Y-96050500D01*
X151819730Y-96070185D01*
G37*
%TD.AperFunction*%
%TA.AperFunction,Conductor*%
G36*
X187542539Y-74520185D02*
G01*
X187588294Y-74572989D01*
X187599500Y-74624500D01*
X187599500Y-129275500D01*
X187579815Y-129342539D01*
X187527011Y-129388294D01*
X187475500Y-129399500D01*
X97324500Y-129399500D01*
X97257461Y-129379815D01*
X97211706Y-129327011D01*
X97200500Y-129275500D01*
X97200500Y-121068872D01*
X129769500Y-121068872D01*
X129769500Y-121331127D01*
X129796123Y-121533339D01*
X129803730Y-121591116D01*
X129871602Y-121844418D01*
X129871605Y-121844428D01*
X129971953Y-122086690D01*
X129971958Y-122086700D01*
X130103075Y-122313803D01*
X130262718Y-122521851D01*
X130262726Y-122521860D01*
X130448140Y-122707274D01*
X130448148Y-122707281D01*
X130656196Y-122866924D01*
X130883299Y-122998041D01*
X130883309Y-122998046D01*
X131125571Y-123098394D01*
X131125581Y-123098398D01*
X131378884Y-123166270D01*
X131638880Y-123200500D01*
X131638887Y-123200500D01*
X131901113Y-123200500D01*
X131901120Y-123200500D01*
X132161116Y-123166270D01*
X132414419Y-123098398D01*
X132656697Y-122998043D01*
X132883803Y-122866924D01*
X133091851Y-122707282D01*
X133091855Y-122707277D01*
X133091860Y-122707274D01*
X133277274Y-122521860D01*
X133277277Y-122521855D01*
X133277282Y-122521851D01*
X133436924Y-122313803D01*
X133568043Y-122086697D01*
X133668398Y-121844419D01*
X133736270Y-121591116D01*
X133770500Y-121331120D01*
X133770500Y-121068880D01*
X133770499Y-121068872D01*
X139929500Y-121068872D01*
X139929500Y-121331127D01*
X139956123Y-121533339D01*
X139963730Y-121591116D01*
X140031602Y-121844418D01*
X140031605Y-121844428D01*
X140131953Y-122086690D01*
X140131958Y-122086700D01*
X140263075Y-122313803D01*
X140422718Y-122521851D01*
X140422726Y-122521860D01*
X140608140Y-122707274D01*
X140608148Y-122707281D01*
X140816196Y-122866924D01*
X141043299Y-122998041D01*
X141043309Y-122998046D01*
X141285571Y-123098394D01*
X141285581Y-123098398D01*
X141538884Y-123166270D01*
X141798880Y-123200500D01*
X141798887Y-123200500D01*
X142061113Y-123200500D01*
X142061120Y-123200500D01*
X142321116Y-123166270D01*
X142574419Y-123098398D01*
X142816697Y-122998043D01*
X143043803Y-122866924D01*
X143251851Y-122707282D01*
X143251855Y-122707277D01*
X143251860Y-122707274D01*
X143437274Y-122521860D01*
X143437277Y-122521855D01*
X143437282Y-122521851D01*
X143596924Y-122313803D01*
X143728043Y-122086697D01*
X143828398Y-121844419D01*
X143896270Y-121591116D01*
X143930500Y-121331120D01*
X143930500Y-121068880D01*
X143896270Y-120808884D01*
X143828398Y-120555581D01*
X143805382Y-120500016D01*
X143728046Y-120313309D01*
X143728041Y-120313299D01*
X143596924Y-120086196D01*
X143437281Y-119878148D01*
X143437274Y-119878140D01*
X143251860Y-119692726D01*
X143251851Y-119692718D01*
X143043803Y-119533075D01*
X142816700Y-119401958D01*
X142816690Y-119401953D01*
X142574428Y-119301605D01*
X142574421Y-119301603D01*
X142574419Y-119301602D01*
X142321116Y-119233730D01*
X142263339Y-119226123D01*
X142061127Y-119199500D01*
X142061120Y-119199500D01*
X141798880Y-119199500D01*
X141798872Y-119199500D01*
X141567772Y-119229926D01*
X141538884Y-119233730D01*
X141358685Y-119282014D01*
X141285581Y-119301602D01*
X141285571Y-119301605D01*
X141043309Y-119401953D01*
X141043299Y-119401958D01*
X140816196Y-119533075D01*
X140608148Y-119692718D01*
X140422718Y-119878148D01*
X140263075Y-120086196D01*
X140131958Y-120313299D01*
X140131953Y-120313309D01*
X140031605Y-120555571D01*
X140031602Y-120555581D01*
X139974328Y-120769334D01*
X139963730Y-120808885D01*
X139929500Y-121068872D01*
X133770499Y-121068872D01*
X133736270Y-120808884D01*
X133668398Y-120555581D01*
X133645382Y-120500016D01*
X133568046Y-120313309D01*
X133568041Y-120313299D01*
X133436924Y-120086196D01*
X133277281Y-119878148D01*
X133277274Y-119878140D01*
X133091860Y-119692726D01*
X133091851Y-119692718D01*
X132883803Y-119533075D01*
X132656700Y-119401958D01*
X132656690Y-119401953D01*
X132414428Y-119301605D01*
X132414421Y-119301603D01*
X132414419Y-119301602D01*
X132161116Y-119233730D01*
X132103339Y-119226123D01*
X131901127Y-119199500D01*
X131901120Y-119199500D01*
X131638880Y-119199500D01*
X131638872Y-119199500D01*
X131407772Y-119229926D01*
X131378884Y-119233730D01*
X131198685Y-119282014D01*
X131125581Y-119301602D01*
X131125571Y-119301605D01*
X130883309Y-119401953D01*
X130883299Y-119401958D01*
X130656196Y-119533075D01*
X130448148Y-119692718D01*
X130262718Y-119878148D01*
X130103075Y-120086196D01*
X129971958Y-120313299D01*
X129971953Y-120313309D01*
X129871605Y-120555571D01*
X129871602Y-120555581D01*
X129814328Y-120769334D01*
X129803730Y-120808885D01*
X129769500Y-121068872D01*
X97200500Y-121068872D01*
X97200500Y-118299983D01*
X153899500Y-118299983D01*
X153899500Y-120500001D01*
X153899501Y-120500018D01*
X153910000Y-120602796D01*
X153910001Y-120602799D01*
X153958885Y-120750319D01*
X153965186Y-120769334D01*
X154057288Y-120918656D01*
X154181344Y-121042712D01*
X154330666Y-121134814D01*
X154497203Y-121189999D01*
X154599991Y-121200500D01*
X156800008Y-121200499D01*
X156902797Y-121189999D01*
X157069334Y-121134814D01*
X157218656Y-121042712D01*
X157342712Y-120918656D01*
X157434814Y-120769334D01*
X157489999Y-120602797D01*
X157500500Y-120500009D01*
X157500499Y-119282014D01*
X158900000Y-119282014D01*
X158900000Y-119517985D01*
X158930799Y-119751914D01*
X158991870Y-119979837D01*
X159082160Y-120197819D01*
X159082165Y-120197828D01*
X159200144Y-120402171D01*
X159200145Y-120402172D01*
X159262721Y-120483723D01*
X160098958Y-119647487D01*
X160123978Y-119707890D01*
X160195112Y-119814351D01*
X160285649Y-119904888D01*
X160392110Y-119976022D01*
X160452511Y-120001041D01*
X159616275Y-120837277D01*
X159697827Y-120899854D01*
X159697828Y-120899855D01*
X159902171Y-121017834D01*
X159902180Y-121017839D01*
X160120163Y-121108129D01*
X160120161Y-121108129D01*
X160348085Y-121169200D01*
X160582014Y-121199999D01*
X160582029Y-121200000D01*
X160817971Y-121200000D01*
X160817985Y-121199999D01*
X161051914Y-121169200D01*
X161279837Y-121108129D01*
X161497819Y-121017839D01*
X161497828Y-121017834D01*
X161702181Y-120899850D01*
X161783723Y-120837279D01*
X161783723Y-120837276D01*
X160947487Y-120001041D01*
X161007890Y-119976022D01*
X161114351Y-119904888D01*
X161204888Y-119814351D01*
X161276022Y-119707890D01*
X161301041Y-119647488D01*
X162137276Y-120483723D01*
X162137279Y-120483723D01*
X162199850Y-120402181D01*
X162317834Y-120197828D01*
X162317839Y-120197819D01*
X162408129Y-119979837D01*
X162469200Y-119751914D01*
X162499999Y-119517985D01*
X162500000Y-119517971D01*
X162500000Y-119282028D01*
X162499999Y-119282014D01*
X162469200Y-119048085D01*
X162408129Y-118820162D01*
X162317839Y-118602180D01*
X162317834Y-118602171D01*
X162199855Y-118397828D01*
X162199854Y-118397827D01*
X162137277Y-118316275D01*
X161301041Y-119152511D01*
X161276022Y-119092110D01*
X161204888Y-118985649D01*
X161114351Y-118895112D01*
X161007890Y-118823978D01*
X160947488Y-118798958D01*
X161783723Y-117962721D01*
X161702172Y-117900145D01*
X161702171Y-117900144D01*
X161497828Y-117782165D01*
X161497819Y-117782160D01*
X161279836Y-117691870D01*
X161279838Y-117691870D01*
X161051914Y-117630799D01*
X160817985Y-117600000D01*
X160582014Y-117600000D01*
X160348085Y-117630799D01*
X160120162Y-117691870D01*
X159902180Y-117782160D01*
X159902171Y-117782165D01*
X159697828Y-117900144D01*
X159697818Y-117900150D01*
X159616275Y-117962720D01*
X159616275Y-117962721D01*
X160452512Y-118798958D01*
X160392110Y-118823978D01*
X160285649Y-118895112D01*
X160195112Y-118985649D01*
X160123978Y-119092110D01*
X160098958Y-119152511D01*
X159262721Y-118316275D01*
X159262720Y-118316275D01*
X159200150Y-118397818D01*
X159200144Y-118397828D01*
X159082165Y-118602171D01*
X159082160Y-118602180D01*
X158991870Y-118820162D01*
X158930799Y-119048085D01*
X158900000Y-119282014D01*
X157500499Y-119282014D01*
X157500499Y-118299992D01*
X157489999Y-118197203D01*
X157434814Y-118030666D01*
X157342712Y-117881344D01*
X157218656Y-117757288D01*
X157069334Y-117665186D01*
X156902797Y-117610001D01*
X156902795Y-117610000D01*
X156800010Y-117599500D01*
X154599998Y-117599500D01*
X154599981Y-117599501D01*
X154497203Y-117610000D01*
X154497200Y-117610001D01*
X154330668Y-117665185D01*
X154330663Y-117665187D01*
X154181342Y-117757289D01*
X154057289Y-117881342D01*
X153965187Y-118030663D01*
X153965185Y-118030668D01*
X153958886Y-118049678D01*
X153910001Y-118197203D01*
X153910001Y-118197204D01*
X153910000Y-118197204D01*
X153899500Y-118299983D01*
X97200500Y-118299983D01*
X97200500Y-108505513D01*
X163759500Y-108505513D01*
X163759500Y-108694486D01*
X163789059Y-108881118D01*
X163847454Y-109060836D01*
X163933240Y-109229199D01*
X164044310Y-109382073D01*
X164177927Y-109515690D01*
X164330801Y-109626760D01*
X164410347Y-109667290D01*
X164499163Y-109712545D01*
X164499165Y-109712545D01*
X164499168Y-109712547D01*
X164595497Y-109743846D01*
X164678881Y-109770940D01*
X164865514Y-109800500D01*
X164865519Y-109800500D01*
X165054486Y-109800500D01*
X165241118Y-109770940D01*
X165420832Y-109712547D01*
X165589199Y-109626760D01*
X165742073Y-109515690D01*
X165875690Y-109382073D01*
X165986760Y-109229199D01*
X166072547Y-109060832D01*
X166130940Y-108881118D01*
X166144134Y-108797815D01*
X166160500Y-108694486D01*
X166160500Y-108505513D01*
X168839500Y-108505513D01*
X168839500Y-108694486D01*
X168869059Y-108881118D01*
X168927454Y-109060836D01*
X169013240Y-109229199D01*
X169124310Y-109382073D01*
X169257927Y-109515690D01*
X169410801Y-109626760D01*
X169490347Y-109667290D01*
X169579163Y-109712545D01*
X169579165Y-109712545D01*
X169579168Y-109712547D01*
X169675497Y-109743846D01*
X169758881Y-109770940D01*
X169945514Y-109800500D01*
X169945519Y-109800500D01*
X170134486Y-109800500D01*
X170321118Y-109770940D01*
X170500832Y-109712547D01*
X170669199Y-109626760D01*
X170822073Y-109515690D01*
X170955690Y-109382073D01*
X171066760Y-109229199D01*
X171152547Y-109060832D01*
X171210940Y-108881118D01*
X171224134Y-108797815D01*
X171240500Y-108694486D01*
X171240500Y-108505513D01*
X171210940Y-108318881D01*
X171152545Y-108139163D01*
X171066759Y-107970800D01*
X171035628Y-107927952D01*
X170955690Y-107817927D01*
X170822073Y-107684310D01*
X170669199Y-107573240D01*
X170500836Y-107487454D01*
X170321118Y-107429059D01*
X170134486Y-107399500D01*
X170134481Y-107399500D01*
X169945519Y-107399500D01*
X169945514Y-107399500D01*
X169758881Y-107429059D01*
X169579163Y-107487454D01*
X169410800Y-107573240D01*
X169323579Y-107636610D01*
X169257927Y-107684310D01*
X169257925Y-107684312D01*
X169257924Y-107684312D01*
X169124312Y-107817924D01*
X169124312Y-107817925D01*
X169124310Y-107817927D01*
X169085369Y-107871524D01*
X169013240Y-107970800D01*
X168927454Y-108139163D01*
X168869059Y-108318881D01*
X168839500Y-108505513D01*
X166160500Y-108505513D01*
X166130940Y-108318881D01*
X166072545Y-108139163D01*
X165986759Y-107970800D01*
X165955628Y-107927952D01*
X165875690Y-107817927D01*
X165742073Y-107684310D01*
X165589199Y-107573240D01*
X165420836Y-107487454D01*
X165241118Y-107429059D01*
X165054486Y-107399500D01*
X165054481Y-107399500D01*
X164865519Y-107399500D01*
X164865514Y-107399500D01*
X164678881Y-107429059D01*
X164499163Y-107487454D01*
X164330800Y-107573240D01*
X164243579Y-107636610D01*
X164177927Y-107684310D01*
X164177925Y-107684312D01*
X164177924Y-107684312D01*
X164044312Y-107817924D01*
X164044312Y-107817925D01*
X164044310Y-107817927D01*
X164005369Y-107871524D01*
X163933240Y-107970800D01*
X163847454Y-108139163D01*
X163789059Y-108318881D01*
X163759500Y-108505513D01*
X97200500Y-108505513D01*
X97200500Y-106652155D01*
X174760000Y-106652155D01*
X174760000Y-107350000D01*
X175784722Y-107350000D01*
X175740667Y-107426306D01*
X175710000Y-107540756D01*
X175710000Y-107659244D01*
X175740667Y-107773694D01*
X175784722Y-107850000D01*
X174760000Y-107850000D01*
X174760000Y-108547844D01*
X174766401Y-108607372D01*
X174766403Y-108607379D01*
X174816645Y-108742086D01*
X174816649Y-108742093D01*
X174902809Y-108857187D01*
X174902812Y-108857190D01*
X175017906Y-108943350D01*
X175017913Y-108943354D01*
X175152620Y-108993596D01*
X175152627Y-108993598D01*
X175212155Y-108999999D01*
X175212172Y-109000000D01*
X175910000Y-109000000D01*
X175910000Y-107975277D01*
X175986306Y-108019333D01*
X176100756Y-108050000D01*
X176219244Y-108050000D01*
X176333694Y-108019333D01*
X176410000Y-107975277D01*
X176410000Y-109000000D01*
X177107828Y-109000000D01*
X177107844Y-108999999D01*
X177167372Y-108993598D01*
X177167379Y-108993596D01*
X177302086Y-108943354D01*
X177302093Y-108943350D01*
X177417187Y-108857190D01*
X177417190Y-108857187D01*
X177503350Y-108742093D01*
X177503354Y-108742086D01*
X177533213Y-108662031D01*
X177575084Y-108606097D01*
X177640548Y-108581680D01*
X177708821Y-108596531D01*
X177737076Y-108617683D01*
X177787636Y-108668243D01*
X177787641Y-108668247D01*
X177943192Y-108781260D01*
X177965978Y-108797815D01*
X178082501Y-108857187D01*
X178162393Y-108897895D01*
X178162396Y-108897896D01*
X178267221Y-108931955D01*
X178372049Y-108966015D01*
X178589778Y-109000500D01*
X178589779Y-109000500D01*
X178810221Y-109000500D01*
X178810222Y-109000500D01*
X179027951Y-108966015D01*
X179237606Y-108897895D01*
X179434022Y-108797815D01*
X179612365Y-108668242D01*
X179768242Y-108512365D01*
X179897815Y-108334022D01*
X179997895Y-108137606D01*
X180066015Y-107927951D01*
X180100500Y-107710222D01*
X180100500Y-107489778D01*
X180066015Y-107272049D01*
X180031955Y-107167221D01*
X179997896Y-107062396D01*
X179997895Y-107062393D01*
X179963237Y-106994375D01*
X179897815Y-106865978D01*
X179881260Y-106843192D01*
X179768247Y-106687641D01*
X179768243Y-106687636D01*
X179612363Y-106531756D01*
X179612358Y-106531752D01*
X179434025Y-106402187D01*
X179434024Y-106402186D01*
X179434022Y-106402185D01*
X179363534Y-106366269D01*
X179237606Y-106302104D01*
X179237603Y-106302103D01*
X179027952Y-106233985D01*
X178919086Y-106216742D01*
X178810222Y-106199500D01*
X178589778Y-106199500D01*
X178517201Y-106210995D01*
X178372047Y-106233985D01*
X178162396Y-106302103D01*
X178162393Y-106302104D01*
X177965974Y-106402187D01*
X177787641Y-106531752D01*
X177787636Y-106531756D01*
X177737075Y-106582317D01*
X177675752Y-106615801D01*
X177606060Y-106610816D01*
X177550127Y-106568945D01*
X177533213Y-106537968D01*
X177503354Y-106457913D01*
X177503350Y-106457906D01*
X177417190Y-106342812D01*
X177417187Y-106342809D01*
X177302093Y-106256649D01*
X177302086Y-106256645D01*
X177167379Y-106206403D01*
X177167372Y-106206401D01*
X177107844Y-106200000D01*
X176410000Y-106200000D01*
X176410000Y-107224722D01*
X176333694Y-107180667D01*
X176219244Y-107150000D01*
X176100756Y-107150000D01*
X175986306Y-107180667D01*
X175910000Y-107224722D01*
X175910000Y-106200000D01*
X175212155Y-106200000D01*
X175152627Y-106206401D01*
X175152620Y-106206403D01*
X175017913Y-106256645D01*
X175017906Y-106256649D01*
X174902812Y-106342809D01*
X174902809Y-106342812D01*
X174816649Y-106457906D01*
X174816645Y-106457913D01*
X174766403Y-106592620D01*
X174766401Y-106592627D01*
X174760000Y-106652155D01*
X97200500Y-106652155D01*
X97200500Y-104268872D01*
X113999500Y-104268872D01*
X113999500Y-104531127D01*
X114026123Y-104733339D01*
X114033730Y-104791116D01*
X114101602Y-105044418D01*
X114101605Y-105044428D01*
X114201953Y-105286690D01*
X114201958Y-105286700D01*
X114333075Y-105513803D01*
X114492718Y-105721851D01*
X114492726Y-105721860D01*
X114678140Y-105907274D01*
X114678148Y-105907281D01*
X114886196Y-106066924D01*
X115113299Y-106198041D01*
X115113309Y-106198046D01*
X115355571Y-106298394D01*
X115355581Y-106298398D01*
X115608884Y-106366270D01*
X115868880Y-106400500D01*
X115868887Y-106400500D01*
X116131113Y-106400500D01*
X116131120Y-106400500D01*
X116391116Y-106366270D01*
X116644419Y-106298398D01*
X116866519Y-106206401D01*
X116886690Y-106198046D01*
X116886691Y-106198045D01*
X116886697Y-106198043D01*
X117113803Y-106066924D01*
X117321851Y-105907282D01*
X117321855Y-105907277D01*
X117321860Y-105907274D01*
X117507274Y-105721860D01*
X117507277Y-105721855D01*
X117507282Y-105721851D01*
X117666924Y-105513803D01*
X117798043Y-105286697D01*
X117898398Y-105044419D01*
X117966270Y-104791116D01*
X118000500Y-104531120D01*
X118000500Y-104268880D01*
X118000499Y-104268872D01*
X133999500Y-104268872D01*
X133999500Y-104531127D01*
X134026123Y-104733339D01*
X134033730Y-104791116D01*
X134101602Y-105044418D01*
X134101605Y-105044428D01*
X134201953Y-105286690D01*
X134201958Y-105286700D01*
X134333075Y-105513803D01*
X134492718Y-105721851D01*
X134492726Y-105721860D01*
X134678140Y-105907274D01*
X134678148Y-105907281D01*
X134886196Y-106066924D01*
X135113299Y-106198041D01*
X135113309Y-106198046D01*
X135355571Y-106298394D01*
X135355581Y-106298398D01*
X135608884Y-106366270D01*
X135868880Y-106400500D01*
X135868887Y-106400500D01*
X136131113Y-106400500D01*
X136131120Y-106400500D01*
X136391116Y-106366270D01*
X136644419Y-106298398D01*
X136866519Y-106206401D01*
X136886690Y-106198046D01*
X136886691Y-106198045D01*
X136886697Y-106198043D01*
X137113803Y-106066924D01*
X137321851Y-105907282D01*
X137321855Y-105907277D01*
X137321860Y-105907274D01*
X137507274Y-105721860D01*
X137507277Y-105721855D01*
X137507282Y-105721851D01*
X137666924Y-105513803D01*
X137798043Y-105286697D01*
X137898398Y-105044419D01*
X137966270Y-104791116D01*
X138000500Y-104531120D01*
X138000500Y-104268880D01*
X137966270Y-104008884D01*
X137898398Y-103755581D01*
X137898394Y-103755571D01*
X137798046Y-103513309D01*
X137798041Y-103513299D01*
X137666924Y-103286196D01*
X137507281Y-103078148D01*
X137507274Y-103078140D01*
X137321860Y-102892726D01*
X137321851Y-102892718D01*
X137113803Y-102733075D01*
X136886700Y-102601958D01*
X136886690Y-102601953D01*
X136644428Y-102501605D01*
X136644421Y-102501603D01*
X136644419Y-102501602D01*
X136391116Y-102433730D01*
X136333339Y-102426123D01*
X136131127Y-102399500D01*
X136131120Y-102399500D01*
X135868880Y-102399500D01*
X135868872Y-102399500D01*
X135637772Y-102429926D01*
X135608884Y-102433730D01*
X135355581Y-102501602D01*
X135355571Y-102501605D01*
X135113309Y-102601953D01*
X135113299Y-102601958D01*
X134886196Y-102733075D01*
X134678148Y-102892718D01*
X134492718Y-103078148D01*
X134333075Y-103286196D01*
X134201958Y-103513299D01*
X134201953Y-103513309D01*
X134101605Y-103755571D01*
X134101602Y-103755581D01*
X134033730Y-104008885D01*
X133999500Y-104268872D01*
X118000499Y-104268872D01*
X117966270Y-104008884D01*
X117898398Y-103755581D01*
X117898394Y-103755571D01*
X117798046Y-103513309D01*
X117798041Y-103513299D01*
X117666924Y-103286196D01*
X117507281Y-103078148D01*
X117507274Y-103078140D01*
X117321860Y-102892726D01*
X117321851Y-102892718D01*
X117113803Y-102733075D01*
X116886700Y-102601958D01*
X116886690Y-102601953D01*
X116644428Y-102501605D01*
X116644421Y-102501603D01*
X116644419Y-102501602D01*
X116391116Y-102433730D01*
X116333339Y-102426123D01*
X116131127Y-102399500D01*
X116131120Y-102399500D01*
X115868880Y-102399500D01*
X115868872Y-102399500D01*
X115637772Y-102429926D01*
X115608884Y-102433730D01*
X115355581Y-102501602D01*
X115355571Y-102501605D01*
X115113309Y-102601953D01*
X115113299Y-102601958D01*
X114886196Y-102733075D01*
X114678148Y-102892718D01*
X114492718Y-103078148D01*
X114333075Y-103286196D01*
X114201958Y-103513299D01*
X114201953Y-103513309D01*
X114101605Y-103755571D01*
X114101602Y-103755581D01*
X114033730Y-104008885D01*
X113999500Y-104268872D01*
X97200500Y-104268872D01*
X97200500Y-99081995D01*
X101099500Y-99081995D01*
X101099500Y-99318004D01*
X101099501Y-99318020D01*
X101130306Y-99552010D01*
X101191394Y-99779993D01*
X101281714Y-99998045D01*
X101281719Y-99998056D01*
X101340866Y-100100500D01*
X101399727Y-100202450D01*
X101399729Y-100202453D01*
X101399730Y-100202454D01*
X101543406Y-100389697D01*
X101543412Y-100389704D01*
X101710295Y-100556587D01*
X101710301Y-100556592D01*
X101897550Y-100700273D01*
X101989834Y-100753553D01*
X102101943Y-100818280D01*
X102101948Y-100818282D01*
X102101951Y-100818284D01*
X102320007Y-100908606D01*
X102547986Y-100969693D01*
X102781989Y-101000500D01*
X102781996Y-101000500D01*
X103018004Y-101000500D01*
X103018011Y-101000500D01*
X103252014Y-100969693D01*
X103479993Y-100908606D01*
X103698049Y-100818284D01*
X103902450Y-100700273D01*
X104089699Y-100556592D01*
X104256592Y-100389699D01*
X104400273Y-100202450D01*
X104518284Y-99998049D01*
X104608606Y-99779993D01*
X104669693Y-99552014D01*
X104700500Y-99318011D01*
X104700500Y-99268872D01*
X113999500Y-99268872D01*
X113999500Y-99531127D01*
X114017697Y-99669336D01*
X114033730Y-99791116D01*
X114101602Y-100044418D01*
X114101605Y-100044428D01*
X114201953Y-100286690D01*
X114201958Y-100286700D01*
X114333075Y-100513803D01*
X114492718Y-100721851D01*
X114492726Y-100721860D01*
X114678140Y-100907274D01*
X114678148Y-100907281D01*
X114678149Y-100907282D01*
X114726554Y-100944424D01*
X114886196Y-101066924D01*
X115113299Y-101198041D01*
X115113309Y-101198046D01*
X115355571Y-101298394D01*
X115355581Y-101298398D01*
X115608884Y-101366270D01*
X115868880Y-101400500D01*
X115868887Y-101400500D01*
X116131113Y-101400500D01*
X116131120Y-101400500D01*
X116391116Y-101366270D01*
X116644419Y-101298398D01*
X116886697Y-101198043D01*
X117113803Y-101066924D01*
X117321851Y-100907282D01*
X117321855Y-100907277D01*
X117321860Y-100907274D01*
X117507274Y-100721860D01*
X117507277Y-100721855D01*
X117507282Y-100721851D01*
X117666924Y-100513803D01*
X117798043Y-100286697D01*
X117815064Y-100245606D01*
X117875169Y-100100498D01*
X117898398Y-100044419D01*
X117966270Y-99791116D01*
X118000500Y-99531120D01*
X118000500Y-99268880D01*
X118000499Y-99268872D01*
X133999500Y-99268872D01*
X133999500Y-99531127D01*
X134017697Y-99669336D01*
X134033730Y-99791116D01*
X134101602Y-100044418D01*
X134101605Y-100044428D01*
X134201953Y-100286690D01*
X134201958Y-100286700D01*
X134333075Y-100513803D01*
X134492718Y-100721851D01*
X134492726Y-100721860D01*
X134678140Y-100907274D01*
X134678148Y-100907281D01*
X134678149Y-100907282D01*
X134726554Y-100944424D01*
X134886196Y-101066924D01*
X135113299Y-101198041D01*
X135113309Y-101198046D01*
X135355571Y-101298394D01*
X135355581Y-101298398D01*
X135608884Y-101366270D01*
X135868880Y-101400500D01*
X135868887Y-101400500D01*
X136131113Y-101400500D01*
X136131120Y-101400500D01*
X136391116Y-101366270D01*
X136644419Y-101298398D01*
X136886697Y-101198043D01*
X137113803Y-101066924D01*
X137321851Y-100907282D01*
X137321855Y-100907277D01*
X137321860Y-100907274D01*
X137507274Y-100721860D01*
X137507277Y-100721855D01*
X137507282Y-100721851D01*
X137666924Y-100513803D01*
X137798043Y-100286697D01*
X137815064Y-100245606D01*
X137875169Y-100100498D01*
X137898398Y-100044419D01*
X137966270Y-99791116D01*
X138000500Y-99531120D01*
X138000500Y-99268880D01*
X137966270Y-99008884D01*
X137898398Y-98755581D01*
X137894984Y-98747339D01*
X137798046Y-98513309D01*
X137798041Y-98513299D01*
X137666924Y-98286196D01*
X137507281Y-98078148D01*
X137507274Y-98078140D01*
X137321860Y-97892726D01*
X137321851Y-97892718D01*
X137113803Y-97733075D01*
X136886700Y-97601958D01*
X136886690Y-97601953D01*
X136644428Y-97501605D01*
X136644421Y-97501603D01*
X136644419Y-97501602D01*
X136391116Y-97433730D01*
X136333339Y-97426123D01*
X136131127Y-97399500D01*
X136131120Y-97399500D01*
X135868880Y-97399500D01*
X135868872Y-97399500D01*
X135637772Y-97429926D01*
X135608884Y-97433730D01*
X135458127Y-97474125D01*
X135355581Y-97501602D01*
X135355571Y-97501605D01*
X135113309Y-97601953D01*
X135113299Y-97601958D01*
X134886196Y-97733075D01*
X134678148Y-97892718D01*
X134492718Y-98078148D01*
X134333075Y-98286196D01*
X134201958Y-98513299D01*
X134201953Y-98513309D01*
X134101605Y-98755571D01*
X134101602Y-98755581D01*
X134048331Y-98954394D01*
X134033730Y-99008885D01*
X133999500Y-99268872D01*
X118000499Y-99268872D01*
X117966270Y-99008884D01*
X117898398Y-98755581D01*
X117894984Y-98747339D01*
X117798046Y-98513309D01*
X117798041Y-98513299D01*
X117666924Y-98286196D01*
X117507281Y-98078148D01*
X117507274Y-98078140D01*
X117321860Y-97892726D01*
X117321851Y-97892718D01*
X117113803Y-97733075D01*
X116886700Y-97601958D01*
X116886690Y-97601953D01*
X116644428Y-97501605D01*
X116644421Y-97501603D01*
X116644419Y-97501602D01*
X116391116Y-97433730D01*
X116333339Y-97426123D01*
X116131127Y-97399500D01*
X116131120Y-97399500D01*
X115868880Y-97399500D01*
X115868872Y-97399500D01*
X115637772Y-97429926D01*
X115608884Y-97433730D01*
X115458127Y-97474125D01*
X115355581Y-97501602D01*
X115355571Y-97501605D01*
X115113309Y-97601953D01*
X115113299Y-97601958D01*
X114886196Y-97733075D01*
X114678148Y-97892718D01*
X114492718Y-98078148D01*
X114333075Y-98286196D01*
X114201958Y-98513299D01*
X114201953Y-98513309D01*
X114101605Y-98755571D01*
X114101602Y-98755581D01*
X114048331Y-98954394D01*
X114033730Y-99008885D01*
X113999500Y-99268872D01*
X104700500Y-99268872D01*
X104700500Y-99081989D01*
X104669693Y-98847986D01*
X104608606Y-98620007D01*
X104518284Y-98401951D01*
X104518282Y-98401948D01*
X104518280Y-98401943D01*
X104451453Y-98286197D01*
X104400273Y-98197550D01*
X104256592Y-98010301D01*
X104256587Y-98010295D01*
X104089704Y-97843412D01*
X104089697Y-97843406D01*
X103902454Y-97699730D01*
X103902453Y-97699729D01*
X103902450Y-97699727D01*
X103820957Y-97652677D01*
X103698056Y-97581719D01*
X103698045Y-97581714D01*
X103479993Y-97491394D01*
X103252010Y-97430306D01*
X103018020Y-97399501D01*
X103018017Y-97399500D01*
X103018011Y-97399500D01*
X102781989Y-97399500D01*
X102781983Y-97399500D01*
X102781979Y-97399501D01*
X102547989Y-97430306D01*
X102320006Y-97491394D01*
X102101954Y-97581714D01*
X102101943Y-97581719D01*
X101897545Y-97699730D01*
X101710302Y-97843406D01*
X101710295Y-97843412D01*
X101543412Y-98010295D01*
X101543406Y-98010302D01*
X101399730Y-98197545D01*
X101281719Y-98401943D01*
X101281714Y-98401954D01*
X101191394Y-98620006D01*
X101130306Y-98847989D01*
X101099501Y-99081979D01*
X101099500Y-99081995D01*
X97200500Y-99081995D01*
X97200500Y-93099983D01*
X101099500Y-93099983D01*
X101099500Y-95300001D01*
X101099501Y-95300018D01*
X101110000Y-95402796D01*
X101110001Y-95402799D01*
X101146785Y-95513803D01*
X101165186Y-95569334D01*
X101257288Y-95718656D01*
X101381344Y-95842712D01*
X101530666Y-95934814D01*
X101697203Y-95989999D01*
X101799991Y-96000500D01*
X104000008Y-96000499D01*
X104102797Y-95989999D01*
X104269334Y-95934814D01*
X104418656Y-95842712D01*
X104542712Y-95718656D01*
X104634814Y-95569334D01*
X104689999Y-95402797D01*
X104700500Y-95300009D01*
X104700499Y-94268872D01*
X113999500Y-94268872D01*
X113999500Y-94531127D01*
X114006112Y-94581344D01*
X114033730Y-94791116D01*
X114089698Y-94999991D01*
X114101602Y-95044418D01*
X114101605Y-95044428D01*
X114201953Y-95286690D01*
X114201958Y-95286700D01*
X114333075Y-95513803D01*
X114492718Y-95721851D01*
X114492726Y-95721860D01*
X114678140Y-95907274D01*
X114678148Y-95907281D01*
X114886196Y-96066924D01*
X115113299Y-96198041D01*
X115113309Y-96198046D01*
X115355571Y-96298394D01*
X115355581Y-96298398D01*
X115608884Y-96366270D01*
X115868880Y-96400500D01*
X115868887Y-96400500D01*
X116131113Y-96400500D01*
X116131120Y-96400500D01*
X116391116Y-96366270D01*
X116644419Y-96298398D01*
X116886697Y-96198043D01*
X117113803Y-96066924D01*
X117321851Y-95907282D01*
X117321855Y-95907277D01*
X117321860Y-95907274D01*
X117507274Y-95721860D01*
X117507277Y-95721855D01*
X117507282Y-95721851D01*
X117666924Y-95513803D01*
X117798043Y-95286697D01*
X117898398Y-95044419D01*
X117966270Y-94791116D01*
X118000500Y-94531120D01*
X118000500Y-94268880D01*
X117966270Y-94008884D01*
X117898398Y-93755581D01*
X117873688Y-93695927D01*
X117866220Y-93626463D01*
X117897494Y-93563983D01*
X117900541Y-93560825D01*
X118374548Y-93086819D01*
X118435871Y-93053334D01*
X118462229Y-93050500D01*
X134262486Y-93050500D01*
X134329525Y-93070185D01*
X134375280Y-93122989D01*
X134385224Y-93192147D01*
X134360861Y-93249987D01*
X134333075Y-93286196D01*
X134201958Y-93513299D01*
X134201953Y-93513309D01*
X134101605Y-93755571D01*
X134101602Y-93755581D01*
X134038803Y-93989954D01*
X134033730Y-94008885D01*
X133999500Y-94268872D01*
X133999500Y-94531127D01*
X134006112Y-94581344D01*
X134033730Y-94791116D01*
X134089698Y-94999991D01*
X134101602Y-95044418D01*
X134101605Y-95044428D01*
X134201953Y-95286690D01*
X134201958Y-95286700D01*
X134333075Y-95513803D01*
X134492718Y-95721851D01*
X134492726Y-95721860D01*
X134678140Y-95907274D01*
X134678148Y-95907281D01*
X134886196Y-96066924D01*
X135113299Y-96198041D01*
X135113309Y-96198046D01*
X135355571Y-96298394D01*
X135355581Y-96298398D01*
X135608884Y-96366270D01*
X135868880Y-96400500D01*
X135868887Y-96400500D01*
X136131113Y-96400500D01*
X136131120Y-96400500D01*
X136391116Y-96366270D01*
X136644419Y-96298398D01*
X136886697Y-96198043D01*
X137113803Y-96066924D01*
X137321851Y-95907282D01*
X137321855Y-95907277D01*
X137321860Y-95907274D01*
X137507274Y-95721860D01*
X137507277Y-95721855D01*
X137507282Y-95721851D01*
X137666924Y-95513803D01*
X137798043Y-95286697D01*
X137898398Y-95044419D01*
X137910305Y-94999983D01*
X148128563Y-94999983D01*
X148128563Y-96200001D01*
X148128564Y-96200018D01*
X148139063Y-96302796D01*
X148139064Y-96302799D01*
X148194248Y-96469331D01*
X148194250Y-96469336D01*
X148209978Y-96494835D01*
X148286351Y-96618656D01*
X148410407Y-96742712D01*
X148559729Y-96834814D01*
X148714505Y-96886101D01*
X148771949Y-96925874D01*
X148798772Y-96990389D01*
X148799500Y-97003807D01*
X148799500Y-97800001D01*
X148799501Y-97800019D01*
X148810000Y-97902796D01*
X148810001Y-97902799D01*
X148865185Y-98069331D01*
X148865187Y-98069336D01*
X148870622Y-98078148D01*
X148957288Y-98218656D01*
X149081344Y-98342712D01*
X149230666Y-98434814D01*
X149397203Y-98489999D01*
X149499991Y-98500500D01*
X150700008Y-98500499D01*
X150802797Y-98489999D01*
X150969334Y-98434814D01*
X151118656Y-98342712D01*
X151242712Y-98218656D01*
X151334814Y-98069334D01*
X151358102Y-97999054D01*
X151362110Y-97991050D01*
X151380060Y-97971772D01*
X151395055Y-97950116D01*
X151403495Y-97946606D01*
X151409725Y-97939917D01*
X151435249Y-97933404D01*
X151459571Y-97923292D01*
X151475834Y-97923048D01*
X151477425Y-97922643D01*
X151478523Y-97923008D01*
X151482719Y-97922946D01*
X151520525Y-97925921D01*
X152200000Y-97246446D01*
X152200000Y-97252661D01*
X152227259Y-97354394D01*
X152279920Y-97445606D01*
X152354394Y-97520080D01*
X152445606Y-97572741D01*
X152547339Y-97600000D01*
X152553553Y-97600000D01*
X151874076Y-98279474D01*
X151918646Y-98311857D01*
X151918648Y-98311858D01*
X151947824Y-98326723D01*
X151998621Y-98374697D01*
X152015417Y-98442517D01*
X152009464Y-98475522D01*
X152002946Y-98495582D01*
X151970937Y-98697682D01*
X151970937Y-98902317D01*
X152002946Y-99104417D01*
X152066181Y-99299031D01*
X152159078Y-99481350D01*
X152159084Y-99481359D01*
X152191460Y-99525921D01*
X152191461Y-99525922D01*
X152870937Y-98846446D01*
X152870937Y-98852661D01*
X152898196Y-98954394D01*
X152950857Y-99045606D01*
X153025331Y-99120080D01*
X153116543Y-99172741D01*
X153218276Y-99200000D01*
X153224490Y-99200000D01*
X152545013Y-99879474D01*
X152589587Y-99911859D01*
X152771905Y-100004755D01*
X152966519Y-100067990D01*
X153168620Y-100100000D01*
X153373254Y-100100000D01*
X153575354Y-100067990D01*
X153769968Y-100004755D01*
X153952286Y-99911859D01*
X153996858Y-99879474D01*
X153317384Y-99200000D01*
X153323598Y-99200000D01*
X153425331Y-99172741D01*
X153516543Y-99120080D01*
X153591017Y-99045606D01*
X153643678Y-98954394D01*
X153670937Y-98852661D01*
X153670937Y-98846447D01*
X154350411Y-99525921D01*
X154382796Y-99481349D01*
X154475692Y-99299031D01*
X154538927Y-99104417D01*
X154570937Y-98902317D01*
X154570937Y-98697682D01*
X154538927Y-98495582D01*
X154475692Y-98300968D01*
X154382796Y-98118650D01*
X154350411Y-98074077D01*
X154350411Y-98074076D01*
X153670937Y-98753551D01*
X153670937Y-98747339D01*
X153643678Y-98645606D01*
X153591017Y-98554394D01*
X153516543Y-98479920D01*
X153425331Y-98427259D01*
X153323598Y-98400000D01*
X153317383Y-98400000D01*
X153996859Y-97720524D01*
X153996858Y-97720523D01*
X153952296Y-97688147D01*
X153952277Y-97688135D01*
X153923109Y-97673273D01*
X153872313Y-97625299D01*
X153855518Y-97557478D01*
X153861474Y-97524468D01*
X153867990Y-97504413D01*
X153900000Y-97302317D01*
X153900000Y-97097682D01*
X153867990Y-96895582D01*
X153804755Y-96700968D01*
X153711859Y-96518650D01*
X153679474Y-96474077D01*
X153679474Y-96474076D01*
X153000000Y-97153553D01*
X153000000Y-97147339D01*
X152972741Y-97045606D01*
X152920080Y-96954394D01*
X152845606Y-96879920D01*
X152754394Y-96827259D01*
X152652661Y-96800000D01*
X152646446Y-96800000D01*
X153359628Y-96086819D01*
X153420951Y-96053334D01*
X153447309Y-96050500D01*
X162744882Y-96050500D01*
X162811921Y-96070185D01*
X162857676Y-96122989D01*
X162867620Y-96192147D01*
X162850421Y-96239594D01*
X162828988Y-96274344D01*
X162794250Y-96330663D01*
X162794248Y-96330668D01*
X162784534Y-96359983D01*
X162739064Y-96497203D01*
X162739064Y-96497204D01*
X162739063Y-96497204D01*
X162728563Y-96599983D01*
X162728563Y-97800001D01*
X162728564Y-97800018D01*
X162739063Y-97902796D01*
X162739064Y-97902799D01*
X162794248Y-98069331D01*
X162794250Y-98069336D01*
X162799685Y-98078148D01*
X162886351Y-98218656D01*
X163010407Y-98342712D01*
X163159729Y-98434814D01*
X163314505Y-98486101D01*
X163371949Y-98525874D01*
X163398772Y-98590389D01*
X163399500Y-98603807D01*
X163399500Y-99400001D01*
X163399501Y-99400019D01*
X163410000Y-99502796D01*
X163410001Y-99502799D01*
X163432857Y-99571772D01*
X163465186Y-99669334D01*
X163557288Y-99818656D01*
X163681344Y-99942712D01*
X163830666Y-100034814D01*
X163997203Y-100089999D01*
X164099991Y-100100500D01*
X165300008Y-100100499D01*
X165402797Y-100089999D01*
X165569334Y-100034814D01*
X165718656Y-99942712D01*
X165842712Y-99818656D01*
X165934814Y-99669334D01*
X165958102Y-99599054D01*
X165962110Y-99591050D01*
X165980060Y-99571772D01*
X165995055Y-99550116D01*
X166003495Y-99546606D01*
X166009725Y-99539917D01*
X166035249Y-99533404D01*
X166059571Y-99523292D01*
X166075834Y-99523048D01*
X166077425Y-99522643D01*
X166078523Y-99523008D01*
X166082719Y-99522946D01*
X166120525Y-99525921D01*
X166800000Y-98846446D01*
X166800000Y-98852661D01*
X166827259Y-98954394D01*
X166879920Y-99045606D01*
X166954394Y-99120080D01*
X167045606Y-99172741D01*
X167147339Y-99200000D01*
X167153553Y-99200000D01*
X166474076Y-99879474D01*
X166518646Y-99911857D01*
X166518648Y-99911858D01*
X166547824Y-99926723D01*
X166598621Y-99974697D01*
X166615417Y-100042517D01*
X166609464Y-100075522D01*
X166602946Y-100095582D01*
X166570937Y-100297682D01*
X166570937Y-100502317D01*
X166602946Y-100704417D01*
X166666181Y-100899031D01*
X166759078Y-101081350D01*
X166759084Y-101081359D01*
X166791460Y-101125921D01*
X166791461Y-101125922D01*
X167470937Y-100446446D01*
X167470937Y-100452661D01*
X167498196Y-100554394D01*
X167550857Y-100645606D01*
X167625331Y-100720080D01*
X167716543Y-100772741D01*
X167818276Y-100800000D01*
X167824490Y-100800000D01*
X167145013Y-101479474D01*
X167189587Y-101511859D01*
X167371905Y-101604755D01*
X167566519Y-101667990D01*
X167768620Y-101700000D01*
X167973254Y-101700000D01*
X168175354Y-101667990D01*
X168369968Y-101604755D01*
X168552286Y-101511859D01*
X168596858Y-101479474D01*
X167917384Y-100800000D01*
X167923598Y-100800000D01*
X168025331Y-100772741D01*
X168116543Y-100720080D01*
X168191017Y-100645606D01*
X168243678Y-100554394D01*
X168270937Y-100452661D01*
X168270937Y-100446448D01*
X168950411Y-101125922D01*
X168950411Y-101125921D01*
X168982796Y-101081349D01*
X169075692Y-100899031D01*
X169138927Y-100704417D01*
X169170937Y-100502317D01*
X169170937Y-100297682D01*
X169138927Y-100095582D01*
X169075692Y-99900968D01*
X168982796Y-99718650D01*
X168950411Y-99674077D01*
X168950411Y-99674076D01*
X168270937Y-100353551D01*
X168270937Y-100347339D01*
X168243678Y-100245606D01*
X168191017Y-100154394D01*
X168116543Y-100079920D01*
X168025331Y-100027259D01*
X167923598Y-100000000D01*
X167917383Y-100000000D01*
X168596859Y-99320524D01*
X168596858Y-99320523D01*
X168552296Y-99288147D01*
X168552277Y-99288135D01*
X168523109Y-99273273D01*
X168472313Y-99225299D01*
X168455518Y-99157478D01*
X168461474Y-99124468D01*
X168467990Y-99104413D01*
X168500000Y-98902317D01*
X168500000Y-98697682D01*
X168467990Y-98495582D01*
X168404755Y-98300968D01*
X168311859Y-98118650D01*
X168279474Y-98074077D01*
X168279474Y-98074076D01*
X167600000Y-98753553D01*
X167600000Y-98747339D01*
X167572741Y-98645606D01*
X167520080Y-98554394D01*
X167445606Y-98479920D01*
X167354394Y-98427259D01*
X167252661Y-98400000D01*
X167246446Y-98400000D01*
X167925922Y-97720524D01*
X167925921Y-97720523D01*
X167881359Y-97688147D01*
X167881350Y-97688141D01*
X167699031Y-97595244D01*
X167504417Y-97532009D01*
X167302317Y-97500000D01*
X167097683Y-97500000D01*
X166895582Y-97532009D01*
X166700968Y-97595244D01*
X166518644Y-97688143D01*
X166474077Y-97720523D01*
X166474077Y-97720524D01*
X167153554Y-98400000D01*
X167147339Y-98400000D01*
X167045606Y-98427259D01*
X166954394Y-98479920D01*
X166879920Y-98554394D01*
X166827259Y-98645606D01*
X166800000Y-98747339D01*
X166800000Y-98753553D01*
X166120524Y-98074077D01*
X166082719Y-98077053D01*
X166014341Y-98062689D01*
X165964584Y-98013638D01*
X165962110Y-98008949D01*
X165958101Y-98000942D01*
X165934814Y-97930666D01*
X165842712Y-97781344D01*
X165718656Y-97657288D01*
X165618066Y-97595244D01*
X165569336Y-97565187D01*
X165569331Y-97565185D01*
X165414558Y-97513898D01*
X165357113Y-97474125D01*
X165330290Y-97409609D01*
X165329562Y-97396192D01*
X165329562Y-96599998D01*
X165329561Y-96599981D01*
X165319062Y-96497203D01*
X165319061Y-96497200D01*
X165291371Y-96413638D01*
X165263877Y-96330666D01*
X165207704Y-96239595D01*
X165189265Y-96172204D01*
X165210188Y-96105541D01*
X165263830Y-96060771D01*
X165313244Y-96050500D01*
X175275501Y-96050500D01*
X175342540Y-96070185D01*
X175388295Y-96122989D01*
X175399501Y-96174500D01*
X175399501Y-96300376D01*
X175405908Y-96359983D01*
X175456202Y-96494828D01*
X175456206Y-96494835D01*
X175542452Y-96610044D01*
X175542455Y-96610047D01*
X175657664Y-96696293D01*
X175657671Y-96696297D01*
X175792517Y-96746591D01*
X175792516Y-96746591D01*
X175799444Y-96747335D01*
X175852127Y-96753000D01*
X177947872Y-96752999D01*
X178007483Y-96746591D01*
X178142331Y-96696296D01*
X178257546Y-96610046D01*
X178343796Y-96494831D01*
X178394091Y-96359983D01*
X178400500Y-96300373D01*
X178400499Y-94299628D01*
X178394091Y-94240017D01*
X178343796Y-94105169D01*
X178343795Y-94105168D01*
X178343793Y-94105164D01*
X178257547Y-93989955D01*
X178257544Y-93989952D01*
X178142335Y-93903706D01*
X178142326Y-93903701D01*
X178113974Y-93893127D01*
X178058040Y-93851257D01*
X178033622Y-93785792D01*
X178048473Y-93717519D01*
X178056988Y-93704059D01*
X178189788Y-93521276D01*
X178293582Y-93317570D01*
X178364234Y-93100128D01*
X178378509Y-93010000D01*
X177390748Y-93010000D01*
X177412518Y-92972292D01*
X177450000Y-92832409D01*
X177450000Y-92687591D01*
X177412518Y-92547708D01*
X177390748Y-92510000D01*
X178378509Y-92510000D01*
X178364234Y-92419871D01*
X178293582Y-92202429D01*
X178189788Y-91998723D01*
X178055402Y-91813757D01*
X177893742Y-91652097D01*
X177809135Y-91590626D01*
X177766470Y-91535296D01*
X177760491Y-91465682D01*
X177793097Y-91403887D01*
X177809125Y-91389999D01*
X177894066Y-91328286D01*
X178055786Y-91166566D01*
X178190217Y-90981538D01*
X178294048Y-90777758D01*
X178364722Y-90560245D01*
X178400500Y-90334354D01*
X178400500Y-90105646D01*
X178364722Y-89879755D01*
X178364721Y-89879751D01*
X178364721Y-89879750D01*
X178294049Y-89662244D01*
X178294048Y-89662242D01*
X178190217Y-89458462D01*
X178055786Y-89273434D01*
X177894066Y-89111714D01*
X177709038Y-88977283D01*
X177505255Y-88873450D01*
X177287748Y-88802778D01*
X177118326Y-88775944D01*
X177061854Y-88767000D01*
X176738146Y-88767000D01*
X176662849Y-88778926D01*
X176512253Y-88802778D01*
X176512250Y-88802778D01*
X176294744Y-88873450D01*
X176090961Y-88977283D01*
X175985396Y-89053980D01*
X175905934Y-89111714D01*
X175905932Y-89111716D01*
X175905931Y-89111716D01*
X175744216Y-89273431D01*
X175744216Y-89273432D01*
X175744214Y-89273434D01*
X175686480Y-89352896D01*
X175609783Y-89458461D01*
X175505950Y-89662244D01*
X175435278Y-89879750D01*
X175435278Y-89879753D01*
X175399500Y-90105646D01*
X175399500Y-90334353D01*
X175435278Y-90560246D01*
X175435278Y-90560249D01*
X175505950Y-90777755D01*
X175571947Y-90907281D01*
X175609783Y-90981538D01*
X175744214Y-91166566D01*
X175905934Y-91328286D01*
X175990864Y-91389991D01*
X176033529Y-91445321D01*
X176039508Y-91514935D01*
X176006902Y-91576730D01*
X175990864Y-91590627D01*
X175906257Y-91652097D01*
X175744597Y-91813757D01*
X175610211Y-91998723D01*
X175506417Y-92202429D01*
X175435765Y-92419871D01*
X175421491Y-92510000D01*
X176409252Y-92510000D01*
X176387482Y-92547708D01*
X176350000Y-92687591D01*
X176350000Y-92832409D01*
X176387482Y-92972292D01*
X176409252Y-93010000D01*
X175421491Y-93010000D01*
X175435765Y-93100128D01*
X175506417Y-93317570D01*
X175610213Y-93521279D01*
X175743011Y-93704060D01*
X175766491Y-93769866D01*
X175750666Y-93837920D01*
X175700560Y-93886615D01*
X175686026Y-93893127D01*
X175657671Y-93903702D01*
X175657664Y-93903706D01*
X175542455Y-93989952D01*
X175542452Y-93989955D01*
X175456206Y-94105164D01*
X175456202Y-94105171D01*
X175405908Y-94240017D01*
X175399501Y-94299616D01*
X175399501Y-94299623D01*
X175399500Y-94299635D01*
X175399500Y-94425500D01*
X175379815Y-94492539D01*
X175327011Y-94538294D01*
X175275500Y-94549500D01*
X150591293Y-94549500D01*
X150524254Y-94529815D01*
X150503612Y-94513181D01*
X150447720Y-94457289D01*
X150447719Y-94457288D01*
X150298397Y-94365186D01*
X150131860Y-94310001D01*
X150131858Y-94310000D01*
X150029073Y-94299500D01*
X148829061Y-94299500D01*
X148829044Y-94299501D01*
X148726266Y-94310000D01*
X148726263Y-94310001D01*
X148559731Y-94365185D01*
X148559726Y-94365187D01*
X148410405Y-94457289D01*
X148286352Y-94581342D01*
X148194250Y-94730663D01*
X148194249Y-94730666D01*
X148139064Y-94897203D01*
X148139064Y-94897204D01*
X148139063Y-94897204D01*
X148128563Y-94999983D01*
X137910305Y-94999983D01*
X137966270Y-94791116D01*
X138000500Y-94531120D01*
X138000500Y-94268880D01*
X137966270Y-94008884D01*
X137898398Y-93755581D01*
X137873691Y-93695932D01*
X137798046Y-93513309D01*
X137798041Y-93513299D01*
X137666924Y-93286196D01*
X137639139Y-93249987D01*
X137613944Y-93184818D01*
X137627982Y-93116373D01*
X137676795Y-93066383D01*
X137737514Y-93050500D01*
X162773920Y-93050500D01*
X162871462Y-93031096D01*
X162918913Y-93021658D01*
X163055495Y-92965084D01*
X163104729Y-92932186D01*
X163178416Y-92882952D01*
X166774548Y-89286818D01*
X166835871Y-89253334D01*
X166862229Y-89250500D01*
X169693920Y-89250500D01*
X169791462Y-89231096D01*
X169838913Y-89221658D01*
X169975495Y-89165084D01*
X170024729Y-89132186D01*
X170098416Y-89082952D01*
X174297186Y-84884179D01*
X174358507Y-84850696D01*
X174423181Y-84853930D01*
X174445215Y-84861090D01*
X174694038Y-84900500D01*
X174694039Y-84900500D01*
X174945961Y-84900500D01*
X174945962Y-84900500D01*
X175194785Y-84861090D01*
X175434379Y-84783241D01*
X175658845Y-84668870D01*
X175862656Y-84520793D01*
X176040793Y-84342656D01*
X176188870Y-84138845D01*
X176303241Y-83914379D01*
X176381090Y-83674785D01*
X176420500Y-83425962D01*
X176420500Y-83174038D01*
X176381090Y-82925215D01*
X176303241Y-82685621D01*
X176303239Y-82685618D01*
X176303239Y-82685616D01*
X176209480Y-82501605D01*
X176188870Y-82461155D01*
X176168945Y-82433730D01*
X176144426Y-82399982D01*
X183379500Y-82399982D01*
X183379500Y-84200017D01*
X183390000Y-84302796D01*
X183407098Y-84354394D01*
X183445186Y-84469335D01*
X183537288Y-84618656D01*
X183661344Y-84742712D01*
X183810665Y-84834814D01*
X183977202Y-84889999D01*
X184079990Y-84900500D01*
X184079995Y-84900500D01*
X185880005Y-84900500D01*
X185880010Y-84900500D01*
X185982798Y-84889999D01*
X186149335Y-84834814D01*
X186298656Y-84742712D01*
X186422712Y-84618656D01*
X186514814Y-84469335D01*
X186569999Y-84302798D01*
X186580500Y-84200010D01*
X186580500Y-82399990D01*
X186569999Y-82297202D01*
X186514814Y-82130665D01*
X186422712Y-81981344D01*
X186298656Y-81857288D01*
X186149335Y-81765186D01*
X185982798Y-81710001D01*
X185982796Y-81710000D01*
X185880017Y-81699500D01*
X185880010Y-81699500D01*
X184079990Y-81699500D01*
X184079982Y-81699500D01*
X183977203Y-81710000D01*
X183977202Y-81710001D01*
X183894669Y-81737349D01*
X183810667Y-81765185D01*
X183810662Y-81765187D01*
X183661342Y-81857289D01*
X183537289Y-81981342D01*
X183445187Y-82130662D01*
X183445185Y-82130667D01*
X183441194Y-82142712D01*
X183390001Y-82297202D01*
X183390001Y-82297203D01*
X183390000Y-82297203D01*
X183379500Y-82399982D01*
X176144426Y-82399982D01*
X176040798Y-82257350D01*
X176040794Y-82257345D01*
X175862654Y-82079205D01*
X175862649Y-82079201D01*
X175658848Y-81931132D01*
X175658847Y-81931131D01*
X175658845Y-81931130D01*
X175552713Y-81877053D01*
X175434383Y-81816760D01*
X175194785Y-81738910D01*
X175142735Y-81730666D01*
X174945962Y-81699500D01*
X174694038Y-81699500D01*
X174627738Y-81710001D01*
X174445214Y-81738910D01*
X174205616Y-81816760D01*
X173981151Y-81931132D01*
X173777350Y-82079201D01*
X173777345Y-82079205D01*
X173599205Y-82257345D01*
X173599201Y-82257350D01*
X173451132Y-82461151D01*
X173336760Y-82685616D01*
X173258910Y-82925214D01*
X173219500Y-83174038D01*
X173219500Y-83425961D01*
X173258910Y-83674786D01*
X173266068Y-83696818D01*
X173268062Y-83766659D01*
X173235817Y-83822814D01*
X169345451Y-87713181D01*
X169284128Y-87746666D01*
X169257770Y-87749500D01*
X166426076Y-87749500D01*
X166397242Y-87755234D01*
X166397243Y-87755235D01*
X166281093Y-87778339D01*
X166281083Y-87778342D01*
X166201081Y-87811479D01*
X166201082Y-87811480D01*
X166144505Y-87834915D01*
X166062372Y-87889795D01*
X166021585Y-87917047D01*
X166021581Y-87917050D01*
X162425451Y-91513181D01*
X162364128Y-91546666D01*
X162337770Y-91549500D01*
X136649166Y-91549500D01*
X136582127Y-91529815D01*
X136536372Y-91477011D01*
X136526428Y-91407853D01*
X136555453Y-91344297D01*
X136614231Y-91306523D01*
X136617027Y-91305737D01*
X136644419Y-91298398D01*
X136886697Y-91198043D01*
X137113803Y-91066924D01*
X137321851Y-90907282D01*
X137321855Y-90907277D01*
X137321860Y-90907274D01*
X137507274Y-90721860D01*
X137507277Y-90721855D01*
X137507282Y-90721851D01*
X137666924Y-90513803D01*
X137798043Y-90286697D01*
X137898398Y-90044419D01*
X137966270Y-89791116D01*
X138000500Y-89531120D01*
X138000500Y-89268880D01*
X137966270Y-89008884D01*
X137898398Y-88755581D01*
X137898394Y-88755571D01*
X137798046Y-88513309D01*
X137798041Y-88513299D01*
X137666924Y-88286196D01*
X137507281Y-88078148D01*
X137507274Y-88078140D01*
X137321860Y-87892726D01*
X137321851Y-87892718D01*
X137113803Y-87733075D01*
X136886700Y-87601958D01*
X136886690Y-87601953D01*
X136644428Y-87501605D01*
X136644421Y-87501603D01*
X136644419Y-87501602D01*
X136391116Y-87433730D01*
X136333339Y-87426123D01*
X136131127Y-87399500D01*
X136131120Y-87399500D01*
X135868880Y-87399500D01*
X135868872Y-87399500D01*
X135637772Y-87429926D01*
X135608884Y-87433730D01*
X135355581Y-87501602D01*
X135355571Y-87501605D01*
X135113309Y-87601953D01*
X135113299Y-87601958D01*
X134886196Y-87733075D01*
X134678148Y-87892718D01*
X134492718Y-88078148D01*
X134333075Y-88286196D01*
X134201958Y-88513299D01*
X134201953Y-88513309D01*
X134101605Y-88755571D01*
X134101602Y-88755581D01*
X134042198Y-88977283D01*
X134033730Y-89008885D01*
X133999500Y-89268872D01*
X133999500Y-89531127D01*
X134016763Y-89662242D01*
X134033730Y-89791116D01*
X134057481Y-89879755D01*
X134101602Y-90044418D01*
X134101605Y-90044428D01*
X134201953Y-90286690D01*
X134201958Y-90286700D01*
X134333075Y-90513803D01*
X134492718Y-90721851D01*
X134492726Y-90721860D01*
X134678140Y-90907274D01*
X134678148Y-90907281D01*
X134886196Y-91066924D01*
X135113299Y-91198041D01*
X135113309Y-91198046D01*
X135355571Y-91298394D01*
X135355581Y-91298398D01*
X135382929Y-91305726D01*
X135442588Y-91342090D01*
X135473117Y-91404937D01*
X135464822Y-91474313D01*
X135420337Y-91528191D01*
X135353785Y-91549465D01*
X135350834Y-91549500D01*
X118026080Y-91549500D01*
X117881092Y-91578340D01*
X117881082Y-91578343D01*
X117744511Y-91634912D01*
X117744498Y-91634919D01*
X117621584Y-91717048D01*
X117621580Y-91717051D01*
X116839201Y-92499429D01*
X116777878Y-92532914D01*
X116708186Y-92527930D01*
X116704067Y-92526309D01*
X116644428Y-92501605D01*
X116644421Y-92501603D01*
X116644419Y-92501602D01*
X116391116Y-92433730D01*
X116333339Y-92426123D01*
X116131127Y-92399500D01*
X116131120Y-92399500D01*
X115868880Y-92399500D01*
X115868872Y-92399500D01*
X115637772Y-92429926D01*
X115608884Y-92433730D01*
X115363691Y-92499429D01*
X115355581Y-92501602D01*
X115355571Y-92501605D01*
X115113309Y-92601953D01*
X115113299Y-92601958D01*
X114886196Y-92733075D01*
X114678148Y-92892718D01*
X114492718Y-93078148D01*
X114333075Y-93286196D01*
X114201958Y-93513299D01*
X114201953Y-93513309D01*
X114101605Y-93755571D01*
X114101602Y-93755581D01*
X114038803Y-93989954D01*
X114033730Y-94008885D01*
X113999500Y-94268872D01*
X104700499Y-94268872D01*
X104700499Y-94105171D01*
X104700499Y-93099998D01*
X104700498Y-93099981D01*
X104689999Y-92997203D01*
X104689998Y-92997200D01*
X104655376Y-92892718D01*
X104634814Y-92830666D01*
X104542712Y-92681344D01*
X104418656Y-92557288D01*
X104269334Y-92465186D01*
X104102797Y-92410001D01*
X104102795Y-92410000D01*
X104000010Y-92399500D01*
X101799998Y-92399500D01*
X101799981Y-92399501D01*
X101697203Y-92410000D01*
X101697200Y-92410001D01*
X101530668Y-92465185D01*
X101530663Y-92465187D01*
X101381342Y-92557289D01*
X101257289Y-92681342D01*
X101165187Y-92830663D01*
X101165186Y-92830666D01*
X101110001Y-92997203D01*
X101110001Y-92997204D01*
X101110000Y-92997204D01*
X101099500Y-93099983D01*
X97200500Y-93099983D01*
X97200500Y-89268872D01*
X113999500Y-89268872D01*
X113999500Y-89531127D01*
X114016763Y-89662242D01*
X114033730Y-89791116D01*
X114057481Y-89879755D01*
X114101602Y-90044418D01*
X114101605Y-90044428D01*
X114201953Y-90286690D01*
X114201958Y-90286700D01*
X114333075Y-90513803D01*
X114492718Y-90721851D01*
X114492726Y-90721860D01*
X114678140Y-90907274D01*
X114678148Y-90907281D01*
X114886196Y-91066924D01*
X115113299Y-91198041D01*
X115113309Y-91198046D01*
X115355571Y-91298394D01*
X115355581Y-91298398D01*
X115608884Y-91366270D01*
X115868880Y-91400500D01*
X115868887Y-91400500D01*
X116131113Y-91400500D01*
X116131120Y-91400500D01*
X116391116Y-91366270D01*
X116644419Y-91298398D01*
X116886697Y-91198043D01*
X117113803Y-91066924D01*
X117321851Y-90907282D01*
X117321855Y-90907277D01*
X117321860Y-90907274D01*
X117507274Y-90721860D01*
X117507277Y-90721855D01*
X117507282Y-90721851D01*
X117666924Y-90513803D01*
X117798043Y-90286697D01*
X117898398Y-90044419D01*
X117966270Y-89791116D01*
X118000500Y-89531120D01*
X118000500Y-89268880D01*
X117966270Y-89008884D01*
X117898398Y-88755581D01*
X117898394Y-88755571D01*
X117798046Y-88513309D01*
X117798041Y-88513299D01*
X117666924Y-88286196D01*
X117507281Y-88078148D01*
X117507274Y-88078140D01*
X117321860Y-87892726D01*
X117321851Y-87892718D01*
X117113803Y-87733075D01*
X116886700Y-87601958D01*
X116886690Y-87601953D01*
X116644428Y-87501605D01*
X116644421Y-87501603D01*
X116644419Y-87501602D01*
X116391116Y-87433730D01*
X116333339Y-87426123D01*
X116131127Y-87399500D01*
X116131120Y-87399500D01*
X115868880Y-87399500D01*
X115868872Y-87399500D01*
X115637772Y-87429926D01*
X115608884Y-87433730D01*
X115355581Y-87501602D01*
X115355571Y-87501605D01*
X115113309Y-87601953D01*
X115113299Y-87601958D01*
X114886196Y-87733075D01*
X114678148Y-87892718D01*
X114492718Y-88078148D01*
X114333075Y-88286196D01*
X114201958Y-88513299D01*
X114201953Y-88513309D01*
X114101605Y-88755571D01*
X114101602Y-88755581D01*
X114042198Y-88977283D01*
X114033730Y-89008885D01*
X113999500Y-89268872D01*
X97200500Y-89268872D01*
X97200500Y-84268872D01*
X113999500Y-84268872D01*
X113999500Y-84531127D01*
X114021606Y-84699031D01*
X114033730Y-84791116D01*
X114089834Y-85000499D01*
X114101602Y-85044418D01*
X114101605Y-85044428D01*
X114201953Y-85286690D01*
X114201958Y-85286700D01*
X114333075Y-85513803D01*
X114492718Y-85721851D01*
X114492726Y-85721860D01*
X114678140Y-85907274D01*
X114678148Y-85907281D01*
X114886196Y-86066924D01*
X115113299Y-86198041D01*
X115113309Y-86198046D01*
X115355571Y-86298394D01*
X115355581Y-86298398D01*
X115608884Y-86366270D01*
X115868880Y-86400500D01*
X115868887Y-86400500D01*
X116131113Y-86400500D01*
X116131120Y-86400500D01*
X116391116Y-86366270D01*
X116644419Y-86298398D01*
X116886697Y-86198043D01*
X117113803Y-86066924D01*
X117321851Y-85907282D01*
X117321855Y-85907277D01*
X117321860Y-85907274D01*
X117507274Y-85721860D01*
X117507277Y-85721855D01*
X117507282Y-85721851D01*
X117666924Y-85513803D01*
X117798043Y-85286697D01*
X117898398Y-85044419D01*
X117966270Y-84791116D01*
X118000500Y-84531120D01*
X118000500Y-84268880D01*
X118000499Y-84268872D01*
X133999500Y-84268872D01*
X133999500Y-84531127D01*
X134021606Y-84699031D01*
X134033730Y-84791116D01*
X134089834Y-85000499D01*
X134101602Y-85044418D01*
X134101605Y-85044428D01*
X134201953Y-85286690D01*
X134201958Y-85286700D01*
X134333075Y-85513803D01*
X134492718Y-85721851D01*
X134492726Y-85721860D01*
X134678140Y-85907274D01*
X134678148Y-85907281D01*
X134886196Y-86066924D01*
X135113299Y-86198041D01*
X135113309Y-86198046D01*
X135355571Y-86298394D01*
X135355581Y-86298398D01*
X135608884Y-86366270D01*
X135868880Y-86400500D01*
X135868887Y-86400500D01*
X136131113Y-86400500D01*
X136131120Y-86400500D01*
X136391116Y-86366270D01*
X136644419Y-86298398D01*
X136886697Y-86198043D01*
X137113803Y-86066924D01*
X137321851Y-85907282D01*
X137321855Y-85907277D01*
X137321860Y-85907274D01*
X137507274Y-85721860D01*
X137507277Y-85721855D01*
X137507282Y-85721851D01*
X137666924Y-85513803D01*
X137798043Y-85286697D01*
X137898398Y-85044419D01*
X137966270Y-84791116D01*
X138000500Y-84531120D01*
X138000500Y-84268880D01*
X137966270Y-84008884D01*
X137898398Y-83755581D01*
X137898394Y-83755571D01*
X137798046Y-83513309D01*
X137798041Y-83513299D01*
X137666924Y-83286196D01*
X137514954Y-83088147D01*
X137507282Y-83078149D01*
X137507281Y-83078148D01*
X137507274Y-83078140D01*
X137321860Y-82892726D01*
X137321851Y-82892718D01*
X137113803Y-82733075D01*
X136886700Y-82601958D01*
X136886690Y-82601953D01*
X136644428Y-82501605D01*
X136644421Y-82501603D01*
X136644419Y-82501602D01*
X136391116Y-82433730D01*
X136333339Y-82426123D01*
X136131127Y-82399500D01*
X136131120Y-82399500D01*
X135868880Y-82399500D01*
X135868872Y-82399500D01*
X135637772Y-82429926D01*
X135608884Y-82433730D01*
X135370211Y-82497682D01*
X135355581Y-82501602D01*
X135355571Y-82501605D01*
X135113309Y-82601953D01*
X135113299Y-82601958D01*
X134886196Y-82733075D01*
X134678148Y-82892718D01*
X134492718Y-83078148D01*
X134333075Y-83286196D01*
X134201958Y-83513299D01*
X134201953Y-83513309D01*
X134101605Y-83755571D01*
X134101602Y-83755581D01*
X134048331Y-83954394D01*
X134033730Y-84008885D01*
X133999500Y-84268872D01*
X118000499Y-84268872D01*
X117966270Y-84008884D01*
X117898398Y-83755581D01*
X117898394Y-83755571D01*
X117798046Y-83513309D01*
X117798041Y-83513299D01*
X117666924Y-83286196D01*
X117514954Y-83088147D01*
X117507282Y-83078149D01*
X117507281Y-83078148D01*
X117507274Y-83078140D01*
X117321860Y-82892726D01*
X117321851Y-82892718D01*
X117113803Y-82733075D01*
X116886700Y-82601958D01*
X116886690Y-82601953D01*
X116644428Y-82501605D01*
X116644421Y-82501603D01*
X116644419Y-82501602D01*
X116391116Y-82433730D01*
X116333339Y-82426123D01*
X116131127Y-82399500D01*
X116131120Y-82399500D01*
X115868880Y-82399500D01*
X115868872Y-82399500D01*
X115637772Y-82429926D01*
X115608884Y-82433730D01*
X115370211Y-82497682D01*
X115355581Y-82501602D01*
X115355571Y-82501605D01*
X115113309Y-82601953D01*
X115113299Y-82601958D01*
X114886196Y-82733075D01*
X114678148Y-82892718D01*
X114492718Y-83078148D01*
X114333075Y-83286196D01*
X114201958Y-83513299D01*
X114201953Y-83513309D01*
X114101605Y-83755571D01*
X114101602Y-83755581D01*
X114048331Y-83954394D01*
X114033730Y-84008885D01*
X113999500Y-84268872D01*
X97200500Y-84268872D01*
X97200500Y-80399983D01*
X147628563Y-80399983D01*
X147628563Y-81600001D01*
X147628564Y-81600018D01*
X147639063Y-81702796D01*
X147639064Y-81702799D01*
X147684167Y-81838910D01*
X147694249Y-81869334D01*
X147786351Y-82018656D01*
X147910407Y-82142712D01*
X148059729Y-82234814D01*
X148214505Y-82286101D01*
X148271949Y-82325874D01*
X148298772Y-82390389D01*
X148299500Y-82403807D01*
X148299500Y-83200001D01*
X148299501Y-83200019D01*
X148310000Y-83302796D01*
X148310001Y-83302799D01*
X148350814Y-83425962D01*
X148365186Y-83469334D01*
X148457288Y-83618656D01*
X148581344Y-83742712D01*
X148730666Y-83834814D01*
X148897203Y-83889999D01*
X148999991Y-83900500D01*
X150200008Y-83900499D01*
X150302797Y-83889999D01*
X150469334Y-83834814D01*
X150618656Y-83742712D01*
X150742712Y-83618656D01*
X150834814Y-83469334D01*
X150858102Y-83399054D01*
X150862110Y-83391050D01*
X150880060Y-83371772D01*
X150895055Y-83350116D01*
X150903495Y-83346606D01*
X150909725Y-83339917D01*
X150935249Y-83333404D01*
X150959571Y-83323292D01*
X150975834Y-83323048D01*
X150977425Y-83322643D01*
X150978523Y-83323008D01*
X150982719Y-83322946D01*
X151020525Y-83325921D01*
X151700000Y-82646446D01*
X151700000Y-82652661D01*
X151727259Y-82754394D01*
X151779920Y-82845606D01*
X151854394Y-82920080D01*
X151945606Y-82972741D01*
X152047339Y-83000000D01*
X152053553Y-83000000D01*
X151374076Y-83679474D01*
X151418646Y-83711857D01*
X151418648Y-83711858D01*
X151447824Y-83726723D01*
X151498621Y-83774697D01*
X151515417Y-83842517D01*
X151509464Y-83875522D01*
X151502946Y-83895582D01*
X151470937Y-84097682D01*
X151470937Y-84302317D01*
X151502946Y-84504417D01*
X151566181Y-84699031D01*
X151659078Y-84881350D01*
X151659084Y-84881359D01*
X151691460Y-84925921D01*
X151691461Y-84925922D01*
X152370937Y-84246446D01*
X152370937Y-84252661D01*
X152398196Y-84354394D01*
X152450857Y-84445606D01*
X152525331Y-84520080D01*
X152616543Y-84572741D01*
X152718276Y-84600000D01*
X152724490Y-84600000D01*
X152045013Y-85279474D01*
X152089587Y-85311859D01*
X152271905Y-85404755D01*
X152466519Y-85467990D01*
X152668620Y-85500000D01*
X152873254Y-85500000D01*
X153075354Y-85467990D01*
X153269968Y-85404755D01*
X153452286Y-85311859D01*
X153496858Y-85279474D01*
X152817384Y-84600000D01*
X152823598Y-84600000D01*
X152925331Y-84572741D01*
X153016543Y-84520080D01*
X153091017Y-84445606D01*
X153143678Y-84354394D01*
X153170937Y-84252661D01*
X153170937Y-84246447D01*
X153850411Y-84925921D01*
X153882796Y-84881349D01*
X153975692Y-84699031D01*
X154038927Y-84504417D01*
X154070937Y-84302317D01*
X154070937Y-84097682D01*
X154038927Y-83895582D01*
X153975692Y-83700968D01*
X153882796Y-83518650D01*
X153850411Y-83474077D01*
X153850411Y-83474076D01*
X153170937Y-84153551D01*
X153170937Y-84147339D01*
X153143678Y-84045606D01*
X153091017Y-83954394D01*
X153016543Y-83879920D01*
X152925331Y-83827259D01*
X152823598Y-83800000D01*
X152817383Y-83800000D01*
X153496859Y-83120524D01*
X153496858Y-83120523D01*
X153452296Y-83088147D01*
X153452277Y-83088135D01*
X153423109Y-83073273D01*
X153372313Y-83025299D01*
X153355518Y-82957478D01*
X153361474Y-82924468D01*
X153367990Y-82904413D01*
X153400000Y-82702317D01*
X153400000Y-82499982D01*
X158419500Y-82499982D01*
X158419500Y-84300017D01*
X158430000Y-84402796D01*
X158444186Y-84445606D01*
X158485186Y-84569335D01*
X158577288Y-84718656D01*
X158701344Y-84842712D01*
X158850665Y-84934814D01*
X159017202Y-84989999D01*
X159119990Y-85000500D01*
X159119995Y-85000500D01*
X160920005Y-85000500D01*
X160920010Y-85000500D01*
X161022798Y-84989999D01*
X161189335Y-84934814D01*
X161338656Y-84842712D01*
X161462712Y-84718656D01*
X161554814Y-84569335D01*
X161609999Y-84402798D01*
X161620500Y-84300010D01*
X161620500Y-83274038D01*
X168579500Y-83274038D01*
X168579500Y-83525962D01*
X168594182Y-83618657D01*
X168618910Y-83774785D01*
X168696760Y-84014383D01*
X168811132Y-84238848D01*
X168959201Y-84442649D01*
X168959205Y-84442654D01*
X169137345Y-84620794D01*
X169137350Y-84620798D01*
X169315117Y-84749952D01*
X169341155Y-84768870D01*
X169462013Y-84830450D01*
X169565616Y-84883239D01*
X169565618Y-84883239D01*
X169565621Y-84883241D01*
X169805215Y-84961090D01*
X170054038Y-85000500D01*
X170054039Y-85000500D01*
X170305961Y-85000500D01*
X170305962Y-85000500D01*
X170554785Y-84961090D01*
X170794379Y-84883241D01*
X171018845Y-84768870D01*
X171222656Y-84620793D01*
X171400793Y-84442656D01*
X171548870Y-84238845D01*
X171663241Y-84014379D01*
X171741090Y-83774785D01*
X171780500Y-83525962D01*
X171780500Y-83274038D01*
X171741090Y-83025215D01*
X171663241Y-82785621D01*
X171663239Y-82785618D01*
X171663239Y-82785616D01*
X171620796Y-82702317D01*
X171548870Y-82561155D01*
X171529952Y-82535117D01*
X171400798Y-82357350D01*
X171400794Y-82357345D01*
X171222654Y-82179205D01*
X171222649Y-82179201D01*
X171018848Y-82031132D01*
X171018847Y-82031131D01*
X171018845Y-82031130D01*
X170948747Y-81995413D01*
X170794383Y-81916760D01*
X170554785Y-81838910D01*
X170414930Y-81816759D01*
X170305962Y-81799500D01*
X170054038Y-81799500D01*
X169987738Y-81810001D01*
X169805214Y-81838910D01*
X169565616Y-81916760D01*
X169341151Y-82031132D01*
X169137350Y-82179201D01*
X169137345Y-82179205D01*
X168959205Y-82357345D01*
X168959201Y-82357350D01*
X168811132Y-82561151D01*
X168696760Y-82785616D01*
X168618910Y-83025214D01*
X168603814Y-83120524D01*
X168579500Y-83274038D01*
X161620500Y-83274038D01*
X161620500Y-82499990D01*
X161609999Y-82397202D01*
X161554814Y-82230665D01*
X161462712Y-82081344D01*
X161338656Y-81957288D01*
X161241243Y-81897203D01*
X161189337Y-81865187D01*
X161189332Y-81865185D01*
X161187863Y-81864698D01*
X161022798Y-81810001D01*
X161022796Y-81810000D01*
X160920017Y-81799500D01*
X160920010Y-81799500D01*
X159119990Y-81799500D01*
X159119982Y-81799500D01*
X159017203Y-81810000D01*
X159017202Y-81810001D01*
X158996808Y-81816759D01*
X158850667Y-81865185D01*
X158850662Y-81865187D01*
X158701342Y-81957289D01*
X158577289Y-82081342D01*
X158485187Y-82230662D01*
X158485185Y-82230667D01*
X158476345Y-82257344D01*
X158430001Y-82397202D01*
X158430001Y-82397203D01*
X158430000Y-82397203D01*
X158419500Y-82499982D01*
X153400000Y-82499982D01*
X153400000Y-82497682D01*
X153367990Y-82295582D01*
X153304755Y-82100968D01*
X153211859Y-81918650D01*
X153179474Y-81874077D01*
X153179474Y-81874076D01*
X152500000Y-82553553D01*
X152500000Y-82547339D01*
X152472741Y-82445606D01*
X152420080Y-82354394D01*
X152345606Y-82279920D01*
X152254394Y-82227259D01*
X152152661Y-82200000D01*
X152146446Y-82200000D01*
X152825922Y-81520524D01*
X152825921Y-81520523D01*
X152781359Y-81488147D01*
X152781350Y-81488141D01*
X152599031Y-81395244D01*
X152404417Y-81332009D01*
X152202317Y-81300000D01*
X151997683Y-81300000D01*
X151795582Y-81332009D01*
X151600968Y-81395244D01*
X151418644Y-81488143D01*
X151374077Y-81520523D01*
X151374077Y-81520524D01*
X152053554Y-82200000D01*
X152047339Y-82200000D01*
X151945606Y-82227259D01*
X151854394Y-82279920D01*
X151779920Y-82354394D01*
X151727259Y-82445606D01*
X151700000Y-82547339D01*
X151700000Y-82553553D01*
X151020524Y-81874077D01*
X150982719Y-81877053D01*
X150914341Y-81862689D01*
X150864584Y-81813638D01*
X150862110Y-81808949D01*
X150858101Y-81800942D01*
X150834814Y-81730666D01*
X150742712Y-81581344D01*
X150618656Y-81457288D01*
X150469334Y-81365186D01*
X150369213Y-81332009D01*
X150314558Y-81313898D01*
X150257113Y-81274125D01*
X150230290Y-81209609D01*
X150229562Y-81196192D01*
X150229562Y-80399998D01*
X150229561Y-80399981D01*
X150219062Y-80297203D01*
X150219061Y-80297200D01*
X150163877Y-80130666D01*
X150071775Y-79981344D01*
X149947719Y-79857288D01*
X149798397Y-79765186D01*
X149631860Y-79710001D01*
X149631858Y-79710000D01*
X149529073Y-79699500D01*
X148329061Y-79699500D01*
X148329044Y-79699501D01*
X148226266Y-79710000D01*
X148226263Y-79710001D01*
X148059731Y-79765185D01*
X148059726Y-79765187D01*
X147910405Y-79857289D01*
X147786352Y-79981342D01*
X147694250Y-80130663D01*
X147694249Y-80130666D01*
X147639064Y-80297203D01*
X147639064Y-80297204D01*
X147639063Y-80297204D01*
X147628563Y-80399983D01*
X97200500Y-80399983D01*
X97200500Y-77399982D01*
X158419500Y-77399982D01*
X158419500Y-79200017D01*
X158430000Y-79302796D01*
X158430001Y-79302798D01*
X158485186Y-79469335D01*
X158577288Y-79618656D01*
X158701344Y-79742712D01*
X158850665Y-79834814D01*
X159017202Y-79889999D01*
X159119990Y-79900500D01*
X159119995Y-79900500D01*
X160920005Y-79900500D01*
X160920010Y-79900500D01*
X161022798Y-79889999D01*
X161189335Y-79834814D01*
X161338656Y-79742712D01*
X161462712Y-79618656D01*
X161554814Y-79469335D01*
X161609999Y-79302798D01*
X161620500Y-79200010D01*
X161620500Y-78174071D01*
X168580000Y-78174071D01*
X168580000Y-78425928D01*
X168619397Y-78674669D01*
X168697219Y-78914184D01*
X168811557Y-79138583D01*
X168885748Y-79240697D01*
X168885748Y-79240698D01*
X169656212Y-78470234D01*
X169667482Y-78512292D01*
X169739890Y-78637708D01*
X169842292Y-78740110D01*
X169967708Y-78812518D01*
X170009765Y-78823787D01*
X169239300Y-79594250D01*
X169341416Y-79668442D01*
X169565815Y-79782780D01*
X169805330Y-79860602D01*
X170054072Y-79900000D01*
X170305928Y-79900000D01*
X170554669Y-79860602D01*
X170794184Y-79782780D01*
X171018575Y-79668446D01*
X171018581Y-79668442D01*
X171120697Y-79594250D01*
X171120698Y-79594250D01*
X170350234Y-78823787D01*
X170392292Y-78812518D01*
X170517708Y-78740110D01*
X170620110Y-78637708D01*
X170692518Y-78512292D01*
X170703787Y-78470234D01*
X171474250Y-79240698D01*
X171474250Y-79240697D01*
X171548442Y-79138581D01*
X171548446Y-79138575D01*
X171662780Y-78914184D01*
X171740602Y-78674669D01*
X171780000Y-78425928D01*
X171780000Y-78174071D01*
X171740602Y-77925330D01*
X171662780Y-77685815D01*
X171548442Y-77461416D01*
X171503807Y-77399982D01*
X173119500Y-77399982D01*
X173119500Y-79200017D01*
X173130000Y-79302796D01*
X173130001Y-79302798D01*
X173185186Y-79469335D01*
X173277288Y-79618656D01*
X173401344Y-79742712D01*
X173550665Y-79834814D01*
X173717202Y-79889999D01*
X173819990Y-79900500D01*
X173819995Y-79900500D01*
X175620005Y-79900500D01*
X175620010Y-79900500D01*
X175722798Y-79889999D01*
X175889335Y-79834814D01*
X176038656Y-79742712D01*
X176162712Y-79618656D01*
X176254814Y-79469335D01*
X176309999Y-79302798D01*
X176320500Y-79200010D01*
X176320500Y-78174071D01*
X183280000Y-78174071D01*
X183280000Y-78425928D01*
X183319397Y-78674669D01*
X183397219Y-78914184D01*
X183511557Y-79138583D01*
X183585748Y-79240697D01*
X183585748Y-79240698D01*
X184356212Y-78470234D01*
X184367482Y-78512292D01*
X184439890Y-78637708D01*
X184542292Y-78740110D01*
X184667708Y-78812518D01*
X184709765Y-78823787D01*
X183939300Y-79594250D01*
X184041416Y-79668442D01*
X184265815Y-79782780D01*
X184505330Y-79860602D01*
X184754072Y-79900000D01*
X185005928Y-79900000D01*
X185254669Y-79860602D01*
X185494184Y-79782780D01*
X185718575Y-79668446D01*
X185718581Y-79668442D01*
X185820697Y-79594250D01*
X185820698Y-79594250D01*
X185050234Y-78823787D01*
X185092292Y-78812518D01*
X185217708Y-78740110D01*
X185320110Y-78637708D01*
X185392518Y-78512292D01*
X185403787Y-78470234D01*
X186174250Y-79240698D01*
X186174250Y-79240697D01*
X186248442Y-79138581D01*
X186248446Y-79138575D01*
X186362780Y-78914184D01*
X186440602Y-78674669D01*
X186480000Y-78425928D01*
X186480000Y-78174071D01*
X186440602Y-77925330D01*
X186362780Y-77685815D01*
X186248442Y-77461416D01*
X186174250Y-77359301D01*
X186174250Y-77359300D01*
X185403787Y-78129764D01*
X185392518Y-78087708D01*
X185320110Y-77962292D01*
X185217708Y-77859890D01*
X185092292Y-77787482D01*
X185050232Y-77776212D01*
X185820698Y-77005748D01*
X185718583Y-76931557D01*
X185494184Y-76817219D01*
X185254669Y-76739397D01*
X185005928Y-76700000D01*
X184754072Y-76700000D01*
X184505330Y-76739397D01*
X184265815Y-76817219D01*
X184041413Y-76931559D01*
X183939301Y-77005747D01*
X183939300Y-77005748D01*
X184709765Y-77776212D01*
X184667708Y-77787482D01*
X184542292Y-77859890D01*
X184439890Y-77962292D01*
X184367482Y-78087708D01*
X184356212Y-78129765D01*
X183585748Y-77359300D01*
X183585747Y-77359301D01*
X183511559Y-77461413D01*
X183397219Y-77685815D01*
X183319397Y-77925330D01*
X183280000Y-78174071D01*
X176320500Y-78174071D01*
X176320500Y-77399990D01*
X176309999Y-77297202D01*
X176254814Y-77130665D01*
X176162712Y-76981344D01*
X176038656Y-76857288D01*
X175889335Y-76765186D01*
X175722798Y-76710001D01*
X175722796Y-76710000D01*
X175620017Y-76699500D01*
X175620010Y-76699500D01*
X173819990Y-76699500D01*
X173819982Y-76699500D01*
X173717203Y-76710000D01*
X173717202Y-76710001D01*
X173634669Y-76737349D01*
X173550667Y-76765185D01*
X173550662Y-76765187D01*
X173401342Y-76857289D01*
X173277289Y-76981342D01*
X173185187Y-77130662D01*
X173185186Y-77130665D01*
X173130001Y-77297202D01*
X173130001Y-77297203D01*
X173130000Y-77297203D01*
X173119500Y-77399982D01*
X171503807Y-77399982D01*
X171474250Y-77359301D01*
X171474250Y-77359300D01*
X170703787Y-78129764D01*
X170692518Y-78087708D01*
X170620110Y-77962292D01*
X170517708Y-77859890D01*
X170392292Y-77787482D01*
X170350232Y-77776212D01*
X171120698Y-77005748D01*
X171018583Y-76931557D01*
X170794184Y-76817219D01*
X170554669Y-76739397D01*
X170305928Y-76700000D01*
X170054072Y-76700000D01*
X169805330Y-76739397D01*
X169565815Y-76817219D01*
X169341413Y-76931559D01*
X169239301Y-77005747D01*
X169239300Y-77005748D01*
X170009765Y-77776212D01*
X169967708Y-77787482D01*
X169842292Y-77859890D01*
X169739890Y-77962292D01*
X169667482Y-78087708D01*
X169656212Y-78129765D01*
X168885748Y-77359300D01*
X168885747Y-77359301D01*
X168811559Y-77461413D01*
X168697219Y-77685815D01*
X168619397Y-77925330D01*
X168580000Y-78174071D01*
X161620500Y-78174071D01*
X161620500Y-77399990D01*
X161609999Y-77297202D01*
X161554814Y-77130665D01*
X161462712Y-76981344D01*
X161338656Y-76857288D01*
X161189335Y-76765186D01*
X161022798Y-76710001D01*
X161022796Y-76710000D01*
X160920017Y-76699500D01*
X160920010Y-76699500D01*
X159119990Y-76699500D01*
X159119982Y-76699500D01*
X159017203Y-76710000D01*
X159017202Y-76710001D01*
X158934669Y-76737349D01*
X158850667Y-76765185D01*
X158850662Y-76765187D01*
X158701342Y-76857289D01*
X158577289Y-76981342D01*
X158485187Y-77130662D01*
X158485186Y-77130665D01*
X158430001Y-77297202D01*
X158430001Y-77297203D01*
X158430000Y-77297203D01*
X158419500Y-77399982D01*
X97200500Y-77399982D01*
X97200500Y-74624500D01*
X97220185Y-74557461D01*
X97272989Y-74511706D01*
X97324500Y-74500500D01*
X187475500Y-74500500D01*
X187542539Y-74520185D01*
G37*
%TD.AperFunction*%
%TD*%
M02*
