%TF.GenerationSoftware,KiCad,Pcbnew,10.0.5*%
%TF.CreationDate,2026-10-02T22:40:27+05:30*%
%TF.ProjectId,Regulated Power Supply,52656775-6c61-4746-9564-20506f776572,rev?*%
%TF.SameCoordinates,Original*%
%TF.FileFunction,Soldermask,Bot*%
%TF.FilePolarity,Negative*%
%FSLAX46Y46*%
G04 Gerber Fmt 4.6, Leading zero omitted, Abs format (unit mm)*
G04 Created by KiCad (PCBNEW 10.0.5) date 2026-10-02 22:40:27*
%MOMM*%
%LPD*%
G01*
G04 APERTURE LIST*
G04 Aperture macros list*
%AMRoundRect*
0 Rectangle with rounded corners*
0 $1 Rounding radius*
0 $2 $3 $4 $5 $6 $7 $8 $9 X,Y pos of 4 corners*
0 Add a 4 corners polygon primitive as box body*
4,1,4,$2,$3,$4,$5,$6,$7,$8,$9,$2,$3,0*
0 Add four circle primitives for the rounded corners*
1,1,$1+$1,$2,$3*
1,1,$1+$1,$4,$5*
1,1,$1+$1,$6,$7*
1,1,$1+$1,$8,$9*
0 Add four rect primitives between the rounded corners*
20,1,$1+$1,$2,$3,$4,$5,0*
20,1,$1+$1,$4,$5,$6,$7,0*
20,1,$1+$1,$6,$7,$8,$9,0*
20,1,$1+$1,$8,$9,$2,$3,0*%
G04 Aperture macros list end*
%ADD10C,1.400000*%
%ADD11C,3.000000*%
%ADD12RoundRect,0.249999X-0.850001X-0.850001X0.850001X-0.850001X0.850001X0.850001X-0.850001X0.850001X0*%
%ADD13C,2.200000*%
%ADD14RoundRect,0.250000X-0.550000X-0.550000X0.550000X-0.550000X0.550000X0.550000X-0.550000X0.550000X0*%
%ADD15C,1.600000*%
%ADD16R,2.000000X1.905000*%
%ADD17O,2.000000X1.905000*%
%ADD18RoundRect,0.250000X-1.050000X1.050000X-1.050000X-1.050000X1.050000X-1.050000X1.050000X1.050000X0*%
%ADD19C,2.600000*%
%ADD20RoundRect,0.250000X-1.050000X-1.050000X1.050000X-1.050000X1.050000X1.050000X-1.050000X1.050000X0*%
%ADD21R,1.800000X1.800000*%
%ADD22C,1.800000*%
%ADD23RoundRect,0.249999X0.850001X0.850001X-0.850001X0.850001X-0.850001X-0.850001X0.850001X-0.850001X0*%
G04 APERTURE END LIST*
D10*
%TO.C,R1*%
X164960000Y-108600000D03*
X170040000Y-108600000D03*
%TD*%
D11*
%TO.C,T1*%
X116000000Y-104400000D03*
X116000000Y-99400000D03*
X116000000Y-94400000D03*
X116000000Y-89400000D03*
X116000000Y-84400000D03*
X136000000Y-84400000D03*
X136000000Y-89400000D03*
X136000000Y-94400000D03*
X136000000Y-99400000D03*
X136000000Y-104400000D03*
%TD*%
D12*
%TO.C,D2*%
X160020000Y-83400000D03*
D13*
X170180000Y-83400000D03*
%TD*%
D14*
%TO.C,C3*%
X164029063Y-97200000D03*
X164700000Y-98800000D03*
D15*
X167200000Y-98800000D03*
X167870937Y-100400000D03*
%TD*%
D14*
%TO.C,C1*%
X149429063Y-95600000D03*
X150100000Y-97200000D03*
D15*
X152600000Y-97200000D03*
X153270937Y-98800000D03*
%TD*%
D11*
%TO.C,F1*%
X141930000Y-121200000D03*
X131770000Y-121200000D03*
%TD*%
D14*
%TO.C,C2*%
X148929063Y-81000000D03*
X149600000Y-82600000D03*
D15*
X152100000Y-82600000D03*
X152770937Y-84200000D03*
%TD*%
D16*
%TO.C,U1*%
X176900000Y-95300000D03*
D17*
X176900000Y-92760000D03*
X176900000Y-90220000D03*
%TD*%
D12*
%TO.C,D1*%
X160020000Y-78300000D03*
D13*
X170180000Y-78300000D03*
%TD*%
D18*
%TO.C,J1*%
X102900000Y-94200000D03*
D19*
X102900000Y-99200000D03*
%TD*%
D20*
%TO.C,J2*%
X155700000Y-119400000D03*
D19*
X160700000Y-119400000D03*
%TD*%
D21*
%TO.C,D5*%
X176160000Y-107600000D03*
D22*
X178700000Y-107600000D03*
%TD*%
D12*
%TO.C,D3*%
X174720000Y-78300000D03*
D13*
X184880000Y-78300000D03*
%TD*%
D23*
%TO.C,D4*%
X184980000Y-83300000D03*
D13*
X174820000Y-83300000D03*
%TD*%
M02*
